<?xml version="1.0" standalone="no"?>
<!DOCTYPE svg PUBLIC "-//W3C//DTD SVG 20010904//EN"
 "http://www.w3.org/TR/2001/REC-SVG-20010904/DTD/svg10.dtd">
<svg version="1.0" xmlns="http://www.w3.org/2000/svg"
 width="225.000000pt" height="225.000000pt" viewBox="0 0 225.000000 225.000000"
 preserveAspectRatio="xMidYMid meet">
<metadata>
Created by potrace 1.10, written by Peter Selinger 2001-2011
</metadata>
<g transform="translate(0.000000,225.000000) scale(0.100000,-0.100000)"
fill="#000000" stroke="none">
<path d="M23 2243 c9 -3 17 -11 17 -19 0 -20 27 -18 39 4 8 15 4 17 -33 18
-22 0 -33 -1 -23 -3z"/>
<path d="M108 2228 c2 -10 13 -18 23 -18 12 0 19 -7 19 -20 0 -13 -7 -20 -20
-20 -11 0 -20 7 -20 15 0 8 -7 15 -15 15 -8 0 -15 -7 -15 -15 0 -8 -9 -15 -20
-15 -11 0 -20 7 -20 15 0 8 -7 15 -15 15 -8 0 -15 -7 -15 -15 0 -8 7 -15 15
-15 8 0 15 -7 15 -15 0 -8 6 -15 14 -15 8 0 16 7 20 15 3 8 12 15 21 15 8 0
15 -7 15 -15 0 -8 9 -15 20 -15 13 0 20 -7 20 -20 0 -11 6 -20 14 -20 7 0 16
-9 19 -20 3 -11 10 -20 17 -20 7 0 14 9 17 20 3 11 12 20 19 20 8 0 14 7 14
15 0 8 -7 15 -15 15 -8 0 -15 -7 -15 -15 0 -8 -9 -15 -20 -15 -11 0 -20 6 -20
14 0 8 -7 16 -15 20 -8 3 -15 12 -15 21 0 8 7 15 15 15 8 0 15 -7 15 -15 0 -8
9 -15 20 -15 11 0 20 7 20 15 0 8 7 15 15 15 9 0 18 -7 21 -15 4 -8 12 -15 20
-15 8 0 14 7 14 15 0 8 -8 15 -19 15 -11 0 -21 9 -24 21 -6 23 -27 17 -27 -7
0 -8 -9 -14 -20 -14 -11 0 -20 7 -20 15 0 9 -7 18 -15 21 -8 4 -15 12 -15 20
0 8 7 14 15 14 8 0 15 -7 15 -15 0 -8 9 -15 20 -15 11 0 20 7 20 15 0 8 9 15
20 15 11 0 20 -7 20 -15 0 -8 6 -15 14 -15 7 0 16 -9 19 -20 3 -11 10 -20 16
-20 16 0 13 27 -4 34 -8 3 -15 12 -15 21 0 17 -5 18 -111 19 -68 1 -75 -1 -71
-16z"/>
<path d="M348 2243 c-22 -5 -24 -33 -3 -33 8 0 15 6 15 14 0 8 8 17 18 19 11
3 12 5 2 5 -8 0 -23 -2 -32 -5z"/>
<path d="M418 2243 c-22 -5 -24 -33 -3 -33 8 0 15 6 15 14 0 8 8 17 18 19 11
3 12 5 2 5 -8 0 -23 -2 -32 -5z"/>
<path d="M488 2243 c-22 -5 -24 -33 -3 -33 8 0 15 7 15 15 0 8 9 15 20 15 11
0 20 -7 20 -15 0 -8 7 -15 15 -15 24 0 18 27 -7 34 -25 6 -34 6 -60 -1z"/>
<path d="M629 2242 c-10 -2 -19 -12 -22 -24 -3 -11 -10 -17 -15 -14 -5 3 -12
-3 -15 -14 -7 -26 -33 -26 -40 0 -3 11 -10 20 -17 20 -7 0 -14 -9 -17 -20 -6
-23 -33 -27 -33 -5 0 8 -4 15 -10 15 -5 0 -13 0 -17 0 -5 0 -8 -6 -8 -12 0
-19 -34 -22 -41 -4 -8 20 -34 21 -34 1 0 -8 -7 -15 -15 -15 -8 0 -15 -7 -15
-15 0 -8 7 -15 15 -15 8 0 15 7 15 15 0 8 9 15 20 15 11 0 20 -7 20 -15 0 -8
7 -15 15 -15 8 0 15 7 15 15 0 8 9 15 20 15 11 0 20 -7 20 -15 0 -8 7 -15 15
-15 8 0 15 7 15 15 0 8 9 15 20 15 11 0 20 -7 20 -15 0 -8 7 -15 15 -15 8 0
15 7 15 15 0 8 9 15 20 15 11 0 20 -7 20 -15 0 -8 7 -15 15 -15 8 0 15 7 15
15 0 8 -7 15 -15 15 -8 0 -15 9 -15 20 0 11 7 20 15 20 8 0 15 7 15 15 0 8 9
15 20 15 11 0 20 -7 20 -15 0 -8 7 -15 15 -15 9 0 18 7 21 15 4 8 12 15 20 15
19 0 18 -29 -1 -36 -8 -4 -15 -12 -15 -20 0 -8 7 -14 15 -14 8 0 15 -7 15 -15
0 -8 9 -15 20 -15 13 0 20 -7 20 -20 0 -11 6 -20 14 -20 7 0 16 -9 19 -20 3
-11 10 -20 17 -20 7 0 14 9 17 20 3 11 12 20 19 20 8 0 14 7 14 15 0 8 -7 15
-15 15 -8 0 -15 -7 -15 -15 0 -8 -9 -15 -20 -15 -11 0 -20 6 -20 14 0 8 -7 16
-15 20 -8 3 -15 12 -15 21 0 8 7 15 15 15 8 0 15 -7 15 -15 0 -8 9 -15 20 -15
11 0 20 7 20 15 0 8 7 15 15 15 9 0 18 -7 21 -15 4 -8 12 -15 20 -15 8 0 14 7
14 15 0 8 -9 15 -20 15 -13 0 -20 7 -20 20 0 11 -5 20 -11 20 -6 0 -13 -9 -16
-20 -6 -23 -43 -27 -43 -5 0 9 -7 18 -15 21 -8 4 -15 12 -15 20 0 8 7 14 15
14 8 0 15 -7 15 -15 0 -8 9 -15 20 -15 11 0 20 7 20 15 0 8 9 15 20 15 11 0
20 -7 20 -15 0 -8 6 -15 14 -15 7 0 16 -9 19 -20 3 -11 10 -20 16 -20 16 0 13
27 -4 34 -8 3 -15 12 -15 21 0 8 -6 16 -12 16 -32 3 -275 4 -289 1z m161 -52
c0 -13 -7 -20 -20 -20 -13 0 -20 7 -20 20 0 13 7 20 20 20 13 0 20 -7 20 -20z"/>
<path d="M982 2239 c-13 -5 -20 -13 -17 -19 9 -15 35 -12 35 4 0 8 8 17 18 19
11 3 12 5 2 5 -8 0 -25 -3 -38 -9z"/>
<path d="M1128 2243 c-22 -5 -24 -33 -3 -33 8 0 15 7 15 15 0 8 9 15 20 15 11
0 20 -7 20 -15 0 -8 7 -15 15 -15 24 0 18 27 -7 34 -25 6 -34 6 -60 -1z"/>
<path d="M1233 2243 c23 -6 22 -34 -2 -40 -22 -6 -17 -33 5 -33 8 0 14 -7 14
-15 0 -8 7 -15 15 -15 8 0 15 7 15 15 0 8 -7 15 -15 15 -8 0 -15 9 -15 20 0
11 7 20 15 20 24 0 18 27 -7 34 -13 3 -27 5 -33 5 -5 -1 -2 -3 8 -6z"/>
<path d="M1303 2243 c9 -2 17 -11 17 -19 0 -16 26 -19 35 -4 6 10 -36 31 -58
29 -7 -1 -4 -3 6 -6z"/>
<path d="M1413 2242 c-13 -2 -23 -10 -23 -18 0 -8 -7 -17 -15 -20 -8 -4 -15
-12 -15 -20 0 -8 7 -14 15 -14 8 0 15 -7 15 -15 0 -8 9 -15 20 -15 13 0 20 -7
20 -20 0 -11 -6 -20 -14 -20 -18 0 -29 -16 -21 -30 8 -13 35 -1 35 16 0 22 27
17 33 -6 3 -11 10 -20 17 -20 7 0 14 9 17 20 3 11 12 20 19 20 8 0 14 7 14 15
0 8 -7 15 -15 15 -8 0 -15 -7 -15 -15 0 -8 -9 -15 -20 -15 -11 0 -20 6 -20 14
0 8 -7 16 -15 20 -8 3 -15 12 -15 21 0 8 7 15 15 15 8 0 15 -7 15 -15 0 -8 9
-15 20 -15 11 0 20 7 20 15 0 8 7 15 15 15 8 0 15 9 15 20 0 13 7 20 19 20 10
0 21 -9 24 -20 3 -11 10 -20 16 -20 16 0 13 27 -4 34 -21 8 -19 34 3 38 22 4
-145 4 -175 0z m47 -17 c0 -8 9 -15 20 -15 11 0 20 7 20 15 0 8 6 15 14 15 24
0 28 -18 6 -30 -11 -6 -20 -17 -20 -25 0 -8 -9 -15 -20 -15 -11 0 -20 7 -20
15 0 9 -7 18 -15 21 -8 4 -15 12 -15 20 0 8 7 14 15 14 8 0 15 -7 15 -15z
m-30 -35 c0 -13 -7 -20 -20 -20 -13 0 -20 7 -20 20 0 13 7 20 20 20 13 0 20
-7 20 -20z"/>
<path d="M1622 2239 c-13 -5 -20 -13 -17 -19 9 -15 35 -12 35 4 0 8 8 17 18
19 11 3 12 5 2 5 -8 0 -25 -3 -38 -9z"/>
<path d="M1768 2243 c-22 -5 -24 -33 -3 -33 8 0 15 7 15 15 0 8 9 15 20 15 11
0 20 -7 20 -15 0 -8 7 -15 15 -15 24 0 18 27 -7 34 -25 6 -34 6 -60 -1z"/>
<path d="M1873 2243 c23 -6 22 -34 -2 -40 -22 -6 -17 -33 5 -33 8 0 14 -7 14
-15 0 -8 7 -15 15 -15 8 0 15 7 15 15 0 8 -7 15 -15 15 -8 0 -15 9 -15 20 0
11 7 20 15 20 24 0 18 27 -7 34 -13 3 -27 5 -33 5 -5 -1 -2 -3 8 -6z"/>
<path d="M1943 2243 c9 -2 17 -11 17 -19 0 -16 26 -19 35 -4 6 10 -36 31 -58
29 -7 -1 -4 -3 6 -6z"/>
<path d="M2053 2242 c-13 -2 -23 -10 -23 -18 0 -8 -7 -17 -15 -20 -8 -4 -15
-12 -15 -20 0 -8 7 -14 15 -14 8 0 15 -7 15 -15 0 -8 9 -15 20 -15 11 0 20 7
20 15 0 8 7 15 15 15 8 0 15 -7 15 -15 0 -8 9 -15 20 -15 11 0 20 7 20 15 0 8
7 15 15 15 8 0 15 -7 15 -15 0 -8 9 -15 20 -15 11 0 20 7 20 15 0 8 -9 15 -20
15 -13 0 -20 7 -20 20 0 13 7 20 19 20 10 0 21 -9 24 -20 3 -11 10 -20 16 -20
16 0 13 27 -4 34 -21 8 -19 34 3 38 22 4 -145 4 -175 0z m47 -17 c0 -8 9 -15
20 -15 11 0 20 7 20 15 0 8 7 15 15 15 8 0 15 -6 15 -14 0 -8 -7 -16 -15 -20
-8 -3 -15 -12 -15 -21 0 -8 -9 -15 -20 -15 -11 0 -20 7 -20 15 0 9 -7 18 -15
21 -8 4 -15 12 -15 20 0 8 7 14 15 14 8 0 15 -7 15 -15z m-30 -35 c0 -13 -7
-20 -20 -20 -13 0 -20 7 -20 20 0 13 7 20 20 20 13 0 20 -7 20 -20z"/>
<path d="M1143 2190 c-6 -23 -33 -27 -33 -5 0 8 -9 15 -20 15 -11 0 -20 -7
-20 -15 0 -8 -7 -15 -15 -15 -22 0 -18 -27 5 -33 13 -3 18 -10 14 -21 -8 -20
-30 -21 -38 -1 -3 8 -12 15 -21 15 -8 0 -15 -7 -15 -15 0 -8 -9 -15 -20 -15
-11 0 -20 7 -20 15 0 8 -7 15 -15 15 -8 0 -15 -7 -15 -15 0 -8 6 -15 14 -15 7
0 21 -10 29 -22 l16 -23 7 23 c7 25 44 31 44 7 0 -8 7 -15 15 -15 8 0 15 6 15
14 0 7 9 16 20 19 11 3 20 10 20 15 0 5 -9 12 -20 15 -11 3 -20 12 -20 21 0 9
8 16 20 16 11 0 20 -7 20 -15 0 -8 7 -15 15 -15 8 0 15 7 15 15 0 8 9 15 20
15 11 0 20 -7 20 -15 0 -8 7 -15 15 -15 8 0 15 7 15 15 0 8 -6 15 -14 15 -7 0
-16 9 -19 20 -3 11 -10 20 -17 20 -7 0 -14 -9 -17 -20z"/>
<path d="M1783 2190 c-3 -11 -12 -20 -19 -20 -8 0 -14 -7 -14 -15 0 -8 7 -15
15 -15 8 0 15 7 15 15 0 8 9 15 20 15 11 0 20 -7 20 -15 0 -8 7 -15 15 -15 8
0 15 7 15 15 0 8 -6 15 -14 15 -7 0 -16 9 -19 20 -3 11 -10 20 -17 20 -7 0
-14 -9 -17 -20z"/>
<path d="M650 2185 c0 -8 7 -15 15 -15 8 0 15 -7 15 -15 0 -8 7 -15 15 -15 8
0 15 7 15 15 0 8 -7 15 -15 15 -8 0 -15 7 -15 15 0 8 -7 15 -15 15 -8 0 -15
-7 -15 -15z"/>
<path d="M1000 2185 c0 -8 -7 -15 -15 -15 -8 0 -15 -7 -15 -15 0 -8 7 -15 15
-15 8 0 15 7 15 15 0 8 7 15 15 15 8 0 15 7 15 15 0 8 -7 15 -15 15 -8 0 -15
-7 -15 -15z"/>
<path d="M1290 2185 c0 -8 7 -15 15 -15 8 0 15 -7 15 -15 0 -8 7 -15 15 -15 8
0 15 7 15 15 0 8 -7 15 -15 15 -8 0 -15 7 -15 15 0 8 -7 15 -15 15 -8 0 -15
-7 -15 -15z"/>
<path d="M1640 2185 c0 -8 -7 -15 -15 -15 -8 0 -15 -7 -15 -15 0 -8 7 -15 15
-15 8 0 15 7 15 15 0 8 7 15 15 15 8 0 15 7 15 15 0 8 -7 15 -15 15 -8 0 -15
-7 -15 -15z"/>
<path d="M1710 2185 c0 -8 -7 -15 -15 -15 -8 0 -15 -7 -15 -15 0 -8 7 -15 15
-15 8 0 15 -9 15 -20 0 -11 -7 -20 -15 -20 -8 0 -15 -7 -15 -15 0 -8 7 -15 15
-15 8 0 15 6 15 14 0 7 9 16 20 19 11 3 20 10 20 15 0 5 -9 12 -20 15 -11 3
-20 12 -20 20 0 8 9 17 20 20 11 3 20 10 20 16 0 6 -9 11 -20 11 -11 0 -20 -7
-20 -15z"/>
<path d="M1930 2185 c0 -8 7 -15 15 -15 8 0 15 -7 15 -15 0 -8 7 -15 15 -15 8
0 15 7 15 15 0 8 -7 15 -15 15 -8 0 -15 7 -15 15 0 8 -7 15 -15 15 -8 0 -15
-7 -15 -15z"/>
<path d="M430 2112 l-12 -27 -15 23 c-17 25 -43 30 -43 7 0 -8 -9 -15 -20 -15
-11 0 -20 7 -20 15 0 8 -7 15 -15 15 -8 0 -15 -6 -15 -14 0 -7 -9 -16 -20 -19
-13 -3 -18 -10 -14 -21 8 -22 25 -20 31 4 7 26 27 25 46 -2 l16 -23 7 23 c4
13 14 22 25 22 25 0 24 -30 -1 -37 -11 -3 -20 -12 -20 -19 0 -8 -7 -14 -15
-14 -8 0 -15 -9 -15 -20 0 -11 7 -20 15 -20 8 0 15 -7 15 -15 0 -8 -9 -15 -20
-15 -11 0 -20 7 -20 15 0 8 -7 15 -15 15 -8 0 -15 9 -15 20 0 11 7 20 15 20 8
0 15 7 15 15 0 8 -7 15 -15 15 -8 0 -15 -6 -15 -14 0 -7 -9 -16 -20 -19 -26
-7 -26 -23 0 -30 23 -6 28 -37 6 -37 -18 0 -29 -27 -14 -36 6 -4 19 4 29 17
14 18 21 21 30 12 13 -13 4 -33 -17 -33 -8 0 -14 -7 -14 -15 0 -8 -6 -15 -14
-15 -8 0 -18 -9 -21 -20 -3 -11 -12 -20 -20 -20 -7 0 -15 9 -18 20 -3 11 -10
20 -17 20 -7 0 -14 -9 -17 -20 -6 -23 -33 -27 -33 -5 0 14 -10 18 -27 13 -5
-2 -7 -7 -5 -11 1 -5 -7 -11 -18 -14 -23 -6 -27 -33 -5 -33 8 0 15 -9 15 -20
0 -21 -26 -28 -32 -8 -6 17 -38 19 -38 2 0 -8 -7 -14 -15 -14 -8 0 -15 -7 -15
-15 0 -8 7 -15 15 -15 8 0 15 7 15 15 0 8 9 15 20 15 11 0 20 -7 20 -15 0 -8
7 -15 15 -15 8 0 15 7 15 15 0 23 37 18 43 -6 6 -23 27 -17 27 7 0 23 37 16
44 -8 l7 -23 16 23 c8 12 22 22 29 22 19 0 18 26 -1 34 -10 4 -15 -1 -15 -14
0 -13 -7 -20 -20 -20 -11 0 -20 7 -20 15 0 8 -9 15 -20 15 -11 0 -20 -7 -20
-15 0 -8 -7 -15 -15 -15 -8 0 -15 6 -15 14 0 7 -9 16 -20 19 -26 7 -26 37 0
37 11 0 20 -7 20 -15 0 -8 7 -15 15 -15 8 0 15 7 15 15 0 8 9 15 20 15 11 0
20 -7 20 -15 0 -8 7 -15 15 -15 8 0 15 7 15 15 0 8 9 15 20 15 11 0 20 -7 20
-15 0 -8 7 -15 15 -15 8 0 15 7 15 15 0 8 -7 15 -15 15 -8 0 -15 9 -15 20 0
11 7 20 15 20 8 0 15 7 15 15 0 8 7 15 16 15 9 0 18 9 21 20 3 11 10 20 17 20
6 0 22 12 35 26 l25 26 -23 18 c-24 18 -22 40 5 40 8 0 14 7 14 15 0 8 9 15
20 15 25 0 27 -28 3 -38 -25 -10 -27 -32 -3 -32 13 0 20 -7 20 -20 0 -11 5
-20 11 -20 6 0 13 9 16 20 3 11 13 20 23 20 10 0 20 -9 23 -20 3 -11 10 -20
16 -20 6 0 11 9 11 20 0 11 -7 20 -15 20 -8 0 -15 7 -15 15 0 8 -9 15 -20 15
-11 0 -20 -7 -20 -15 0 -8 -7 -15 -15 -15 -8 0 -15 6 -15 14 0 8 7 16 15 20 8
3 15 12 15 21 0 24 37 18 44 -7 l7 -23 16 23 c8 12 22 22 29 22 16 0 18 9 4
30 -8 13 -11 11 -16 -7 -7 -26 -44 -32 -44 -8 0 8 -9 15 -20 15 -11 0 -20 -7
-20 -15 0 -8 -7 -15 -15 -15 -8 0 -15 6 -15 14 0 26 -27 25 -40 -2z m-30 -102
c0 -13 -7 -20 -20 -20 -13 0 -20 7 -20 20 0 13 7 20 20 20 13 0 20 -7 20 -20z"/>
<path d="M723 2121 c-6 -24 -43 -29 -43 -6 0 23 -22 18 -49 -11 l-24 -25 23
-16 23 -16 -23 -17 -22 -17 26 -26 c15 -15 31 -27 36 -27 20 0 10 -38 -11 -43
-12 -3 -18 -10 -14 -16 9 -16 35 -13 35 4 0 8 7 15 15 15 8 0 15 9 15 20 0 11
-7 20 -15 20 -8 0 -15 7 -15 15 0 8 6 15 14 15 7 0 16 9 19 20 3 11 12 20 21
20 9 0 16 -8 16 -20 0 -11 -7 -20 -15 -20 -8 0 -15 -7 -15 -15 0 -8 6 -15 14
-15 7 0 16 -9 19 -21 6 -22 28 -22 35 0 2 7 -5 15 -17 18 -27 7 -27 30 -1 38
11 3 20 11 20 17 0 5 -9 12 -20 15 -11 3 -20 12 -20 19 0 8 -7 14 -15 14 -8 0
-15 -7 -15 -15 0 -8 -9 -15 -20 -15 -11 0 -20 7 -20 15 0 8 -9 15 -20 15 -13
0 -20 7 -20 20 0 28 36 26 44 -2 l7 -23 16 23 c19 27 39 28 46 2 3 -13 10 -18
21 -14 22 8 20 25 -4 31 -11 3 -20 11 -20 19 0 23 -21 27 -27 5z m-43 -111 c0
-13 -7 -20 -19 -20 -14 0 -19 6 -18 20 1 12 8 20 19 20 11 0 18 -7 18 -20z"/>
<path d="M10 2115 c0 -8 6 -15 14 -15 7 0 17 -10 20 -22 l7 -23 16 23 c8 12
22 22 29 22 8 0 14 7 14 15 0 8 -7 15 -15 15 -8 0 -15 -7 -15 -15 0 -8 -9 -15
-20 -15 -11 0 -20 7 -20 15 0 8 -7 15 -15 15 -8 0 -15 -7 -15 -15z"/>
<path d="M1140 2115 c0 -8 -7 -15 -15 -15 -8 0 -15 -9 -15 -20 0 -11 5 -20 11
-20 6 0 13 9 16 20 3 11 13 20 23 20 10 0 20 -9 23 -20 3 -11 10 -20 15 -20 5
0 12 9 15 20 6 23 37 27 37 5 0 -8 7 -15 15 -15 8 0 15 7 15 15 0 8 -6 15 -14
15 -8 0 -16 7 -20 15 -3 8 -10 15 -16 15 -5 0 -10 -7 -10 -15 0 -8 -9 -15 -20
-15 -11 0 -20 7 -20 15 0 8 -9 15 -20 15 -11 0 -20 -7 -20 -15z"/>
<path d="M1285 2119 c-4 -6 2 -13 13 -16 11 -2 23 -14 25 -25 3 -11 10 -17 16
-13 16 9 13 35 -4 35 -8 0 -15 7 -15 15 0 17 -26 20 -35 4z"/>
<path d="M1640 2115 c0 -8 -7 -15 -15 -15 -8 0 -15 -7 -15 -15 0 -8 7 -15 15
-15 8 0 15 6 15 14 0 7 9 16 21 19 12 3 18 10 14 16 -9 16 -35 13 -35 -4z"/>
<path d="M1780 2115 c0 -8 -7 -15 -15 -15 -8 0 -15 -9 -15 -20 0 -11 5 -20 11
-20 6 0 13 9 16 20 3 11 13 20 23 20 10 0 20 -9 23 -20 3 -11 10 -20 15 -20 5
0 12 9 15 20 6 23 37 27 37 5 0 -8 7 -15 15 -15 8 0 15 7 15 15 0 8 -6 15 -14
15 -8 0 -16 7 -20 15 -3 8 -10 15 -16 15 -5 0 -10 -7 -10 -15 0 -8 -9 -15 -20
-15 -11 0 -20 7 -20 15 0 8 -9 15 -20 15 -11 0 -20 -7 -20 -15z"/>
<path d="M1925 2119 c-4 -6 2 -13 13 -16 11 -2 23 -14 25 -25 3 -11 10 -17 16
-13 16 9 13 35 -4 35 -8 0 -15 7 -15 15 0 17 -26 20 -35 4z"/>
<path d="M2070 2115 c0 -8 6 -15 14 -15 7 0 16 -9 19 -20 3 -11 10 -20 17 -20
7 0 14 9 17 20 6 23 33 28 33 6 0 -23 31 -29 37 -6 3 11 12 20 19 20 8 0 14 7
14 15 0 8 -7 15 -15 15 -8 0 -15 -7 -15 -15 0 -8 -9 -15 -20 -15 -11 0 -20 7
-20 15 0 8 -7 15 -15 15 -8 0 -15 -7 -15 -15 0 -8 -9 -15 -20 -15 -11 0 -20 7
-20 15 0 8 -7 15 -15 15 -8 0 -15 -7 -15 -15z"/>
<path d="M114 2089 c-3 -6 -2 -15 2 -19 12 -12 38 5 30 19 -9 14 -23 14 -32 0z"/>
<path d="M894 2089 c-8 -14 18 -31 30 -19 9 9 0 30 -14 30 -5 0 -12 -5 -16
-11z"/>
<path d="M1534 2089 c-8 -14 18 -31 30 -19 9 9 0 30 -14 30 -5 0 -12 -5 -16
-11z"/>
<path d="M2034 2089 c-3 -6 -2 -15 2 -19 12 -12 38 5 30 19 -9 14 -23 14 -32
0z"/>
<path d="M6 2045 c-4 -10 1 -15 14 -15 13 0 20 -7 20 -20 0 -11 -7 -20 -15
-20 -8 0 -15 -7 -15 -15 0 -8 7 -15 15 -15 8 0 15 -9 15 -20 0 -11 -7 -20 -15
-20 -8 0 -15 -7 -15 -15 0 -23 27 -18 33 6 3 12 10 18 16 14 7 -3 11 2 11 14
0 12 -7 21 -15 21 -8 0 -15 7 -15 15 0 8 6 15 14 15 7 0 16 9 19 20 3 11 12
20 21 20 9 0 16 -8 16 -20 0 -11 -7 -20 -15 -20 -8 0 -15 -7 -15 -15 0 -8 6
-15 14 -15 7 0 16 -9 19 -21 3 -12 11 -19 18 -17 22 7 22 29 0 35 -27 7 -27
30 -1 38 26 8 26 25 0 32 -11 3 -20 12 -20 19 0 8 -7 14 -15 14 -8 0 -15 -7
-15 -15 0 -8 -9 -15 -20 -15 -11 0 -20 7 -20 15 0 8 -6 15 -14 15 -8 0 -16 -7
-20 -15z"/>
<path d="M150 2045 c0 -8 6 -15 14 -15 7 0 16 -9 19 -20 3 -11 10 -20 17 -20
7 0 14 9 17 20 3 11 12 20 19 20 8 0 14 7 14 15 0 8 -7 15 -15 15 -8 0 -15 -7
-15 -15 0 -8 -9 -15 -20 -15 -11 0 -20 7 -20 15 0 8 -7 15 -15 15 -8 0 -15 -7
-15 -15z"/>
<path d="M790 2045 c0 -8 6 -15 14 -15 7 0 16 -9 19 -20 3 -11 10 -20 17 -20
7 0 14 9 17 20 3 11 12 20 19 20 8 0 14 7 14 15 0 8 -7 15 -15 15 -8 0 -15 -7
-15 -15 0 -8 -9 -15 -20 -15 -11 0 -20 7 -20 15 0 8 -7 15 -15 15 -8 0 -15 -7
-15 -15z"/>
<path d="M930 2047 c0 -8 -9 -17 -20 -20 -11 -3 -20 -10 -20 -15 0 -5 9 -12
20 -15 23 -6 28 -37 6 -37 -23 0 -29 -31 -6 -37 26 -7 26 -30 0 -38 -11 -3
-20 -11 -20 -17 0 -5 9 -12 20 -15 11 -3 20 -12 20 -19 0 -8 7 -14 15 -14 8 0
15 7 15 15 0 8 -7 15 -15 15 -8 0 -15 9 -15 20 0 11 7 20 15 20 8 0 15 7 15
15 0 8 -7 15 -16 15 -9 0 -14 7 -12 17 5 25 29 28 35 4 3 -11 10 -18 15 -15 5
3 12 -3 15 -15 7 -27 20 -27 43 1 l17 22 12 -22 c6 -12 18 -22 26 -22 8 0 15
-9 15 -20 0 -13 -7 -20 -20 -20 -11 0 -20 -7 -20 -15 0 -8 9 -15 20 -15 13 0
20 -7 20 -20 0 -11 6 -20 14 -20 7 0 16 -9 19 -20 3 -11 10 -20 17 -20 7 0 14
9 17 20 3 11 12 20 19 20 8 0 14 7 14 15 0 8 -7 15 -15 15 -8 0 -15 -7 -15
-15 0 -8 -9 -15 -20 -15 -11 0 -20 6 -20 14 0 8 -7 16 -15 20 -8 3 -15 12 -15
21 0 8 7 15 15 15 8 0 15 -7 15 -15 0 -8 9 -15 20 -15 11 0 20 7 20 15 0 8 7
15 15 15 9 0 18 -7 21 -15 4 -8 12 -15 20 -15 8 0 14 -6 14 -14 0 -20 19 -31
32 -18 7 7 3 14 -11 21 -12 7 -21 18 -21 26 0 8 -9 15 -20 15 -13 0 -20 7 -20
20 0 11 -7 20 -15 20 -8 0 -15 7 -15 15 0 8 9 15 20 15 11 0 20 -7 20 -15 0
-8 7 -15 15 -15 8 0 15 7 15 15 0 8 -7 15 -16 15 -9 0 -18 9 -21 20 -3 11 -12
20 -19 20 -8 0 -14 -9 -14 -20 0 -13 -7 -20 -20 -20 -13 0 -20 7 -20 20 0 11
-7 20 -15 20 -8 0 -15 -9 -15 -20 0 -13 -7 -20 -19 -20 -10 0 -21 9 -24 20 -3
11 -10 20 -16 20 -6 0 -11 -9 -11 -20 0 -13 -7 -20 -20 -20 -13 0 -20 7 -20
20 0 11 5 20 11 20 7 0 23 12 37 27 23 26 24 27 6 40 -11 8 -18 19 -16 24 1 5
-7 9 -18 9 -11 0 -20 -7 -20 -15 0 -8 -9 -15 -20 -15 -11 0 -19 5 -17 12 1 6
-6 14 -15 16 -11 2 -18 -2 -18 -11z m37 -37 c3 -11 12 -20 19 -20 8 0 14 9 14
20 0 13 7 20 20 20 13 0 20 -7 20 -20 0 -13 -7 -20 -20 -20 -11 0 -20 -7 -20
-15 0 -8 -9 -15 -20 -15 -11 0 -20 7 -20 15 0 8 -7 15 -15 15 -8 0 -15 9 -15
20 0 12 7 20 16 20 9 0 18 -9 21 -20z m173 -105 c0 -8 9 -15 20 -15 13 0 20
-7 20 -20 0 -13 -7 -20 -20 -20 -11 0 -20 7 -20 15 0 9 -7 18 -15 21 -8 4 -15
12 -15 20 0 8 7 14 15 14 8 0 15 -7 15 -15z"/>
<path d="M1070 2045 c0 -8 9 -15 20 -15 13 0 20 -7 20 -20 0 -11 5 -20 11 -20
6 0 13 9 16 20 3 11 13 20 23 20 10 0 20 -9 23 -20 3 -11 10 -20 16 -20 6 0
11 9 11 20 0 13 7 20 20 20 11 0 20 7 20 15 0 8 -7 15 -15 15 -9 0 -18 -7 -21
-15 -4 -8 -12 -15 -20 -15 -8 0 -14 7 -14 15 0 8 -9 15 -20 15 -11 0 -20 -7
-20 -15 0 -8 -6 -15 -14 -15 -8 0 -16 7 -20 15 -3 8 -12 15 -21 15 -8 0 -15
-7 -15 -15z"/>
<path d="M1283 2051 c1 -5 -6 -16 -17 -24 -18 -13 -18 -15 8 -40 15 -15 31
-27 36 -27 20 0 10 -38 -11 -43 -12 -3 -18 -10 -14 -16 9 -16 35 -13 35 4 0 8
7 15 15 15 8 0 15 9 15 20 0 11 -7 20 -15 20 -8 0 -15 7 -15 15 0 8 6 15 14
15 7 0 16 9 19 20 3 11 12 20 21 20 9 0 16 -8 16 -20 0 -11 -7 -20 -15 -20 -8
0 -15 -6 -15 -14 0 -8 7 -16 15 -20 8 -3 15 -12 15 -21 0 -8 -7 -15 -15 -15
-8 0 -15 -7 -15 -15 0 -8 7 -15 15 -15 8 0 15 6 15 14 0 7 9 16 20 19 23 6 17
37 -6 37 -21 0 -17 28 6 35 11 3 20 11 20 17 0 5 -9 12 -20 15 -11 3 -20 12
-20 19 0 8 -7 14 -15 14 -8 0 -15 -7 -15 -15 0 -8 -9 -15 -20 -15 -11 0 -20 7
-20 15 0 8 -9 15 -20 15 -11 0 -19 -4 -17 -9z m37 -41 c0 -13 -7 -20 -20 -20
-13 0 -20 7 -20 20 0 13 7 20 20 20 13 0 20 -7 20 -20z"/>
<path d="M1430 2045 c0 -8 6 -15 14 -15 7 0 16 -9 19 -20 3 -11 10 -20 17 -20
7 0 14 9 17 20 3 11 12 20 19 20 8 0 14 7 14 15 0 8 -7 15 -15 15 -8 0 -15 -7
-15 -15 0 -8 -9 -15 -20 -15 -11 0 -20 7 -20 15 0 8 -7 15 -15 15 -8 0 -15 -7
-15 -15z"/>
<path d="M1570 2046 c0 -7 -9 -16 -20 -19 -11 -3 -20 -10 -20 -15 0 -5 9 -12
20 -15 23 -6 28 -37 6 -37 -17 0 -29 -27 -15 -36 10 -6 59 40 59 57 0 5 -7 9
-15 9 -8 0 -15 9 -15 20 0 11 7 20 15 20 8 0 15 7 15 15 0 8 -7 15 -15 15 -8
0 -15 -6 -15 -14z"/>
<path d="M1640 2045 c0 -8 -7 -15 -15 -15 -8 0 -15 -9 -15 -20 0 -11 7 -20 15
-20 8 0 15 -7 15 -15 0 -8 -7 -15 -15 -15 -8 0 -15 -9 -15 -21 0 -12 4 -17 11
-14 6 4 13 -2 16 -14 3 -12 9 -21 14 -21 16 0 61 49 54 59 -10 18 -25 12 -25
-9 0 -13 -7 -20 -20 -20 -13 0 -20 7 -20 20 0 11 4 20 10 20 5 0 21 12 36 27
26 25 26 27 8 40 -11 8 -18 19 -16 24 1 5 -7 9 -18 9 -11 0 -20 -7 -20 -15z
m40 -35 c0 -13 -7 -20 -20 -20 -13 0 -20 7 -20 20 0 13 7 20 20 20 13 0 20 -7
20 -20z"/>
<path d="M1710 2045 c0 -8 9 -15 20 -15 13 0 20 -7 20 -20 0 -11 5 -20 11 -20
6 0 13 9 16 20 3 11 13 20 23 20 10 0 20 -9 23 -20 3 -11 10 -20 16 -20 6 0
11 9 11 20 0 13 7 20 20 20 11 0 20 7 20 15 0 8 -7 15 -15 15 -9 0 -18 -7 -21
-15 -4 -8 -12 -15 -20 -15 -8 0 -14 7 -14 15 0 8 -9 15 -20 15 -11 0 -20 -7
-20 -15 0 -8 -6 -15 -14 -15 -8 0 -16 7 -20 15 -3 8 -12 15 -21 15 -8 0 -15
-7 -15 -15z"/>
<path d="M1930 2045 c0 -8 7 -15 15 -15 8 0 15 -9 15 -20 0 -13 -7 -20 -20
-20 -13 0 -20 7 -20 20 0 21 -14 27 -25 11 -6 -11 40 -61 55 -61 6 0 10 -9 10
-20 0 -13 -7 -20 -20 -20 -13 0 -20 7 -20 20 0 25 -20 26 -27 1 -3 -11 -14
-22 -25 -24 -21 -6 -16 -27 6 -27 8 0 16 -9 19 -20 3 -11 10 -20 16 -20 6 0
11 9 11 20 0 11 -5 19 -12 18 -6 -2 -14 5 -16 15 -4 21 26 24 34 2 9 -22 31
-18 37 6 3 12 10 18 16 14 7 -3 11 2 11 14 0 12 -7 21 -15 21 -8 0 -15 7 -15
15 0 8 7 15 15 15 8 0 15 9 15 20 0 11 -7 20 -15 20 -8 0 -15 7 -15 15 0 8 -7
15 -15 15 -8 0 -15 -7 -15 -15z"/>
<path d="M2000 2045 c0 -8 7 -15 15 -15 8 0 15 -9 15 -20 0 -11 -7 -20 -15
-20 -8 0 -15 -4 -15 -9 0 -17 49 -63 59 -57 14 9 2 36 -15 36 -21 0 -17 28 6
35 11 3 20 11 20 17 0 5 -9 12 -20 15 -11 3 -20 12 -20 19 0 8 -7 14 -15 14
-8 0 -15 -7 -15 -15z"/>
<path d="M2070 2045 c0 -8 6 -15 14 -15 7 0 16 -9 19 -20 3 -11 10 -20 17 -20
7 0 14 9 17 20 3 11 12 20 19 20 8 0 14 7 14 15 0 8 -7 15 -15 15 -8 0 -15 -7
-15 -15 0 -8 -9 -15 -20 -15 -11 0 -20 7 -20 15 0 8 -7 15 -15 15 -8 0 -15 -7
-15 -15z"/>
<path d="M2210 2046 c0 -7 -9 -16 -20 -19 -11 -3 -20 -10 -20 -15 0 -6 9 -14
20 -17 23 -7 27 -35 6 -35 -17 0 -29 -27 -15 -36 10 -6 59 40 59 57 0 5 -7 9
-15 9 -8 0 -15 9 -15 20 0 11 7 20 15 20 8 0 15 7 15 15 0 8 -7 15 -15 15 -8
0 -15 -6 -15 -14z"/>
<path d="M150 1975 c0 -8 7 -15 15 -15 8 0 15 -9 15 -20 0 -11 -7 -20 -15 -20
-8 0 -15 -7 -15 -15 0 -8 7 -15 15 -15 8 0 15 7 15 15 0 8 9 15 20 15 11 0 20
-7 20 -15 0 -8 7 -15 15 -15 8 0 15 7 15 15 0 8 -7 15 -15 15 -8 0 -15 9 -15
20 0 11 7 20 15 20 8 0 15 7 15 15 0 8 -7 15 -15 15 -8 0 -15 -7 -15 -15 0 -8
-9 -15 -20 -15 -11 0 -20 7 -20 15 0 8 -7 15 -15 15 -8 0 -15 -7 -15 -15z"/>
<path d="M430 1975 c0 -8 5 -15 11 -15 14 0 59 -47 59 -61 0 -5 9 -9 20 -9 13
0 20 -7 20 -20 0 -13 -7 -20 -20 -20 -11 0 -20 7 -20 15 0 9 -7 18 -15 21 -8
4 -15 12 -15 20 0 8 -9 14 -21 14 -11 0 -17 -4 -14 -10 3 -5 -3 -15 -15 -22
-21 -14 -27 -38 -9 -38 6 0 13 9 16 20 3 11 14 20 24 20 12 0 19 -7 19 -20 0
-13 -7 -20 -20 -20 -11 0 -20 -7 -20 -15 0 -8 9 -15 20 -15 13 0 20 -7 20 -20
0 -11 6 -20 14 -20 7 0 16 -9 19 -20 3 -11 10 -20 17 -20 7 0 14 9 17 20 3 11
12 20 19 20 8 0 14 7 14 15 0 8 -7 15 -15 15 -8 0 -15 -7 -15 -15 0 -8 -9 -15
-20 -15 -11 0 -20 6 -20 14 0 8 -7 16 -15 20 -8 3 -15 12 -15 21 0 8 7 15 15
15 8 0 15 -7 15 -15 0 -8 9 -15 20 -15 11 0 20 7 20 15 0 8 7 15 15 15 9 0 18
-7 21 -15 4 -8 12 -15 20 -15 8 0 14 7 14 15 0 8 -9 15 -20 15 -13 0 -20 7
-20 20 0 11 -7 20 -15 20 -8 0 -15 7 -15 15 0 8 9 15 20 15 11 0 20 -7 20 -15
0 -8 7 -15 15 -15 22 0 18 27 -5 33 -11 3 -20 10 -20 17 0 7 9 14 20 17 25 7
27 36 3 31 -10 -2 -17 -10 -15 -16 1 -7 -7 -12 -18 -12 -13 0 -20 -7 -20 -20
0 -13 -7 -20 -20 -20 -13 0 -20 7 -20 20 0 11 -6 20 -14 20 -8 0 -16 7 -20 15
-3 8 -12 15 -21 15 -8 0 -15 -7 -15 -15z"/>
<path d="M790 1975 c0 -8 7 -15 15 -15 8 0 15 -9 15 -20 0 -11 -7 -20 -15 -20
-8 0 -15 -7 -15 -15 0 -8 7 -15 15 -15 8 0 15 7 15 15 0 8 9 15 20 15 11 0 20
-7 20 -15 0 -8 7 -15 15 -15 8 0 15 7 15 15 0 8 -7 15 -15 15 -8 0 -15 9 -15
20 0 11 7 20 15 20 8 0 15 7 15 15 0 8 -7 15 -15 15 -8 0 -15 -7 -15 -15 0 -8
-9 -15 -20 -15 -11 0 -20 7 -20 15 0 8 -7 15 -15 15 -8 0 -15 -7 -15 -15z"/>
<path d="M1430 1975 c0 -8 7 -15 15 -15 8 0 15 -9 15 -20 0 -11 -7 -20 -15
-20 -8 0 -15 -7 -15 -15 0 -8 7 -15 15 -15 8 0 15 7 15 15 0 8 9 15 20 15 11
0 20 -7 20 -15 0 -8 7 -15 15 -15 8 0 15 7 15 15 0 8 -7 15 -15 15 -8 0 -15 9
-15 20 0 11 7 20 15 20 8 0 15 7 15 15 0 8 -7 15 -15 15 -8 0 -15 -7 -15 -15
0 -8 -9 -15 -20 -15 -11 0 -20 7 -20 15 0 8 -7 15 -15 15 -8 0 -15 -7 -15 -15z"/>
<path d="M2070 1975 c0 -8 7 -15 15 -15 8 0 15 -9 15 -20 0 -11 -7 -20 -15
-20 -8 0 -15 -7 -15 -15 0 -8 7 -15 15 -15 8 0 15 7 15 15 0 8 9 15 20 15 11
0 20 -7 20 -15 0 -8 7 -15 15 -15 8 0 15 7 15 15 0 8 -7 15 -15 15 -8 0 -15 9
-15 20 0 11 7 20 15 20 8 0 15 7 15 15 0 8 -7 15 -15 15 -8 0 -15 -7 -15 -15
0 -8 -9 -15 -20 -15 -11 0 -20 7 -20 15 0 8 -7 15 -15 15 -8 0 -15 -7 -15 -15z"/>
<path d="M400 1940 c0 -13 -7 -20 -19 -20 -11 0 -21 -9 -24 -21 -3 -12 -10
-18 -16 -14 -7 3 -11 -2 -11 -14 0 -12 7 -21 15 -21 8 0 15 -7 15 -15 0 -8 7
-15 15 -15 8 0 15 7 15 15 0 8 -7 15 -15 15 -8 0 -15 9 -15 20 0 11 4 20 10
20 15 0 61 50 55 61 -11 16 -25 10 -25 -11z"/>
<path d="M1750 1940 c0 -13 -7 -20 -20 -20 -11 0 -20 -7 -20 -15 0 -9 -7 -18
-15 -21 -8 -4 -15 -12 -15 -20 0 -8 7 -14 15 -14 8 0 15 -7 15 -15 0 -9 9 -15
21 -15 15 0 20 -5 17 -22 -2 -13 -10 -23 -18 -23 -8 0 -15 -6 -15 -12 0 -7 3
-13 8 -13 4 0 12 0 17 0 6 0 10 7 10 15 0 22 27 18 33 -5 3 -11 10 -20 17 -20
7 0 14 9 17 20 3 11 12 20 19 20 8 0 14 7 14 15 0 8 -7 15 -15 15 -8 0 -15 -7
-15 -15 0 -8 -9 -15 -20 -15 -11 0 -20 6 -20 14 0 8 -7 16 -15 20 -8 3 -15 12
-15 21 0 8 7 15 15 15 8 0 15 -7 15 -15 0 -8 9 -15 20 -15 11 0 20 7 20 15 0
8 7 15 15 15 8 0 15 -7 15 -15 0 -8 9 -15 20 -15 11 0 20 7 20 15 0 8 -9 15
-20 15 -13 0 -20 7 -20 20 0 11 -5 20 -11 20 -6 0 -13 -9 -16 -20 -6 -23 -43
-27 -43 -5 0 9 -7 18 -15 21 -8 4 -15 12 -15 20 0 8 7 14 15 14 8 0 15 -7 15
-15 0 -8 9 -15 20 -15 11 0 20 7 20 15 0 8 7 15 15 15 8 0 15 9 15 20 0 11 -7
20 -15 20 -8 0 -15 -9 -15 -20 0 -13 -7 -20 -20 -20 -13 0 -20 7 -20 20 0 11
-7 20 -15 20 -8 0 -15 -9 -15 -20z m0 -70 c0 -13 -7 -20 -20 -20 -13 0 -20 7
-20 20 0 13 7 20 20 20 13 0 20 -7 20 -20z"/>
<path d="M80 1904 c0 -9 -9 -18 -20 -21 -11 -3 -20 -12 -20 -19 0 -8 -7 -14
-15 -14 -8 0 -15 -7 -15 -15 0 -8 7 -15 15 -15 8 0 15 7 15 15 0 8 6 15 14 15
8 0 18 9 21 20 3 11 13 20 21 20 8 0 14 7 14 15 0 8 -7 15 -15 15 -8 0 -15 -7
-15 -16z"/>
<path d="M1570 1906 c0 -8 -9 -18 -20 -21 -11 -3 -20 -13 -20 -21 0 -21 -27
-17 -33 6 -3 11 -10 20 -17 20 -7 0 -14 -9 -17 -20 -6 -23 -33 -28 -33 -6 0 8
-7 16 -15 20 -8 3 -15 1 -15 -4 0 -6 4 -10 10 -10 5 0 12 -11 16 -25 7 -27 34
-35 34 -10 0 8 9 15 20 15 11 0 20 -7 20 -15 0 -8 7 -15 15 -15 8 0 15 7 15
15 0 8 9 15 20 15 11 0 20 -7 20 -15 0 -8 7 -15 15 -15 8 0 15 7 15 15 0 8 -7
15 -15 15 -8 0 -15 9 -15 20 0 11 7 20 15 20 8 0 15 7 15 15 0 8 -7 15 -15 15
-8 0 -15 -6 -15 -14z"/>
<path d="M2000 1905 c0 -8 7 -15 15 -15 8 0 15 -9 15 -20 0 -11 -7 -20 -15
-20 -8 0 -15 -7 -15 -15 0 -8 7 -15 15 -15 8 0 15 -9 15 -20 0 -23 -25 -27
-34 -5 -3 8 -12 15 -21 15 -8 0 -15 -7 -15 -15 0 -8 -9 -15 -20 -15 -11 0 -20
7 -20 15 0 8 -7 15 -15 15 -8 0 -15 -7 -15 -15 0 -8 -6 -15 -14 -15 -21 0 -31
-21 -15 -30 7 -5 17 -6 21 -4 4 3 8 -4 8 -14 0 -12 -9 -22 -21 -25 -12 -3 -18
-10 -14 -16 9 -16 35 -13 35 4 0 8 7 15 15 15 8 0 15 6 15 14 0 8 -7 16 -15
20 -8 3 -15 12 -15 21 0 19 29 20 36 0 4 -8 12 -15 20 -15 8 0 14 7 14 15 0 8
9 15 20 15 11 0 20 -7 20 -15 0 -8 7 -15 15 -15 8 0 15 6 15 14 0 7 9 16 20
19 11 3 20 10 20 15 0 5 -9 12 -20 15 -11 3 -20 12 -20 20 0 8 9 17 20 20 11
3 20 10 20 15 0 6 -9 14 -20 17 -11 3 -20 13 -20 21 0 8 -7 14 -15 14 -8 0
-15 -7 -15 -15z"/>
<path d="M2210 1906 c0 -8 -9 -18 -20 -21 -11 -3 -20 -13 -20 -21 0 -21 -27
-17 -33 6 -3 11 -10 20 -17 20 -7 0 -14 -9 -17 -20 -3 -11 -12 -20 -19 -20 -8
0 -14 -7 -14 -15 0 -8 7 -15 15 -15 8 0 15 7 15 15 0 8 9 15 20 15 11 0 20 -7
20 -15 0 -8 7 -15 15 -15 8 0 15 7 15 15 0 8 9 15 20 15 11 0 20 -7 20 -15 0
-8 7 -15 15 -15 8 0 15 7 15 15 0 8 -7 15 -15 15 -8 0 -15 9 -15 20 0 11 7 20
15 20 8 0 15 7 15 15 0 8 -7 15 -15 15 -8 0 -15 -6 -15 -14z"/>
<path d="M759 1882 c-1 -4 -1 -11 0 -15 1 -5 -8 -11 -19 -14 -23 -6 -27 -33
-5 -33 8 0 15 -9 15 -20 0 -23 -25 -27 -34 -5 -3 8 -12 15 -21 15 -8 0 -15 -7
-15 -15 0 -8 -9 -15 -20 -15 -11 0 -20 7 -20 15 0 8 -7 15 -15 15 -8 0 -15 -7
-15 -15 0 -8 -6 -15 -14 -15 -21 0 -31 -21 -15 -30 7 -5 17 -6 21 -4 4 3 8 -4
8 -14 0 -11 -9 -22 -20 -25 -11 -3 -20 -10 -20 -15 0 -6 9 -14 20 -17 23 -7
27 -35 6 -35 -18 0 -29 -27 -14 -36 6 -4 19 4 29 17 14 18 21 21 30 12 13 -13
4 -33 -17 -33 -8 0 -14 -7 -14 -15 0 -8 -6 -15 -14 -15 -8 0 -18 -9 -21 -20
-3 -11 -12 -20 -20 -20 -7 0 -15 9 -18 20 -3 11 -10 20 -17 20 -7 0 -14 -9
-17 -20 -3 -11 -12 -20 -19 -20 -8 0 -14 -7 -14 -15 0 -8 7 -15 15 -15 8 0 15
7 15 15 0 8 9 15 20 15 11 0 20 -7 20 -15 0 -8 7 -15 15 -15 8 0 15 7 15 15 0
8 9 15 20 15 11 0 20 -7 20 -15 0 -8 -7 -15 -15 -15 -8 0 -15 -9 -15 -20 0
-13 -7 -20 -20 -20 -11 0 -20 7 -20 15 0 8 -9 15 -20 15 -11 0 -20 -6 -20 -14
0 -8 -7 -16 -15 -20 -8 -3 -15 -10 -15 -16 0 -5 7 -10 15 -10 8 0 15 7 15 15
0 8 9 15 20 15 11 0 20 -7 20 -15 0 -8 6 -15 14 -15 8 0 16 7 20 15 3 8 12 15
21 15 8 0 15 9 15 20 0 11 7 20 15 20 8 0 15 7 15 15 0 8 -7 15 -15 15 -8 0
-15 9 -15 20 0 11 7 20 15 20 8 0 15 6 15 14 0 7 9 16 20 19 11 3 20 12 20 21
0 9 6 16 13 16 15 0 57 44 57 59 0 6 9 11 20 11 13 0 20 -7 20 -20 0 -11 5
-20 11 -20 6 0 13 9 16 20 3 11 13 20 23 20 10 0 20 -9 23 -20 3 -11 10 -20
16 -20 6 0 11 9 11 20 0 13 7 20 20 20 11 0 20 6 20 14 0 7 -9 16 -20 19 -11
3 -20 10 -20 17 0 7 9 14 20 17 23 6 27 28 5 37 -10 4 -15 -1 -15 -14 0 -13
-7 -20 -20 -20 -11 0 -20 7 -20 15 0 8 -9 15 -20 15 -11 0 -20 -7 -20 -15 0
-8 -7 -15 -15 -15 -8 0 -15 6 -15 14 0 7 -9 16 -20 19 -11 3 -20 12 -20 21 0
9 8 16 20 16 11 0 20 -7 20 -15 0 -8 7 -15 15 -15 8 0 15 7 15 15 0 8 9 15 20
15 11 0 20 -7 20 -15 0 -8 7 -15 15 -15 8 0 15 7 15 15 0 8 -6 15 -14 15 -7 0
-16 9 -19 20 -3 11 -10 20 -17 20 -7 0 -14 -9 -17 -20 -6 -23 -33 -28 -33 -6
0 14 -29 31 -31 18z m-113 -117 c4 -8 12 -15 20 -15 8 0 14 7 14 15 0 8 9 15
20 15 11 0 20 -7 20 -15 0 -8 7 -15 15 -15 8 0 15 -9 15 -20 0 -11 -7 -20 -15
-20 -8 0 -15 -9 -15 -20 0 -13 -7 -20 -20 -20 -11 0 -20 -7 -20 -15 0 -8 -9
-15 -20 -15 -11 0 -20 7 -20 15 0 8 -7 15 -15 15 -8 0 -15 9 -15 20 0 11 7 20
15 20 8 0 15 6 15 14 0 8 -7 16 -15 20 -8 3 -15 12 -15 21 0 19 29 20 36 0z
m144 1 c0 -24 21 -30 27 -7 7 27 39 27 46 1 3 -11 9 -19 14 -18 4 2 9 0 11 -4
5 -18 1 -28 -13 -28 -8 0 -15 7 -15 15 0 8 -9 15 -20 15 -11 0 -20 -7 -20 -15
0 -8 -7 -15 -15 -15 -8 0 -15 6 -15 14 0 7 -9 16 -20 19 -11 3 -20 12 -20 21
0 9 8 16 20 16 11 0 20 -6 20 -14z"/>
<path d="M680 1725 c0 -8 -7 -15 -15 -15 -8 0 -15 -9 -15 -20 0 -11 7 -20 15
-20 8 0 15 8 15 19 0 10 9 21 20 24 11 3 20 10 20 16 0 6 -9 11 -20 11 -11 0
-20 -7 -20 -15z"/>
<path d="M976 1883 c-12 -12 -6 -33 9 -33 8 0 15 -7 15 -15 0 -8 7 -15 15 -15
8 0 15 7 15 15 0 8 -7 15 -15 15 -8 0 -15 6 -15 14 0 17 -14 28 -24 19z"/>
<path d="M680 1865 c0 -8 -7 -15 -15 -15 -8 0 -15 -7 -15 -15 0 -8 7 -15 15
-15 8 0 15 7 15 15 0 8 7 15 15 15 8 0 15 7 15 15 0 8 -7 15 -15 15 -8 0 -15
-7 -15 -15z"/>
<path d="M1610 1865 c0 -8 7 -15 15 -15 8 0 15 -7 15 -15 0 -8 7 -15 15 -15 8
0 15 7 15 15 0 8 -7 15 -15 15 -8 0 -15 7 -15 15 0 8 -7 15 -15 15 -8 0 -15
-7 -15 -15z"/>
<path d="M1960 1865 c0 -8 -7 -15 -15 -15 -8 0 -15 -7 -15 -15 0 -8 7 -15 15
-15 8 0 15 7 15 15 0 8 6 15 14 15 8 0 16 7 20 15 4 10 -1 15 -14 15 -11 0
-20 -7 -20 -15z"/>
<path d="M1376 1848 c-9 -31 -21 -36 -30 -13 -6 18 -53 16 -60 -2 -3 -7 1 -13
8 -13 8 0 16 6 19 13 3 7 7 5 12 -8 4 -11 19 -32 32 -46 22 -24 22 -28 9 -53
l-14 -28 -7 41 c-5 31 -11 41 -26 41 -10 0 -19 -7 -19 -15 0 -8 4 -15 9 -15 5
0 12 -18 16 -41 6 -36 10 -40 31 -36 20 4 24 0 24 -22 0 -14 3 -36 6 -48 5
-19 2 -23 -15 -23 -11 0 -21 5 -21 10 0 6 -7 10 -15 10 -8 0 -15 9 -15 20 0
11 -7 20 -15 20 -8 0 -15 -7 -15 -16 0 -9 -9 -18 -20 -21 -11 -3 -20 -12 -20
-19 0 -8 -6 -14 -14 -14 -8 0 -18 -9 -21 -20 -3 -11 -12 -20 -20 -20 -7 0 -15
9 -18 20 -3 11 -10 20 -17 20 -7 0 -14 -9 -17 -20 -3 -11 -12 -20 -19 -20 -8
0 -14 -7 -14 -15 0 -8 7 -15 15 -15 8 0 15 7 15 15 0 8 9 15 20 15 11 0 20 -7
20 -15 0 -8 7 -15 15 -15 8 0 15 7 15 15 0 22 40 19 41 -2 0 -11 3 -13 6 -5 2
6 9 10 14 6 5 -3 9 0 9 5 0 6 -7 11 -15 11 -23 0 -18 37 6 43 12 3 18 10 14
16 -11 20 25 11 46 -10 12 -12 19 -29 16 -40 -4 -14 0 -19 14 -19 11 0 16 5
13 13 -8 23 23 42 49 29 12 -6 16 -11 10 -11 -7 -1 -13 -5 -13 -11 0 -5 8 -7
18 -3 13 4 11 0 -6 -17 -13 -12 -21 -24 -18 -27 2 -3 43 -6 90 -8 84 -2 86 -2
92 22 4 14 -3 49 -15 83 -12 33 -20 64 -17 68 2 4 -3 8 -13 9 -17 1 -17 -2 -3
-50 8 -29 17 -67 19 -84 5 -31 3 -33 -25 -33 -17 0 -37 -3 -46 -6 -13 -5 -16
2 -16 40 0 45 -1 46 -32 47 -18 1 -36 1 -40 0 -3 0 -9 18 -13 40 -6 33 -4 43
11 54 11 7 21 12 24 10 7 -5 6 73 -2 80 -4 4 -12 -11 -19 -34 -7 -23 -16 -41
-21 -41 -11 0 -11 -2 12 70 24 75 24 74 6 67 -10 -4 -16 3 -18 21 l-4 27 -8
-27z"/>
<path d="M403 1801 c-6 -24 -43 -29 -43 -6 0 22 -22 18 -47 -9 -27 -28 -29
-36 -8 -36 8 0 15 7 15 15 0 8 9 15 20 15 11 0 20 -7 20 -15 0 -8 7 -15 15
-15 9 0 18 7 21 15 9 22 31 18 37 -5 3 -13 10 -18 21 -14 22 8 20 25 -4 31
-11 3 -20 11 -20 19 0 23 -21 27 -27 5z"/>
<path d="M1043 1801 c-6 -24 -43 -29 -43 -6 0 22 -22 18 -47 -9 -27 -28 -29
-36 -8 -36 8 0 15 7 15 15 0 8 9 15 20 15 11 0 20 -7 20 -15 0 -8 7 -15 15
-15 9 0 18 7 21 15 9 22 31 18 37 -5 3 -13 10 -18 21 -14 22 8 20 25 -4 31
-11 3 -20 11 -20 19 0 23 -21 27 -27 5z"/>
<path d="M1543 1813 c-16 -6 -5 -33 13 -33 8 0 14 -7 14 -15 0 -8 7 -15 15
-15 8 0 15 7 15 15 0 8 9 15 20 15 11 0 20 -7 20 -15 0 -8 6 -15 14 -15 8 0
16 7 20 15 3 8 12 15 21 15 17 0 20 25 4 35 -6 4 -13 -2 -16 -14 -6 -24 -43
-29 -43 -6 0 8 -7 15 -15 15 -9 0 -18 -7 -21 -15 -8 -19 -34 -20 -34 -1 0 18
-11 25 -27 19z"/>
<path d="M1460 1796 c0 -8 -5 -16 -12 -18 -9 -3 -9 -6 0 -12 7 -4 12 -2 12 3
0 6 9 11 20 11 11 0 20 -6 20 -14 0 -8 7 -16 15 -20 10 -4 15 1 15 14 0 11 -7
20 -15 20 -8 0 -15 7 -15 15 0 8 -9 15 -20 15 -11 0 -20 -6 -20 -14z"/>
<path d="M2100 1795 c0 -8 -6 -15 -14 -15 -7 0 -16 -9 -19 -20 -3 -11 -12 -20
-21 -20 -9 0 -16 -7 -16 -15 0 -8 9 -15 20 -15 13 0 20 -7 20 -20 0 -11 5 -20
11 -20 6 0 13 9 16 20 3 11 13 20 23 20 10 0 20 -9 23 -20 3 -11 10 -20 16
-20 6 0 11 9 11 20 0 13 7 20 20 20 11 0 20 7 20 15 0 8 -7 15 -15 15 -9 0
-18 -7 -21 -15 -4 -8 -12 -15 -20 -15 -8 0 -14 7 -14 15 0 8 -9 15 -20 15 -11
0 -20 -7 -20 -15 0 -8 -6 -15 -14 -15 -8 0 -16 7 -20 15 -3 9 0 15 10 15 9 0
18 9 21 20 3 11 13 20 23 20 10 0 20 -9 23 -20 3 -11 10 -20 16 -20 6 0 11 9
11 20 0 11 -7 20 -15 20 -8 0 -15 7 -15 15 0 8 -9 15 -20 15 -11 0 -20 -7 -20
-15z"/>
<path d="M2170 1799 c0 -6 9 -13 20 -16 11 -3 20 -12 20 -19 0 -8 7 -14 15
-14 8 0 15 7 15 15 0 8 -7 15 -15 15 -8 0 -15 7 -15 15 0 8 -9 15 -20 15 -11
0 -20 -5 -20 -11z"/>
<path d="M1214 1769 c-7 -12 15 -31 28 -23 4 3 8 12 8 20 0 17 -26 19 -36 3z"/>
<path d="M40 1725 c0 -8 -7 -15 -15 -15 -8 0 -15 -9 -15 -20 0 -11 7 -20 15
-20 8 0 15 -7 15 -15 0 -8 -7 -15 -15 -15 -8 0 -15 -9 -15 -20 0 -11 5 -20 11
-20 6 0 13 9 16 20 3 11 14 20 24 20 12 0 19 -7 19 -20 0 -13 -7 -20 -20 -20
-11 0 -20 -7 -20 -15 0 -9 -6 -18 -14 -21 -8 -3 -16 -14 -19 -23 -3 -14 0 -17
14 -14 13 4 19 0 19 -11 0 -9 -7 -16 -15 -16 -8 0 -15 -9 -15 -20 0 -11 7 -20
15 -20 8 0 15 -7 15 -15 0 -8 7 -15 15 -15 8 0 15 7 15 15 0 8 -7 15 -15 15
-8 0 -15 9 -15 20 0 11 7 20 15 20 8 0 15 7 15 15 0 8 -7 15 -15 15 -8 0 -15
9 -15 20 0 11 5 20 11 20 7 0 22 12 36 26 l24 26 -23 24 c-13 13 -29 24 -35
24 -21 0 -15 37 7 43 11 3 20 10 20 16 0 6 -9 11 -20 11 -11 0 -20 -7 -20 -15z"/>
<path d="M110 1724 c0 -8 9 -14 20 -14 13 0 20 -7 20 -20 0 -11 5 -20 11 -20
6 0 13 9 16 20 3 11 13 20 23 20 10 0 20 -9 23 -20 3 -11 10 -20 16 -20 6 0
11 9 11 20 0 13 7 20 20 20 11 0 20 7 20 15 0 8 -7 15 -15 15 -9 0 -18 -7 -21
-15 -4 -8 -12 -15 -20 -15 -8 0 -14 7 -14 15 0 8 -9 15 -20 15 -11 0 -20 -7
-20 -15 0 -8 -7 -15 -15 -15 -8 0 -15 6 -15 13 0 7 -9 13 -20 14 -11 1 -20 -4
-20 -13z"/>
<path d="M326 1725 c4 -8 12 -15 20 -15 8 0 14 -9 14 -20 0 -13 -7 -20 -20
-20 -13 0 -20 7 -20 20 0 21 -14 27 -25 11 -6 -11 40 -61 55 -61 6 0 10 -7 10
-16 0 -9 9 -18 20 -21 11 -3 20 -12 20 -19 0 -18 17 -18 27 -1 4 8 16 16 26
20 23 9 22 28 -3 34 -11 3 -20 11 -20 18 0 8 9 17 20 20 11 3 20 11 20 17 0 5
-9 12 -20 15 -11 3 -20 12 -20 19 0 8 -7 14 -15 14 -8 0 -15 -7 -15 -15 0 -8
7 -15 15 -15 8 0 15 -9 15 -20 0 -11 -7 -20 -15 -20 -8 0 -15 -7 -15 -15 0 -8
7 -15 15 -15 8 0 15 -9 15 -20 0 -12 -7 -20 -16 -20 -9 0 -18 9 -21 20 -3 11
-12 20 -19 20 -8 0 -14 7 -14 15 0 8 6 15 14 15 23 0 29 31 6 37 -11 3 -20 12
-20 19 0 8 -9 14 -20 14 -13 0 -18 -5 -14 -15z"/>
<path d="M470 1725 c0 -8 6 -15 14 -15 7 0 16 -9 19 -20 3 -11 10 -20 17 -20
7 0 14 9 17 20 3 11 12 20 19 20 8 0 14 7 14 15 0 8 -7 15 -15 15 -8 0 -15 -7
-15 -15 0 -8 -9 -15 -20 -15 -11 0 -20 7 -20 15 0 8 -7 15 -15 15 -8 0 -15 -7
-15 -15z"/>
<path d="M966 1725 c4 -8 12 -15 20 -15 8 0 14 -9 14 -20 0 -13 -7 -20 -20
-20 -13 0 -20 7 -20 20 0 21 -14 27 -25 11 -6 -10 40 -61 54 -61 5 0 11 -9 14
-20 3 -11 10 -20 16 -20 6 0 11 9 11 20 0 11 -7 20 -15 20 -8 0 -15 7 -15 15
0 8 6 15 14 15 23 0 29 31 6 37 -11 3 -20 12 -20 19 0 8 -9 14 -20 14 -13 0
-18 -5 -14 -15z"/>
<path d="M1040 1725 c0 -8 7 -15 15 -15 8 0 15 -9 15 -20 0 -11 -7 -20 -15
-20 -8 0 -15 -4 -15 -9 0 -17 49 -63 59 -57 14 9 2 36 -15 36 -21 0 -17 28 6
35 11 3 20 11 20 17 0 5 -9 12 -20 15 -11 3 -20 12 -20 19 0 8 -7 14 -15 14
-8 0 -15 -7 -15 -15z"/>
<path d="M1110 1725 c0 -8 6 -15 14 -15 7 0 16 -9 19 -20 3 -11 10 -20 17 -20
7 0 14 9 17 20 3 11 12 20 19 20 8 0 14 7 14 15 0 8 -7 15 -15 15 -8 0 -15 -7
-15 -15 0 -8 -9 -15 -20 -15 -11 0 -20 7 -20 15 0 8 -7 15 -15 15 -8 0 -15 -7
-15 -15z"/>
<path d="M1250 1726 c0 -7 -9 -16 -20 -19 -11 -3 -20 -10 -20 -15 0 -6 9 -14
20 -17 23 -7 27 -35 6 -35 -17 0 -29 -27 -15 -36 6 -3 24 9 40 27 29 32 29 34
10 37 -24 4 -29 42 -6 42 8 0 15 7 15 15 0 8 -7 15 -15 15 -8 0 -15 -6 -15
-14z"/>
<path d="M1456 1714 c-4 -15 -5 -29 -1 -32 3 -3 5 2 5 11 0 25 37 21 43 -4 6
-23 27 -17 27 7 0 8 9 14 20 14 11 0 20 7 20 15 0 8 -7 15 -15 15 -9 0 -18 -7
-21 -15 -4 -8 -12 -15 -20 -15 -8 0 -14 7 -14 15 0 27 -37 17 -44 -11z"/>
<path d="M1610 1725 c0 -8 7 -15 15 -15 8 0 15 -9 15 -20 0 -11 -7 -20 -15
-20 -8 0 -15 -7 -15 -15 0 -8 6 -15 14 -15 7 0 16 -9 19 -20 3 -11 10 -20 16
-20 6 0 11 9 11 20 0 11 -7 20 -15 20 -8 0 -15 7 -15 15 0 8 7 15 15 15 8 0
15 9 15 20 0 11 -7 20 -15 20 -8 0 -15 7 -15 15 0 8 -7 15 -15 15 -8 0 -15 -7
-15 -15z"/>
<path d="M1680 1725 c0 -8 7 -15 15 -15 8 0 15 -9 15 -20 0 -11 -7 -20 -15
-20 -8 0 -15 -4 -15 -9 0 -17 44 -58 57 -54 16 6 5 33 -13 33 -21 0 -17 28 6
35 11 3 20 11 20 17 0 5 -9 12 -20 15 -11 3 -20 12 -20 19 0 8 -7 14 -15 14
-8 0 -15 -7 -15 -15z"/>
<path d="M1750 1725 c0 -8 6 -15 14 -15 7 0 16 -9 19 -20 3 -11 10 -20 17 -20
7 0 14 9 17 20 3 11 12 20 19 20 8 0 14 7 14 15 0 8 -7 15 -15 15 -8 0 -15 -7
-15 -15 0 -8 -9 -15 -20 -15 -11 0 -20 7 -20 15 0 8 -7 15 -15 15 -8 0 -15 -7
-15 -15z"/>
<path d="M1960 1725 c0 -8 -7 -15 -15 -15 -8 0 -15 -9 -15 -20 0 -13 5 -18 15
-14 8 4 15 12 15 20 0 8 7 14 15 14 8 0 15 7 15 15 0 8 -7 15 -15 15 -8 0 -15
-7 -15 -15z"/>
<path d="M110 1655 c0 -8 5 -15 11 -15 14 0 59 -47 59 -61 0 -5 9 -9 20 -9 13
0 20 -7 20 -20 0 -13 -7 -20 -20 -20 -11 0 -20 7 -20 15 0 9 -7 18 -15 21 -8
4 -15 12 -15 20 0 8 -9 14 -21 14 -11 0 -17 -4 -14 -10 3 -5 -3 -15 -15 -22
-21 -14 -27 -38 -9 -38 6 0 13 9 16 20 3 11 14 20 24 20 12 0 19 -7 19 -20 0
-13 -7 -20 -20 -20 -11 0 -20 -7 -20 -15 0 -8 9 -15 20 -15 13 0 20 -7 20 -20
0 -27 -36 -27 -43 1 -3 12 -10 18 -16 14 -18 -11 -12 -32 10 -38 12 -3 18 -10
14 -16 -3 -7 2 -11 14 -11 12 0 21 7 21 15 0 8 7 15 15 15 8 0 15 -7 15 -16 0
-9 9 -18 20 -21 11 -3 20 -12 20 -19 0 -8 4 -14 8 -14 11 0 9 -31 -3 -49 -5
-9 -4 -12 3 -7 6 3 13 -3 17 -14 3 -11 11 -20 16 -20 6 0 7 6 4 13 -4 6 0 4 9
-7 14 -18 36 -15 36 5 0 6 -5 7 -12 3 -7 -5 -9 -2 -5 9 4 11 2 14 -9 10 -13
-5 -20 20 -15 50 1 5 -8 11 -20 14 -16 4 -17 8 -7 14 10 7 9 9 -4 9 -11 0 -18
8 -18 20 0 11 7 20 15 20 8 0 15 5 15 12 0 6 10 2 23 -9 28 -25 58 -43 40 -22
-7 7 -13 21 -13 30 0 29 -23 40 -53 26 -15 -6 -27 -18 -27 -24 0 -7 -9 -13
-20 -13 -11 0 -20 6 -20 14 0 8 -7 16 -15 20 -8 3 -15 12 -15 21 0 8 7 15 15
15 8 0 15 -7 15 -15 0 -8 9 -15 20 -15 11 0 20 7 20 15 0 8 7 15 15 15 8 0 15
9 15 20 0 11 -7 20 -15 20 -8 0 -15 7 -15 15 0 8 9 15 20 15 11 0 20 -7 20
-15 0 -8 7 -15 15 -15 22 0 18 27 -5 33 -11 3 -20 10 -20 17 0 7 9 14 20 17
25 7 27 36 3 31 -10 -2 -17 -10 -15 -16 1 -7 -7 -12 -18 -12 -13 0 -20 -7 -20
-20 0 -13 -7 -20 -20 -20 -13 0 -20 7 -20 20 0 11 -6 20 -14 20 -8 0 -16 7
-20 15 -3 8 -12 15 -21 15 -8 0 -15 -7 -15 -15z"/>
<path d="M470 1655 c0 -8 7 -15 15 -15 8 0 15 -9 15 -20 0 -11 -7 -20 -15 -20
-8 0 -15 -7 -15 -15 0 -8 7 -15 15 -15 8 0 15 7 15 15 0 8 9 15 20 15 11 0 20
-7 20 -15 0 -8 7 -15 15 -15 8 0 15 7 15 15 0 8 -7 15 -15 15 -8 0 -15 9 -15
20 0 11 7 20 15 20 8 0 15 7 15 15 0 8 -7 15 -15 15 -8 0 -15 -7 -15 -15 0 -8
-9 -15 -20 -15 -11 0 -20 7 -20 15 0 8 -7 15 -15 15 -8 0 -15 -7 -15 -15z"/>
<path d="M750 1655 c0 -8 5 -15 11 -15 14 0 59 -47 59 -61 0 -5 9 -9 20 -9 13
0 20 -7 20 -20 0 -13 -7 -20 -20 -20 -11 0 -20 7 -20 15 0 9 -7 18 -15 21 -8
4 -15 12 -15 20 0 8 -9 14 -21 14 -11 0 -17 -4 -14 -10 3 -5 -3 -15 -15 -22
-21 -14 -27 -38 -9 -38 6 0 13 9 16 20 3 11 14 20 24 20 12 0 19 -7 19 -20 0
-13 -7 -20 -20 -20 -11 0 -20 -7 -20 -15 0 -8 9 -15 20 -15 13 0 20 -7 20 -20
0 -27 -36 -27 -43 1 -3 12 -10 18 -16 14 -16 -9 -13 -35 4 -35 8 0 15 -7 15
-15 0 -8 7 -15 15 -15 9 0 18 7 21 15 4 8 12 15 20 15 8 0 14 -7 14 -15 0 -8
9 -15 20 -15 11 0 20 7 20 15 0 8 7 15 15 15 8 0 15 9 15 20 0 13 -5 18 -15
14 -8 -4 -15 -12 -15 -20 0 -8 -9 -14 -20 -14 -11 0 -20 6 -20 14 0 8 -7 16
-15 20 -8 3 -15 12 -15 21 0 8 7 15 15 15 8 0 15 -7 15 -15 0 -8 9 -15 20 -15
11 0 20 7 20 15 0 8 7 15 15 15 9 0 18 -7 21 -15 4 -8 12 -15 20 -15 8 0 14 7
14 15 0 8 -9 15 -20 15 -13 0 -20 7 -20 20 0 11 -7 20 -15 20 -8 0 -15 7 -15
15 0 8 9 15 20 15 11 0 20 -7 20 -15 0 -8 7 -15 15 -15 8 0 15 7 15 15 0 8 -7
15 -16 15 -9 0 -18 9 -21 20 -3 11 -12 20 -19 20 -8 0 -14 -9 -14 -20 0 -13
-7 -20 -20 -20 -13 0 -20 7 -20 20 0 11 -6 20 -14 20 -8 0 -16 7 -20 15 -3 8
-12 15 -21 15 -8 0 -15 -7 -15 -15z"/>
<path d="M1110 1655 c0 -8 7 -15 15 -15 8 0 15 -9 15 -20 0 -11 -7 -20 -15
-20 -8 0 -15 -7 -15 -15 0 -8 7 -15 15 -15 8 0 15 7 15 15 0 8 9 15 20 15 11
0 20 -7 20 -15 0 -8 7 -15 15 -15 22 0 18 27 -5 33 -23 6 -17 37 6 37 8 0 14
7 14 15 0 8 -7 15 -15 15 -8 0 -15 -7 -15 -15 0 -8 -9 -15 -20 -15 -11 0 -20
7 -20 15 0 8 -7 15 -15 15 -8 0 -15 -7 -15 -15z"/>
<path d="M1820 1656 c0 -8 10 -16 23 -18 l22 -3 -23 -23 c-16 -16 -21 -29 -16
-47 6 -23 4 -24 -53 -27 -51 -3 -58 -6 -61 -25 -3 -22 -2 -22 29 -9 33 14 69
11 69 -6 0 -5 -10 -9 -22 -8 -37 3 -45 -1 -18 -10 24 -8 23 -8 -7 -9 -20 -1
-33 4 -33 12 0 8 -4 7 -10 -3 -6 -10 -10 -11 -10 -2 0 14 -105 17 -114 3 -8
-12 -184 -13 -191 -1 -3 6 -37 10 -76 10 -53 0 -69 -3 -69 -14 0 -8 -3 -21 -6
-30 -4 -11 0 -16 12 -16 16 0 16 2 4 10 -22 13 7 22 61 18 46 -3 50 -9 34 -53
-6 -16 -5 -17 4 -5 8 11 11 3 11 -37 0 -76 -2 -79 -63 -74 -28 2 -56 8 -60 15
-6 7 -7 4 -3 -7 3 -10 6 -23 6 -28 0 -5 27 -9 59 -9 l59 0 0 -35 c0 -20 -5
-35 -11 -35 -9 0 -9 -2 -1 -8 12 -7 24 -103 12 -96 -4 3 -31 6 -60 7 -60 2
-79 -17 -21 -21 77 -5 81 -8 79 -54 l-1 -43 -60 -2 c-33 -1 -73 -2 -90 -1 -16
0 -40 0 -52 -1 -43 -2 -93 -1 -125 0 -18 1 -34 -3 -36 -9 -2 -7 -11 -12 -20
-12 -15 0 -15 2 -2 11 12 8 9 10 -12 6 -15 -2 -25 0 -22 4 7 12 -10 11 -40 -3
-20 -8 -24 -16 -20 -34 3 -12 1 -31 -5 -41 -9 -15 -11 -11 -13 22 -1 22 -1 57
0 77 3 46 -22 108 -42 108 -19 0 -21 -16 -4 -26 7 -4 8 -3 4 4 -4 7 -2 12 5
12 7 0 10 -11 7 -30 -3 -16 -2 -30 1 -30 3 0 6 -12 7 -27 3 -99 17 -289 21
-297 8 -12 -18 -26 -50 -26 -15 0 -30 7 -33 15 -4 8 -12 15 -20 15 -21 0 -17
-18 6 -25 11 -3 20 -11 20 -16 0 -6 4 -8 9 -5 5 3 11 -3 14 -15 5 -18 2 -19
-36 -15 -23 3 -42 5 -42 5 -1 1 1 17 3 36 l4 35 -58 -2 -59 -2 53 -3 c45 -4
52 -6 42 -19 -9 -10 -37 -14 -104 -15 -50 0 -85 -3 -78 -6 8 -3 5 -11 -10 -24
-19 -15 -20 -18 -6 -19 9 0 20 4 23 10 3 6 44 10 91 10 47 0 83 -4 80 -9 -3
-4 27 -11 67 -14 64 -4 74 -2 93 17 12 11 24 41 28 65 4 23 16 60 28 80 14 24
19 44 14 56 -6 16 -10 13 -31 -20 l-23 -40 -7 37 c-9 45 -3 56 30 53 22 -3 25
1 25 28 0 16 -3 27 -7 24 -7 -8 -33 11 -33 24 0 5 9 9 20 9 11 0 20 -6 20 -12
0 -9 4 -8 10 2 6 10 10 11 10 3 0 -7 7 -13 15 -13 8 0 15 -7 15 -15 0 -8 -4
-15 -9 -15 -13 0 -12 -65 1 -128 7 -35 16 -51 24 -48 8 3 13 -9 16 -34 5 -54
1 -62 -24 -49 -11 6 -22 8 -26 5 -3 -3 0 -6 6 -6 7 0 12 -4 12 -9 0 -15 -139
-34 -213 -28 -50 3 -65 1 -57 -7 16 -16 215 -14 268 3 36 12 51 12 92 2 38
-10 70 -10 142 -1 91 11 120 19 82 22 -10 0 -23 2 -29 3 -5 2 -14 3 -20 4 -5
1 -3 6 5 11 8 5 45 10 83 10 66 0 67 0 67 27 0 26 -1 26 -15 7 -14 -19 -14
-19 -16 1 -1 17 -2 16 -9 -5 l-8 -25 -1 25 -2 25 -15 -25 c-15 -24 -15 -24
-10 -2 4 19 2 21 -10 11 -11 -9 -14 -8 -15 2 0 8 -5 3 -11 -11 -9 -24 -10 -24
-18 -5 -4 11 -18 29 -31 40 -12 11 -19 14 -14 6 11 -19 14 -72 4 -65 -4 2 -16
-5 -27 -16 -15 -16 -33 -21 -78 -23 l-59 -2 1 30 c0 17 4 39 8 50 5 11 -1 7
-13 -10 l-21 -30 0 44 c0 33 -3 42 -14 38 -8 -3 -17 1 -20 9 -3 8 -1 14 4 14
6 0 10 5 10 10 0 6 -9 10 -20 10 -13 0 -20 7 -20 20 0 11 5 20 11 20 6 0 8 9
4 21 -6 17 -4 20 12 15 10 -3 28 0 39 8 19 15 18 16 -8 41 -36 34 -36 47 2 33
19 -6 32 -19 36 -35 6 -22 10 -24 43 -18 49 9 56 19 26 35 -28 15 -33 30 -10
30 8 0 15 -6 15 -12 0 -9 4 -8 10 2 7 11 10 11 10 2 0 -7 5 -10 10 -7 17 11
32 -5 19 -21 -9 -12 -6 -14 19 -14 17 0 37 -3 46 -6 11 -4 16 -1 16 10 0 8
-11 18 -25 22 -29 7 -28 13 4 19 11 2 21 -1 21 -7 0 -6 7 -5 17 3 15 12 16 12
8 -1 -8 -13 -7 -13 8 -1 24 19 31 8 19 -28 -11 -31 -9 -32 60 -55 10 -3 15
-11 12 -20 -3 -8 -1 -17 5 -21 24 -14 9 -26 -26 -20 -21 4 -51 9 -68 11 -18 3
-25 2 -18 -3 7 -5 9 -14 3 -22 -6 -11 -24 -13 -74 -8 -42 4 -66 3 -66 -4 0 -6
4 -8 9 -4 6 3 26 -4 46 -15 34 -19 42 -20 122 -8 l86 12 30 66 c16 36 32 82
35 103 l5 37 86 0 c47 0 104 3 126 8 39 8 40 8 16 21 -14 8 -21 9 -17 2 4 -6
1 -11 -6 -12 -90 -3 -279 -4 -298 -1 -22 3 -25 9 -26 48 l-1 44 274 0 273 0 0
-60 c0 -60 0 -61 -22 -48 -13 7 -51 13 -84 14 -61 1 -62 0 -75 -33 -12 -31
-14 -33 -26 -17 -7 10 -13 13 -13 8 0 -6 5 -15 10 -20 12 -12 -8 -106 -20 -99
-4 2 -6 -15 -6 -39 1 -24 4 -42 8 -40 3 2 19 -1 34 -6 33 -13 42 -6 20 15 -9
9 -14 21 -11 26 4 5 2 9 -3 9 -13 0 -2 99 15 137 14 31 40 49 52 37 3 -3 -2
-10 -11 -15 -17 -10 -44 -76 -34 -86 6 -6 11 5 20 48 4 17 16 30 33 37 32 11
73 11 73 0 0 -4 6 -7 13 -6 6 2 11 -3 9 -11 -2 -11 0 -12 10 -3 12 9 14 3 13
-36 -1 -51 -20 -96 -36 -87 -5 4 -5 14 2 27 6 11 8 31 3 46 -4 15 -6 34 -5 41
2 12 0 12 -12 3 -7 -6 -17 -8 -21 -4 -4 4 -18 7 -32 7 -37 1 -42 -55 -21 -247
2 -16 0 -28 -5 -28 -4 0 -8 13 -8 29 0 17 -4 33 -10 36 -15 9 -32 -5 -23 -18
5 -7 8 -21 8 -32 0 -18 -9 -20 -130 -23 -71 -2 -132 -5 -134 -8 -10 -10 388
-8 398 2 2 2 -2 11 -9 19 -11 13 -11 23 -1 51 7 19 10 42 6 53 -3 10 1 24 10
31 13 11 15 8 15 -23 0 -20 -6 -48 -12 -63 -9 -20 -10 -28 -1 -31 6 -2 8 -13
5 -25 -3 -15 -1 -19 9 -16 8 3 13 12 11 22 -2 13 7 16 63 16 50 0 65 3 65 15
0 14 -26 21 -95 27 -28 3 -30 6 -33 46 -2 25 4 59 15 83 17 39 20 41 54 36 36
-5 69 6 57 18 -4 4 -26 7 -51 7 -39 1 -46 5 -59 32 -9 17 -15 53 -14 81 2 55
12 62 89 64 26 1 37 5 34 14 -4 12 -92 18 -112 7 -17 -9 -175 1 -175 11 0 5
33 10 73 11 l72 2 -80 6 c-44 3 -65 7 -47 8 17 1 32 6 32 12 0 5 18 13 40 16
44 7 55 24 15 24 -15 0 -24 5 -23 13 2 8 -13 13 -42 15 -26 2 -48 10 -53 18
-10 18 -27 18 -27 -1 0 -8 6 -14 13 -13 7 2 12 -7 12 -22 0 -15 -5 -24 -12
-22 -7 1 -13 -2 -13 -8 0 -5 6 -10 14 -10 10 0 14 -9 12 -27 -3 -25 -8 -28
-37 -28 -33 0 -35 3 -59 65 l-25 65 -6 -70 -5 -70 -2 78 c-1 42 -6 77 -11 77
-6 0 -7 -32 -4 -75 l6 -76 -32 3 -31 2 0 75 c0 41 -3 72 -6 68 -3 -3 -6 -38
-6 -79 0 -45 -3 -65 -7 -53 -8 20 -8 20 -14 0 -3 -11 -3 13 0 53 4 48 2 72 -5
72 -6 0 -9 -14 -8 -32 2 -18 1 -24 -1 -14 -3 11 -11 25 -18 33 -16 15 -45 17
-45 3 0 -5 -7 -10 -15 -10 -8 0 -15 -7 -15 -15 0 -23 27 -18 33 6 3 12 11 19
18 17 15 -5 42 -78 28 -78 -5 0 -9 -8 -9 -17 0 -15 2 -16 10 -3 8 12 10 11 10
-8 0 -22 -3 -23 -62 -20 l-63 3 0 83 -1 82 92 0 c65 0 94 -4 97 -12 4 -9 6 -8
6 2 1 13 26 15 176 12 l175 -3 0 -84 c0 -53 4 -85 11 -85 5 0 9 8 8 18 -1 9 1
25 6 35 4 9 4 25 -1 35 -4 9 -8 29 -9 45 -3 33 21 42 96 35 27 -3 49 -1 49 4
0 5 -4 6 -10 3 -5 -3 -10 1 -10 9 0 11 -15 16 -62 18 l-63 3 -1 77 -1 76 34 7
c18 3 38 3 43 0 12 -7 50 12 50 25 0 6 -13 10 -30 10 -32 0 -34 4 -30 66 1 17
-6 38 -14 47 -9 9 -16 25 -16 36 0 14 -6 21 -20 21 -13 0 -20 -7 -20 -19 0
-10 -7 -24 -15 -31 -10 -8 -15 -30 -15 -65 l0 -52 -50 1 c-33 1 -50 5 -50 13
0 7 5 13 10 13 6 0 10 16 10 35 0 19 5 35 10 35 6 0 10 -11 10 -25 0 -14 4
-25 9 -25 5 0 12 -10 16 -22 7 -20 9 -18 12 15 5 41 -24 130 -38 121 -5 -3 -9
0 -9 5 0 6 -7 11 -15 11 -8 0 -15 -6 -15 -14z m145 -109 c0 -32 -3 -47 -12
-47 -9 0 -13 16 -13 51 0 66 23 62 25 -4z m45 -69 c0 -4 -26 -8 -57 -7 -45 1
-52 3 -33 9 31 10 90 9 90 -2z m-71 -105 l2 -83 -141 -1 c-77 0 -162 0 -190 0
-27 0 -88 0 -135 0 l-86 1 2 84 2 84 272 -1 272 0 2 -84z m-79 -193 c0 -16 -7
-20 -35 -20 -28 0 -35 4 -35 20 0 16 7 20 35 20 28 0 35 -4 35 -20z m-423
-233 c12 5 14 3 8 -8 -8 -12 -6 -12 8 0 10 8 17 9 17 3 0 -6 -4 -13 -9 -17 -5
-3 -7 -21 -4 -41 5 -32 4 -36 -13 -32 -12 2 -20 13 -22 31 -2 16 -10 31 -18
34 -8 3 -14 11 -14 18 0 15 23 26 28 14 2 -4 10 -5 19 -2z m454 -64 c0 -5 2
-18 3 -31 2 -13 -1 -25 -6 -28 -4 -3 -8 0 -8 5 0 6 -8 11 -17 11 -14 0 -13 -3
5 -16 20 -14 22 -24 22 -98 0 -81 -1 -84 -25 -88 -24 -5 -25 -3 -25 41 -1 25
-2 73 -4 106 -3 74 7 105 34 105 11 0 20 -3 21 -7z"/>
<path d="M1493 1404 c-7 -19 1 -59 12 -59 5 0 12 16 15 36 5 27 3 36 -8 36 -8
0 -16 -6 -19 -13z"/>
<path d="M1570 1405 c0 -8 -5 -15 -12 -15 -6 0 -9 -2 -7 -5 3 -2 15 -2 27 2
25 6 30 33 7 33 -8 0 -15 -7 -15 -15z"/>
<path d="M1651 1409 c8 -5 10 -9 4 -9 -5 0 -2 -5 8 -11 12 -7 17 -22 17 -50 0
-25 4 -38 10 -34 6 4 8 10 5 15 -3 4 1 11 7 13 10 4 10 6 1 6 -7 1 -13 8 -13
16 0 12 14 15 78 13 l77 -2 -70 -6 -70 -7 70 1 c55 1 70 4 70 16 0 12 -16 15
-80 16 -60 2 -80 5 -79 15 1 8 -10 15 -24 16 -18 1 -21 -1 -11 -8z"/>
<path d="M1860 1403 c0 -7 7 -13 15 -13 8 0 15 -7 15 -15 0 -8 7 -15 15 -15 8
0 15 7 15 15 0 8 -7 15 -15 15 -8 0 -15 6 -15 13 0 8 -7 14 -15 14 -8 0 -15
-6 -15 -14z"/>
<path d="M1580 1340 c0 -5 -7 -10 -15 -10 -8 0 -15 -7 -15 -15 0 -15 26 -20
54 -9 12 5 13 10 5 25 -10 20 -29 26 -29 9z"/>
<path d="M1748 1313 c18 -2 45 -2 60 0 15 2 0 4 -33 4 -33 0 -45 -2 -27 -4z"/>
<path d="M1423 1643 c4 -3 7 -11 7 -19 0 -8 7 -14 15 -14 8 0 15 7 15 15 0 8
-4 15 -9 15 -5 0 -15 2 -23 3 -7 2 -10 2 -5 0z"/>
<path d="M295 1630 c-8 -14 3 -30 21 -30 8 0 14 -7 14 -15 0 -8 7 -15 15 -15
8 0 15 7 15 15 0 8 -7 15 -16 15 -9 0 -18 9 -21 20 -6 22 -18 26 -28 10z"/>
<path d="M720 1620 c0 -13 -7 -20 -20 -20 -11 0 -20 -7 -20 -15 0 -8 4 -15 10
-15 15 0 61 50 55 61 -11 16 -25 10 -25 -11z"/>
<path d="M935 1629 c-7 -10 39 -59 56 -59 5 0 9 -9 9 -20 0 -11 -7 -20 -15
-20 -8 0 -15 -7 -15 -15 0 -8 7 -15 15 -15 8 0 15 -9 15 -20 0 -11 -7 -20 -15
-20 -8 0 -15 -7 -15 -15 0 -8 7 -15 15 -15 8 0 15 7 15 15 0 8 7 15 15 15 8 0
15 9 15 20 0 11 -7 20 -15 20 -8 0 -15 7 -15 15 0 8 7 15 15 15 8 0 15 9 15
21 0 12 -4 17 -11 14 -6 -4 -13 2 -16 14 -3 12 -13 21 -24 21 -12 0 -19 7 -19
20 0 21 -15 27 -25 9z"/>
<path d="M1790 1624 c0 -9 -9 -18 -20 -21 -23 -6 -27 -33 -5 -33 8 0 15 7 15
15 0 8 7 15 15 15 8 0 15 9 15 20 0 11 -4 20 -10 20 -5 0 -10 -7 -10 -16z"/>
<path d="M2070 1621 c0 -11 -9 -21 -22 -25 -19 -4 -20 -8 -10 -18 11 -11 15
-10 23 5 6 9 17 17 24 17 20 0 19 -26 0 -34 -8 -3 -15 -12 -15 -21 0 -8 7 -15
15 -15 8 0 15 -7 15 -15 0 -8 9 -15 20 -15 11 0 20 7 20 15 0 8 7 15 15 15 8
0 15 -7 15 -15 0 -9 -7 -18 -15 -21 -8 -4 -15 -12 -15 -20 0 -8 -9 -14 -20
-14 -11 0 -20 -7 -20 -15 0 -8 9 -15 20 -15 11 0 20 7 20 15 0 8 7 15 15 15 8
0 15 9 15 20 0 13 7 20 20 20 11 0 20 7 20 15 0 8 -9 15 -20 15 -13 0 -20 7
-20 20 0 11 -7 20 -15 20 -8 0 -15 7 -15 15 0 8 9 15 21 15 12 0 17 -4 14 -11
-4 -6 2 -13 13 -16 11 -2 22 -13 25 -24 7 -25 27 -24 27 2 0 12 -4 17 -11 14
-6 -4 -13 2 -16 14 -3 12 -12 21 -20 21 -8 0 -17 9 -20 20 -3 11 -12 20 -19
20 -8 0 -14 -9 -14 -20 0 -13 -7 -20 -20 -20 -13 0 -20 7 -20 20 0 11 -7 20
-15 20 -8 0 -15 -8 -15 -19z m70 -71 c0 -13 -7 -20 -20 -20 -13 0 -20 7 -20
20 0 13 7 20 20 20 13 0 20 -7 20 -20z"/>
<path d="M1040 1585 c0 -8 7 -15 15 -15 8 0 15 -9 15 -20 0 -11 -7 -20 -15
-20 -22 0 -18 -27 5 -33 23 -6 17 -37 -6 -37 -8 0 -14 -7 -14 -15 0 -8 7 -15
15 -15 8 0 15 -9 15 -20 0 -11 -7 -20 -15 -20 -8 0 -15 -9 -15 -20 0 -13 5
-18 15 -14 8 4 15 12 15 20 0 8 9 14 20 14 13 0 20 -7 20 -20 0 -11 5 -20 11
-20 6 0 13 9 16 20 3 11 13 20 23 20 10 0 20 -9 23 -20 3 -11 10 -20 16 -20 6
0 11 9 11 20 0 13 7 20 20 20 11 0 20 -6 20 -14 0 -8 7 -16 15 -20 10 -4 15 1
15 14 0 11 -7 20 -15 20 -8 0 -15 7 -15 15 0 8 -9 15 -20 15 -11 0 -20 -7 -20
-15 0 -8 -7 -15 -15 -15 -8 0 -15 7 -15 15 0 8 -9 15 -20 15 -11 0 -20 -7 -20
-15 0 -8 -7 -15 -15 -15 -8 0 -15 6 -15 14 0 7 -9 16 -20 19 -11 3 -20 12 -20
20 0 8 9 17 20 20 11 3 20 10 20 15 0 5 -9 12 -20 15 -11 3 -20 12 -20 20 0 8
9 17 20 20 11 3 20 10 20 15 0 6 -9 14 -20 17 -11 3 -20 13 -20 21 0 8 -7 14
-15 14 -8 0 -15 -7 -15 -15z"/>
<path d="M1683 1585 c0 -8 6 -15 13 -15 7 0 14 -5 16 -12 3 -9 6 -9 12 0 4 7
2 12 -3 12 -6 0 -11 7 -11 15 0 8 -6 15 -13 15 -8 0 -14 -7 -14 -15z"/>
<path d="M647 1563 c-10 -9 5 -33 19 -33 8 0 14 -7 14 -15 0 -8 -7 -15 -15
-15 -8 0 -15 -9 -15 -20 0 -11 7 -20 15 -20 8 0 15 -7 15 -15 0 -8 7 -15 15
-15 8 0 15 7 15 15 0 8 -7 15 -15 15 -8 0 -15 9 -15 20 0 11 7 20 15 20 8 0
15 7 15 15 0 8 -7 15 -15 15 -8 0 -15 6 -15 14 0 14 -24 29 -33 19z"/>
<path d="M1290 1547 c0 -11 3 -17 7 -14 3 4 12 2 18 -3 9 -8 11 -4 8 13 -6 29
-33 32 -33 4z"/>
<path d="M334 1544 c-16 -13 -16 -15 -2 -10 13 4 20 -4 28 -32 5 -20 10 -45
10 -54 0 -31 -16 -27 -29 8 -7 18 -17 34 -22 34 -12 0 -12 -27 0 -35 20 -12
59 -95 54 -115 -4 -17 -10 -11 -29 30 -17 38 -29 51 -41 48 -22 -4 -24 -33 -3
-33 8 0 16 -9 18 -20 2 -11 9 -24 14 -30 8 -7 8 -6 3 4 -5 9 -4 12 3 7 6 -4 9
-12 7 -19 -3 -7 2 -20 10 -31 13 -17 18 -17 60 -5 40 12 46 17 42 36 -2 13 2
24 10 27 17 7 13 48 -5 54 -7 2 -15 -9 -18 -28 -5 -22 -9 -28 -15 -18 -6 8 -9
1 -9 -23 0 -23 -5 -36 -13 -36 -15 0 -15 58 -2 110 4 16 3 27 -3 27 -12 0 -24
-29 -16 -41 3 -5 1 -9 -4 -9 -21 0 -20 15 3 46 14 18 25 39 25 47 0 9 6 17 13
20 16 6 -31 57 -53 57 -9 0 -25 -7 -36 -16z"/>
<path d="M943 1493 c-7 -2 -13 -11 -13 -19 0 -8 -6 -14 -14 -14 -21 0 -31 -21
-15 -30 7 -5 17 -6 21 -4 4 3 8 -4 8 -14 0 -11 -9 -22 -20 -25 -11 -3 -20 -10
-20 -15 0 -5 9 -12 20 -15 23 -6 28 -37 6 -37 -17 0 -29 -27 -15 -36 10 -6 59
40 59 57 0 5 -7 9 -15 9 -8 0 -15 9 -15 20 0 11 7 20 15 20 8 0 15 6 15 14 0
8 -7 16 -15 20 -8 3 -15 12 -15 21 0 8 7 15 15 15 8 0 15 9 15 20 0 11 -1 20
-2 19 -2 0 -9 -3 -15 -6z"/>
<path d="M2213 1481 c-3 -12 -11 -21 -19 -21 -19 0 -29 -21 -13 -30 7 -5 17
-6 21 -4 4 3 8 -4 8 -14 0 -11 -9 -22 -20 -25 -11 -3 -20 -10 -20 -15 0 -5 9
-12 20 -15 23 -6 28 -37 6 -37 -23 0 -29 -31 -6 -37 26 -7 26 -29 0 -36 -11
-3 -20 -10 -20 -17 0 -7 9 -14 20 -17 11 -3 20 -11 20 -18 0 -8 -9 -17 -20
-20 -11 -3 -20 -11 -20 -17 0 -5 9 -12 20 -15 11 -3 20 -12 20 -20 0 -8 -9
-17 -20 -20 -11 -3 -20 -12 -20 -19 0 -8 -7 -14 -15 -14 -8 0 -15 7 -15 15 0
8 -9 15 -20 15 -13 0 -18 -5 -14 -15 4 -8 12 -15 19 -15 7 0 15 -9 18 -20 3
-11 10 -20 16 -20 6 0 11 9 11 20 0 13 7 20 20 20 11 0 20 -4 20 -10 0 -5 10
-20 22 -32 17 -17 20 -18 15 -4 -4 10 -7 24 -7 32 0 8 -7 14 -15 14 -8 0 -15
9 -15 20 0 11 7 20 15 20 8 0 15 7 15 15 0 8 -7 15 -15 15 -8 0 -15 9 -15 20
0 11 7 20 15 20 8 0 15 7 15 15 0 8 -7 15 -15 15 -8 0 -15 9 -15 20 0 11 7 20
15 20 8 0 15 7 15 15 0 8 -7 15 -15 15 -8 0 -15 7 -15 15 0 9 7 18 15 21 8 4
15 12 15 20 0 8 -7 14 -15 14 -8 0 -15 9 -15 20 0 11 7 20 15 20 8 0 15 6 15
14 0 8 -7 16 -15 20 -8 3 -15 12 -15 21 0 8 7 15 15 15 17 0 20 26 4 35 -6 4
-13 -2 -16 -14z"/>
<path d="M421 1472 c-13 -25 4 -54 19 -32 12 19 13 37 1 45 -6 3 -14 -3 -20
-13z"/>
<path d="M1140 1475 c0 -8 -7 -15 -15 -15 -8 0 -15 -7 -15 -15 0 -8 7 -15 15
-15 8 0 15 7 15 15 0 8 9 15 20 15 11 0 20 -7 20 -15 0 -8 7 -15 15 -15 8 0
15 7 15 15 0 8 -7 15 -15 15 -8 0 -15 7 -15 15 0 8 -9 15 -20 15 -11 0 -20 -7
-20 -15z"/>
<path d="M720 1410 c0 -11 7 -20 15 -20 8 0 15 -9 15 -20 0 -11 -7 -20 -15
-20 -8 0 -15 -7 -15 -15 0 -8 7 -15 15 -15 8 0 15 -9 15 -20 0 -12 -7 -20 -16
-20 -9 0 -18 9 -21 20 -3 11 -12 20 -19 20 -8 0 -14 7 -14 15 0 8 -7 15 -15
15 -8 0 -15 -7 -15 -15 0 -8 7 -15 15 -15 8 0 15 -6 15 -14 0 -8 9 -18 20 -21
11 -3 20 -13 20 -21 0 -8 -9 -14 -20 -14 -11 0 -20 7 -20 15 0 8 -9 15 -21 15
-11 0 -18 4 -15 8 2 4 1 14 -4 22 -8 12 -12 12 -22 2 -11 -11 -8 -17 12 -32
22 -16 23 -20 8 -25 -19 -8 -41 2 -33 15 3 4 -4 10 -15 13 -26 7 -26 27 0 34
25 7 27 36 3 31 -10 -2 -17 -10 -15 -16 1 -7 -7 -12 -18 -12 -11 0 -20 7 -20
15 0 8 -7 15 -15 15 -8 0 -15 -7 -15 -15 0 -8 6 -15 14 -15 7 0 16 -9 19 -21
3 -12 10 -18 17 -14 7 4 14 -2 17 -14 3 -12 11 -21 18 -21 7 0 15 -9 18 -20 3
-11 10 -20 16 -20 6 0 11 9 11 20 0 13 7 20 20 20 13 0 20 -7 20 -20 0 -11 -7
-20 -15 -20 -8 0 -15 -7 -15 -15 0 -8 7 -15 15 -15 8 0 15 -9 15 -20 0 -11 -7
-20 -15 -20 -8 0 -15 -7 -15 -15 0 -8 7 -15 15 -15 8 0 15 7 15 15 0 8 7 15
15 15 8 0 15 9 15 20 0 11 -7 20 -15 20 -8 0 -15 7 -15 15 0 8 9 15 20 15 11
0 20 -7 20 -15 0 -8 7 -15 15 -15 8 0 15 -9 15 -20 0 -11 -7 -20 -15 -20 -8 0
-15 -7 -15 -15 0 -8 7 -15 15 -15 8 0 15 6 15 14 0 7 9 16 20 19 11 3 20 10
20 15 0 6 -9 14 -20 17 -11 3 -20 13 -20 21 0 8 9 14 20 14 11 0 20 -7 20 -15
0 -8 7 -15 15 -15 8 0 15 7 15 15 0 8 9 15 20 15 11 0 20 -7 20 -15 0 -8 7
-15 15 -15 8 0 15 7 15 15 0 8 -6 15 -14 15 -7 0 -16 9 -19 20 -3 11 -10 20
-17 20 -7 0 -14 -9 -17 -20 -6 -23 -33 -27 -33 -6 0 8 -9 18 -20 21 -11 3 -20
12 -20 20 0 7 9 15 20 18 11 3 20 10 20 17 0 7 -9 14 -20 17 -11 3 -20 11 -20
18 0 8 9 17 20 20 11 3 20 11 20 17 0 5 -9 12 -20 15 -11 3 -20 11 -20 18 0 7
-7 15 -15 19 -10 4 -15 -1 -15 -14z m33 -166 c9 -10 -4 -34 -18 -34 -17 0 -28
17 -20 30 7 11 28 13 38 4z"/>
<path d="M10 1405 c0 -8 7 -15 15 -15 8 0 15 -6 15 -14 0 -18 16 -29 30 -21
13 8 1 35 -16 35 -8 0 -14 7 -14 15 0 8 -7 15 -15 15 -8 0 -15 -7 -15 -15z"/>
<path d="M80 1407 c0 -7 10 -17 23 -22 12 -6 22 -14 22 -20 0 -5 4 -16 8 -22
5 -7 4 -13 -2 -13 -5 0 -13 5 -16 10 -10 17 -35 11 -35 -7 0 -14 2 -15 9 -5 7
11 9 11 14 -2 4 -9 14 -13 27 -11 13 2 23 -2 27 -12 5 -11 12 -4 29 28 28 53
29 59 9 59 -8 0 -15 7 -15 15 0 8 -7 15 -15 15 -8 0 -15 -7 -15 -15 0 -8 6
-15 14 -15 8 0 16 -6 19 -12 5 -16 -10 -48 -24 -48 -6 0 -7 5 -4 10 4 6 3 10
-2 9 -20 -3 -25 2 -14 15 10 11 8 16 -8 21 -12 3 -21 13 -21 21 0 8 -7 14 -15
14 -8 0 -15 -6 -15 -13z"/>
<path d="M500 1409 c0 -6 9 -13 20 -16 11 -3 20 -11 20 -18 0 -7 7 -15 15 -19
10 -4 15 1 15 14 0 13 7 20 20 20 11 0 20 7 20 15 0 8 -7 15 -15 15 -9 0 -18
-7 -21 -15 -4 -8 -12 -15 -20 -15 -8 0 -14 7 -14 15 0 8 -9 15 -20 15 -11 0
-20 -5 -20 -11z"/>
<path d="M650 1405 c0 -8 6 -15 14 -15 7 0 16 -9 19 -20 3 -11 10 -20 16 -20
6 0 11 9 11 20 0 11 -7 20 -15 20 -8 0 -15 7 -15 15 0 8 -7 15 -15 15 -8 0
-15 -7 -15 -15z"/>
<path d="M790 1405 c0 -8 6 -15 14 -15 7 0 16 -9 19 -20 3 -11 10 -20 15 -20
6 0 14 9 17 20 3 11 13 20 21 20 8 0 14 7 14 15 0 8 -7 15 -15 15 -8 0 -15 -7
-15 -15 0 -8 -9 -15 -20 -15 -11 0 -20 7 -20 15 0 8 -7 15 -15 15 -8 0 -15 -7
-15 -15z"/>
<path d="M1000 1405 c0 -8 -7 -15 -15 -15 -8 0 -15 -9 -15 -20 0 -11 5 -20 11
-20 6 0 13 9 16 20 3 11 12 20 19 20 8 0 14 7 14 15 0 8 -7 15 -15 15 -8 0
-15 -7 -15 -15z"/>
<path d="M1290 1405 c0 -8 7 -15 15 -15 8 0 15 -9 15 -20 0 -11 -7 -20 -15
-20 -25 0 -17 -27 11 -34 15 -4 29 -5 32 -1 3 3 -2 5 -11 5 -9 0 -17 7 -17 15
0 8 7 15 15 15 8 0 15 9 15 20 0 11 -7 20 -15 20 -8 0 -15 7 -15 15 0 8 -7 15
-15 15 -8 0 -15 -7 -15 -15z"/>
<path d="M2000 1405 c0 -8 7 -15 15 -15 8 0 15 -9 15 -20 0 -11 -7 -20 -15
-20 -8 0 -15 -7 -15 -15 0 -8 7 -15 15 -15 8 0 15 6 15 14 0 8 9 18 20 21 11
3 20 11 20 17 0 5 -9 12 -20 15 -11 3 -20 12 -20 19 0 8 -7 14 -15 14 -8 0
-15 -7 -15 -15z"/>
<path d="M2070 1405 c0 -8 6 -15 14 -15 8 0 18 -9 21 -20 3 -11 10 -20 15 -20
5 0 12 9 15 20 3 11 13 20 21 20 8 0 14 7 14 15 0 8 -7 15 -15 15 -8 0 -15 -7
-15 -15 0 -8 -9 -15 -20 -15 -11 0 -20 7 -20 15 0 8 -7 15 -15 15 -8 0 -15 -7
-15 -15z"/>
<path d="M10 1335 c0 -8 7 -15 15 -15 8 0 15 -6 15 -14 0 -8 9 -18 20 -21 20
-6 28 -35 10 -35 -5 0 -10 -8 -9 -17 0 -10 3 -13 5 -6 3 7 11 10 18 7 10 -4
12 2 9 20 -3 16 -1 26 6 26 7 0 9 -4 6 -10 -3 -6 1 -7 9 -4 10 4 18 -1 23 -12
3 -11 17 -32 30 -47 13 -16 23 -35 23 -43 0 -8 10 -14 24 -14 27 0 51 -24 41
-40 -4 -6 -14 -9 -22 -6 -8 3 -11 1 -8 -4 11 -18 -10 -10 -60 23 -52 34 -89
38 -83 9 2 -11 19 -20 45 -26 46 -10 67 -35 27 -32 -13 0 -24 4 -24 9 0 16
-19 6 -25 -14 -6 -17 -9 -19 -16 -8 -7 11 -9 10 -9 -3 0 -23 27 -23 32 0 2 11
15 -6 36 -47 18 -35 30 -66 28 -68 -2 -3 -14 0 -25 7 -12 6 -26 8 -31 5 -17
-11 0 -25 30 -25 l28 0 -15 -31 c-18 -36 -12 -92 13 -120 12 -13 31 -19 63
-19 29 0 41 3 33 9 -10 6 -7 10 12 13 14 3 23 1 20 -3 -3 -5 9 -9 26 -9 26 0
30 3 21 17 -8 15 -22 17 -89 14 -47 -1 -82 2 -86 8 -10 15 5 90 20 106 11 10
11 15 1 18 -6 3 7 6 31 6 43 1 43 1 28 23 -18 25 -21 68 -6 68 6 0 10 -6 10
-13 0 -7 9 -13 20 -14 11 -1 20 2 20 8 0 5 -6 9 -14 9 -16 0 -29 27 -20 42 3
5 -7 3 -24 -6 -28 -14 -30 -19 -25 -56 7 -54 -4 -51 -18 5 -7 27 -17 45 -25
45 -12 0 -12 -3 0 -22 19 -31 29 -68 19 -68 -11 0 -56 91 -48 98 3 3 5 2 5 -2
0 -5 11 -1 25 8 14 9 42 17 64 19 34 2 38 5 35 25 -3 12 0 22 6 22 5 0 10 -4
10 -9 0 -12 48 -1 61 15 6 8 24 14 40 14 28 0 69 30 69 50 0 6 9 10 20 10 11
0 20 5 20 10 0 6 -5 10 -11 10 -5 0 -8 4 -5 9 10 16 -22 20 -41 4 -16 -13 -16
-14 0 -9 9 3 17 1 17 -4 0 -5 -11 -12 -25 -16 -14 -3 -23 -9 -21 -13 3 -4 1
-13 -5 -21 -9 -16 -9 -15 -13 50 -1 21 4 26 28 28 16 2 35 10 43 18 8 8 19 12
24 9 5 -4 9 3 9 15 0 21 -1 20 -33 -4 -19 -14 -46 -27 -60 -28 -15 -1 -27 -7
-27 -12 0 -5 -11 3 -25 18 -26 28 -40 32 -50 16 -6 -9 8 -14 28 -11 5 1 6 -3
2 -9 -3 -5 5 -21 19 -34 41 -37 31 -60 -15 -35 -16 8 -18 13 -8 25 6 8 7 14 2
14 -5 0 -18 8 -29 18 -20 17 -35 23 -64 26 -11 1 -15 -8 -14 -30 l2 -32 -30
32 c-19 20 -31 27 -34 19 -4 -8 -14 -4 -30 12 -14 14 -30 23 -36 19 -14 -9
-58 16 -58 33 0 7 -7 13 -15 13 -8 0 -15 -7 -15 -15z m266 -90 c4 -8 10 -12
15 -9 16 9 9 -10 -12 -36 -11 -14 -18 -19 -14 -12 6 11 3 11 -13 1 -12 -7 -18
-17 -16 -21 3 -5 10 -6 15 -2 15 9 138 11 133 2 -3 -5 -12 -8 -20 -8 -8 0 -14
-6 -14 -12 0 -10 -2 -10 -8 -1 -5 8 -19 9 -44 4 -27 -6 -42 -5 -57 6 -12 8
-26 11 -33 7 -7 -5 -8 -3 -3 5 4 8 -4 24 -20 41 -27 28 -19 34 20 14 11 -6 31
-8 45 -4 22 5 23 7 7 13 -10 4 -15 11 -12 17 9 15 25 12 31 -5z"/>
<path d="M790 1335 c0 -8 7 -15 15 -15 8 0 15 -9 15 -20 0 -11 -7 -20 -15 -20
-8 0 -15 -7 -15 -15 0 -8 7 -15 15 -15 8 0 15 7 15 15 0 8 9 15 20 15 11 0 20
-7 20 -15 0 -8 7 -15 15 -15 8 0 15 7 15 15 0 8 -7 15 -15 15 -8 0 -15 9 -15
20 0 11 7 20 15 20 8 0 15 7 15 15 0 8 -7 15 -15 15 -8 0 -15 -7 -15 -15 0 -8
-9 -15 -20 -15 -11 0 -20 7 -20 15 0 8 -7 15 -15 15 -8 0 -15 -7 -15 -15z"/>
<path d="M1000 1335 c0 -8 -6 -15 -14 -15 -7 0 -16 -9 -19 -20 -3 -11 -12 -20
-21 -20 -9 0 -16 -6 -16 -14 0 -7 -9 -16 -20 -19 -11 -3 -20 -10 -20 -17 0 -7
9 -14 20 -17 23 -6 27 -33 5 -33 -8 0 -15 -9 -15 -20 0 -13 -7 -20 -20 -20
-11 0 -20 7 -20 15 0 8 -9 15 -20 15 -11 0 -20 -7 -20 -15 0 -8 -7 -15 -15
-15 -8 0 -15 -7 -15 -15 0 -8 7 -15 15 -15 8 0 15 7 15 15 0 8 9 15 20 15 11
0 20 -7 20 -15 0 -8 6 -15 14 -15 8 0 16 7 20 15 3 8 12 15 21 15 8 0 15 9 15
20 0 11 7 20 15 20 8 0 15 7 15 15 0 8 -7 15 -15 15 -23 0 -18 37 6 43 12 3
18 10 15 16 -4 5 3 12 14 16 11 3 20 13 20 21 0 8 7 14 15 14 8 0 15 7 15 15
0 8 -7 15 -15 15 -8 0 -15 -7 -15 -15z"/>
<path d="M2070 1335 c0 -8 4 -15 9 -15 14 0 61 -45 61 -59 0 -6 7 -11 15 -11
8 0 15 7 15 15 0 8 -7 15 -15 15 -8 0 -15 9 -15 20 0 11 7 20 15 20 8 0 15 7
15 15 0 8 -7 15 -15 15 -8 0 -15 -7 -15 -15 0 -8 -9 -15 -20 -15 -11 0 -20 7
-20 15 0 8 -7 15 -15 15 -8 0 -15 -7 -15 -15z"/>
<path d="M1040 1300 c0 -13 -7 -20 -19 -20 -11 0 -21 -9 -24 -21 -3 -12 -10
-18 -16 -14 -7 3 -11 -2 -11 -14 0 -27 20 -27 27 -1 3 11 14 20 24 20 12 0 19
-7 19 -20 0 -25 20 -26 27 -1 3 11 14 22 25 24 22 6 16 27 -8 27 -8 0 -13 -4
-10 -9 3 -5 0 -14 -8 -20 -10 -8 -16 -8 -25 3 -10 11 -8 17 10 29 11 9 18 20
14 26 -10 18 -25 13 -25 -9z"/>
<path d="M1110 1300 c0 -11 7 -20 15 -20 8 0 15 -7 15 -15 0 -8 -7 -15 -15
-15 -8 0 -15 -9 -15 -20 0 -13 -7 -20 -20 -20 -11 0 -20 -7 -20 -15 0 -8 9
-15 20 -15 13 0 20 -7 20 -20 0 -13 -7 -20 -19 -20 -10 0 -21 9 -24 20 -3 11
-10 20 -16 20 -6 0 -11 -9 -11 -20 0 -11 7 -20 15 -20 8 0 15 -7 15 -15 0 -8
6 -15 14 -15 8 0 16 7 20 15 3 8 12 15 21 15 8 0 15 -7 15 -15 0 -8 9 -15 20
-15 11 0 20 7 20 15 0 8 7 15 15 15 8 0 15 9 15 20 0 13 -5 18 -15 14 -8 -4
-15 -12 -15 -20 0 -8 -9 -14 -20 -14 -11 0 -20 6 -20 14 0 8 -7 16 -15 20 -8
3 -15 12 -15 21 0 8 7 15 15 15 8 0 15 -7 15 -15 0 -8 9 -15 20 -15 11 0 20 7
20 15 0 8 6 15 14 15 8 0 16 -7 20 -15 7 -19 36 -20 36 -1 0 8 7 16 15 20 8 3
15 10 15 16 0 16 -24 7 -32 -12 -8 -20 -38 -14 -38 8 0 8 -7 17 -15 20 -8 4
-15 12 -15 19 0 7 7 15 15 19 8 3 15 12 15 21 0 8 -7 15 -15 15 -8 0 -15 -9
-15 -20 0 -13 -7 -20 -20 -20 -13 0 -20 7 -20 20 0 11 -7 20 -15 20 -8 0 -15
-9 -15 -20z m70 -70 c0 -13 -7 -20 -20 -20 -13 0 -20 7 -20 20 0 13 7 20 20
20 13 0 20 -7 20 -20z"/>
<path d="M505 1269 c-4 -6 2 -13 14 -16 27 -7 27 -39 1 -46 -11 -3 -20 -10
-20 -16 0 -6 9 -11 20 -11 11 0 20 7 20 15 0 8 7 15 15 15 9 0 18 -7 21 -15 4
-8 12 -15 20 -15 8 0 14 7 14 15 0 8 -9 15 -20 15 -13 0 -20 7 -20 20 0 11 -7
20 -15 20 -8 0 -15 7 -15 15 0 17 -26 20 -35 4z"/>
<path d="M2103 1230 c-7 -25 -21 -26 -39 -2 -13 16 -15 16 -25 0 -5 -10 -17
-18 -24 -18 -8 0 -15 -7 -15 -15 0 -8 7 -15 15 -15 8 0 15 -9 15 -20 0 -11 -7
-20 -15 -20 -8 0 -15 -7 -15 -15 0 -8 7 -15 15 -15 8 0 15 6 15 14 0 7 9 16
20 19 11 3 20 10 20 15 0 6 -9 14 -20 17 -24 8 -26 30 -4 39 11 4 18 -1 21
-14 6 -23 33 -27 33 -5 0 8 9 15 20 15 11 0 20 -7 20 -15 0 -8 7 -15 15 -15 8
0 15 7 15 15 0 8 -6 15 -14 15 -7 0 -16 9 -19 20 -3 11 -10 20 -17 20 -7 0
-14 -9 -17 -20z"/>
<path d="M40 1225 c0 -8 -7 -15 -15 -15 -8 0 -15 -6 -15 -14 0 -10 10 -14 33
-13 17 0 38 -1 46 -4 7 -2 16 2 18 9 3 8 -7 12 -30 12 -30 0 -34 3 -30 20 3
11 3 20 -1 20 -3 0 -6 -7 -6 -15z"/>
<path d="M1320 1226 c0 -9 -7 -16 -15 -16 -8 0 -15 -7 -15 -15 0 -8 7 -15 15
-15 8 0 15 -9 15 -20 0 -11 -7 -20 -15 -20 -8 0 -15 -7 -15 -15 0 -8 7 -15 15
-15 8 0 15 7 15 15 0 8 7 15 15 15 8 0 15 7 15 15 0 9 -7 18 -15 21 -20 8 -19
34 1 34 17 0 14 22 -4 28 -7 2 -12 -3 -12 -12z"/>
<path d="M1683 1224 c0 -7 4 -11 9 -8 5 4 12 -3 15 -15 6 -24 33 -29 33 -6 0
8 -7 15 -15 15 -8 0 -15 6 -15 13 0 8 -6 14 -13 14 -8 0 -14 -6 -14 -13z"/>
<path d="M1583 1165 c0 -33 2 -45 4 -27 2 18 2 45 0 60 -2 15 -4 0 -4 -33z"/>
<path d="M1000 1195 c0 -8 -7 -15 -15 -15 -8 0 -15 -9 -15 -20 0 -11 7 -20 15
-20 8 0 15 -7 15 -15 0 -8 7 -15 15 -15 8 0 15 7 15 15 0 8 -7 15 -15 15 -8 0
-15 9 -15 20 0 11 7 20 15 20 8 0 15 7 15 15 0 8 -7 15 -15 15 -8 0 -15 -7
-15 -15z"/>
<path d="M553 1173 c-7 -2 -13 -11 -13 -19 0 -8 -9 -14 -20 -14 -11 0 -20 7
-20 15 0 8 -7 15 -15 15 -8 0 -15 -7 -15 -15 0 -8 7 -15 15 -15 8 0 15 -7 15
-15 0 -8 9 -15 20 -15 11 0 20 7 20 15 0 8 7 15 15 15 8 0 15 9 15 20 0 11 -1
20 -2 19 -2 0 -9 -3 -15 -6z"/>
<path d="M1263 1173 c-7 -2 -13 -11 -13 -18 0 -7 -9 -15 -20 -18 -11 -3 -20
-10 -20 -15 0 -5 9 -12 20 -15 15 -4 20 0 20 14 0 10 7 19 15 19 8 0 15 9 15
20 0 11 -1 20 -2 19 -2 0 -9 -3 -15 -6z"/>
<path d="M2103 1160 c-3 -11 -12 -20 -19 -20 -8 0 -14 -7 -14 -15 0 -8 7 -15
15 -15 8 0 15 7 15 15 0 8 9 15 20 15 11 0 20 -7 20 -15 0 -8 7 -15 15 -15 8
0 15 7 15 15 0 8 -6 15 -14 15 -7 0 -16 9 -19 20 -3 11 -10 20 -17 20 -7 0
-14 -9 -17 -20z"/>
<path d="M431 1139 c-14 -5 -31 -7 -38 -5 -7 3 -13 -1 -13 -9 0 -8 4 -15 9
-15 19 0 71 23 71 31 0 5 -1 9 -2 8 -2 0 -14 -5 -27 -10z"/>
<path d="M582 1123 c2 -10 10 -17 16 -15 21 4 13 -35 -8 -41 -11 -3 -20 -10
-20 -16 0 -6 9 -11 20 -11 11 0 20 7 20 15 0 8 7 15 15 15 8 0 15 6 15 14 0 8
-7 16 -15 20 -8 3 -15 12 -15 21 0 8 -7 15 -16 15 -10 0 -14 -7 -12 -17z"/>
<path d="M339 1104 c-7 -9 -25 -21 -39 -26 l-25 -10 24 -16 c13 -9 31 -17 39
-17 9 0 17 -6 19 -12 3 -7 -2 -13 -11 -13 -9 0 -16 -5 -16 -11 0 -5 -5 -7 -12
-3 -7 5 -8 3 -4 -5 5 -7 15 -10 25 -7 9 4 3 -5 -13 -20 -22 -20 -26 -28 -17
-37 10 -9 14 -8 21 4 7 12 22 16 49 15 46 -2 56 -9 47 -32 -5 -12 -10 -14 -19
-5 -10 8 -19 7 -32 -3 -23 -17 -29 -86 -8 -86 10 0 12 -7 8 -20 -3 -11 -2 -20
3 -20 15 0 22 26 10 38 -5 5 -8 22 -6 38 2 23 8 29 28 29 l25 0 5 -178 c3 -97
2 -177 -2 -177 -5 0 -8 10 -9 23 0 12 -3 16 -6 10 -12 -31 -22 -7 -26 60 -3
62 -3 58 -5 -30 -2 -97 -1 -103 18 -103 14 0 20 -7 20 -21 0 -11 4 -17 10 -14
7 4 7 -3 0 -20 -8 -20 -6 -27 5 -31 21 -8 34 3 28 25 -3 10 0 22 6 25 5 4 8
13 4 21 -4 11 3 15 25 15 22 0 29 -5 28 -16 -2 -25 24 -29 31 -5 3 12 12 21
20 21 11 0 14 -6 9 -22 -3 -13 -13 -60 -22 -106 -15 -75 -16 -85 -1 -99 16
-16 38 -10 36 10 0 9 -2 9 -6 0 -2 -7 -8 -13 -13 -13 -14 0 8 62 29 82 19 17
44 18 380 18 l359 0 7 -41 c6 -35 27 -60 40 -47 3 2 -2 36 -11 74 -8 38 -18
86 -21 107 l-6 37 147 0 148 0 -2 -32 c-3 -48 -1 -55 10 -38 8 11 9 9 5 -10
-4 -19 2 -33 25 -57 56 -59 152 -73 357 -54 133 13 163 40 163 147 0 48 -4 58
-32 88 -30 31 -128 79 -113 56 3 -5 2 -10 -3 -10 -6 0 -12 7 -16 15 -7 19 -36
20 -36 1 0 -14 36 -32 52 -28 4 1 4 -6 1 -15 -4 -10 -2 -14 5 -9 6 3 14 2 17
-4 5 -8 11 -8 20 0 9 8 15 8 20 0 3 -6 10 -8 15 -5 16 10 20 -13 6 -28 -16
-15 -11 -27 10 -27 8 0 11 7 8 17 -5 15 -4 15 6 -1 10 -15 9 -20 -1 -27 -11
-7 -11 -9 -1 -9 10 0 12 -12 9 -42 -2 -25 -8 -42 -15 -41 -6 2 -9 -3 -6 -10 6
-18 -59 -40 -126 -43 -30 -2 -55 -3 -55 -4 0 -1 -19 -3 -42 -4 -26 -2 -43 2
-43 8 0 6 -5 4 -10 -4 -8 -12 -11 -13 -19 -1 -5 8 -17 11 -28 7 -12 -4 -43 4
-75 18 -55 24 -55 25 -68 85 -7 34 -19 65 -26 69 -24 14 8 55 65 85 l55 27
-140 -2 -139 -2 105 -6 c58 -3 95 -7 84 -8 -12 -1 -25 -9 -28 -18 -3 -8 -9
-13 -13 -11 -5 3 -14 -1 -20 -8 -10 -11 -9 -15 5 -18 9 -3 -22 -5 -70 -6 -79
-1 -87 1 -82 17 5 16 5 16 -9 0 -19 -24 -30 -23 -15 2 7 11 18 20 25 20 7 0
13 5 13 11 0 6 -9 9 -20 6 -11 -3 -20 -1 -20 4 0 5 10 10 23 10 16 1 18 2 5 6
-18 4 -23 25 -19 71 2 30 -7 28 -21 -5 l-11 -28 -7 30 -8 30 -1 -36 c0 -19 6
-44 14 -55 8 -10 15 -29 15 -41 l0 -23 -412 0 c-460 0 -548 5 -548 28 0 30
-15 -2 -19 -40 -1 -5 -5 -8 -11 -8 -5 0 -10 15 -10 34 0 33 2 35 38 39 l37 4
-37 1 -38 2 0 127 c0 99 -3 130 -15 143 -11 12 -13 24 -7 40 6 15 11 19 16 12
4 -7 4 -12 0 -12 -4 0 2 -8 14 -18 28 -24 38 -68 21 -89 -10 -12 -10 -15 -1
-9 9 5 12 -3 12 -29 0 -20 -3 -34 -7 -32 -5 3 -8 -21 -9 -54 -1 -43 3 -59 13
-59 9 0 13 13 13 40 0 39 0 39 58 57 39 12 84 17 143 16 l87 -2 6 41 c4 22 4
43 1 46 -3 3 -5 0 -5 -7 0 -6 -11 -24 -25 -39 -25 -27 -26 -27 -56 -9 -35 20
-66 22 -71 5 -2 -6 -24 -12 -49 -14 -24 -1 -52 -6 -61 -9 -21 -8 -22 -4 -7 44
15 50 -18 128 -61 144 -17 6 -30 14 -30 18 0 9 91 -1 113 -12 11 -7 17 -6 17
2 0 8 4 8 15 -1 10 -8 30 -11 57 -7 23 3 63 3 90 0 39 -5 46 -8 37 -19 -6 -8
-9 -14 -6 -14 3 0 1 -13 -4 -30 -6 -16 -15 -28 -19 -25 -5 3 -22 -6 -38 -20
-43 -36 -64 -33 -60 7 3 28 7 32 32 33 34 0 45 31 15 40 -10 4 -19 12 -19 18
-1 17 -40 -32 -40 -49 0 -8 -9 -23 -20 -34 -23 -23 -24 -21 -11 13 7 18 5 30
-5 46 -22 31 -43 27 -42 -10 1 -19 4 -26 9 -17 9 14 12 7 23 -44 5 -22 12 -28
34 -28 23 -1 25 -2 9 -11 -9 -5 -21 -8 -26 -4 -5 3 -13 0 -17 -6 -5 -9 1 -10
22 -5 16 4 41 10 57 13 15 3 27 10 27 15 0 5 10 2 22 -6 41 -29 77 -13 57 25
-4 8 -3 22 2 30 5 7 9 9 9 4 0 -6 9 -11 21 -11 16 0 20 5 16 23 -2 12 0 20 4
17 5 -3 9 1 9 9 0 8 -9 17 -20 20 -27 7 -26 25 2 23 11 0 23 5 26 12 3 11 -8
13 -49 11 -30 -1 -63 1 -73 6 -11 5 -30 4 -45 -1 -14 -6 -39 -7 -56 -4 -38 8
-178 5 -227 -5 l-37 -7 9 32 c5 18 14 38 20 45 13 15 0 77 -16 82 -6 2 -17 -4
-25 -13z m268 -584 c2 -18 -5 -19 -84 -19 -46 0 -95 4 -106 9 -15 6 10 9 76 9
63 1 96 5 92 11 -3 6 0 10 7 10 8 0 14 -9 15 -20z m773 10 c-10 -7 25 -10 110
-11 136 -2 122 -7 -33 -11 -87 -3 -97 -1 -97 15 0 10 7 17 18 17 14 0 15 -2 2
-10z m-60 -15 c0 -6 -114 -10 -320 -10 -213 -1 -320 3 -320 10 0 7 107 10 320
10 207 0 320 -4 320 -10z m-683 -37 c-2 -7 -17 -53 -32 -101 -15 -49 -29 -87
-30 -85 -2 2 6 47 18 101 14 68 25 97 35 97 8 0 12 -6 9 -12z m19 -5 c-3 -10
-10 -38 -16 -62 -6 -23 -14 -41 -16 -38 -6 6 25 117 32 117 3 0 3 -8 0 -17z
m678 -15 c3 -18 9 -45 12 -59 6 -25 4 -26 -27 -23 -18 2 -34 6 -36 8 -3 2 -18
0 -35 -5 -22 -6 -36 -5 -46 4 -12 9 -16 9 -19 0 -3 -7 -13 -13 -23 -13 -10 0
-20 6 -23 13 -4 10 -7 10 -18 0 -18 -18 -419 -19 -419 -1 0 9 -3 9 -12 0 -19
-19 -50 -15 -44 6 3 9 10 36 16 60 l11 42 328 0 328 0 7 -32z"/>
<path d="M970 445 c0 -8 7 -15 15 -15 8 0 15 -7 15 -15 0 -8 7 -15 15 -15 8 0
15 7 15 15 0 8 -7 15 -15 15 -8 0 -15 7 -15 15 0 8 -7 15 -15 15 -8 0 -15 -7
-15 -15z"/>
<path d="M1040 443 c0 -7 7 -13 15 -13 8 0 15 -7 15 -15 0 -8 9 -15 20 -15 11
0 20 5 20 11 0 6 -9 13 -20 16 -11 3 -20 11 -20 17 0 7 -7 13 -15 13 -8 0 -15
-6 -15 -14z"/>
<path d="M1250 444 c0 -6 -9 -14 -20 -17 -11 -3 -20 -10 -20 -16 0 -6 9 -11
20 -11 11 0 20 6 20 14 0 8 7 16 15 20 8 3 15 9 15 14 0 5 -7 9 -15 9 -8 0
-15 -6 -15 -13z"/>
<path d="M40 1085 c0 -8 -7 -15 -15 -15 -8 0 -15 -9 -15 -20 0 -11 5 -20 11
-20 6 0 13 9 16 20 3 11 12 20 19 20 8 0 14 7 14 15 0 8 -7 15 -15 15 -8 0
-15 -7 -15 -15z"/>
<path d="M417 1093 c-4 -7 0 -21 10 -33 19 -22 45 -27 41 -8 -2 6 5 14 15 16
10 2 17 -2 17 -12 0 -9 8 -16 20 -16 11 0 20 7 20 15 0 8 7 15 15 15 8 0 15 7
15 15 0 8 -7 15 -15 15 -8 0 -15 -7 -15 -15 0 -8 -9 -15 -20 -15 -11 0 -20 7
-20 15 0 8 -7 15 -15 15 -8 0 -15 -7 -15 -15 0 -21 -38 -19 -42 3 -2 12 -6 13
-11 5z"/>
<path d="M680 1085 c0 -8 -7 -15 -15 -15 -8 0 -15 -7 -15 -15 0 -8 7 -15 15
-15 8 0 15 7 15 15 0 8 7 15 15 15 8 0 15 7 15 15 0 8 -7 15 -15 15 -8 0 -15
-7 -15 -15z"/>
<path d="M750 1084 c0 -8 -7 -14 -15 -14 -8 0 -15 -9 -15 -20 0 -14 -7 -20
-21 -20 -27 0 -20 -20 10 -32 20 -7 22 -6 12 6 -10 12 -8 17 8 26 12 6 21 17
21 25 0 8 9 15 20 15 11 0 20 -7 20 -15 0 -8 7 -15 15 -15 8 0 15 7 15 15 0 8
-6 15 -14 15 -8 0 -16 5 -18 12 -6 17 -38 19 -38 2z"/>
<path d="M890 1089 c0 -6 9 -13 20 -16 11 -3 20 -12 20 -19 0 -8 7 -14 15 -14
8 0 15 7 15 15 0 8 -7 15 -15 15 -8 0 -15 7 -15 15 0 8 -9 15 -20 15 -11 0
-20 -5 -20 -11z"/>
<path d="M970 1085 c0 -8 7 -15 15 -15 8 0 15 -9 15 -20 0 -11 -7 -20 -15 -20
-22 0 -19 -27 4 -33 14 -3 17 0 14 14 -4 13 0 19 11 19 9 0 16 8 16 20 0 11
-7 20 -15 20 -8 0 -15 7 -15 15 0 8 -7 15 -15 15 -8 0 -15 -7 -15 -15z"/>
<path d="M1040 1085 c0 -8 6 -15 14 -15 7 0 16 -9 19 -21 3 -12 11 -19 18 -17
22 7 22 29 0 35 -12 3 -21 12 -21 19 0 8 -7 14 -15 14 -8 0 -15 -7 -15 -15z"/>
<path d="M1110 1085 c0 -8 7 -15 15 -15 8 0 15 -7 15 -15 0 -8 9 -15 20 -15
11 0 20 7 20 15 0 8 7 15 15 15 8 0 15 7 15 15 0 8 -7 15 -15 15 -8 0 -15 -7
-15 -15 0 -8 -9 -15 -20 -15 -11 0 -20 7 -20 15 0 8 -7 15 -15 15 -8 0 -15 -7
-15 -15z"/>
<path d="M1214 1059 c-3 -6 -2 -15 2 -19 12 -12 38 5 30 19 -9 14 -23 14 -32
0z"/>
<path d="M40 1015 c0 -8 -7 -15 -15 -15 -8 0 -15 -7 -15 -15 0 -8 7 -15 15
-15 8 0 15 7 15 15 0 23 37 18 43 -6 6 -23 27 -17 27 7 0 8 7 14 15 14 9 0 12
6 9 15 -4 8 -10 15 -16 15 -5 0 -6 -5 -3 -10 3 -6 -1 -13 -11 -17 -10 -4 -20
0 -26 10 -11 21 -38 22 -38 2z"/>
<path d="M470 1016 c0 -14 48 -32 58 -21 3 3 -2 5 -11 5 -9 0 -17 7 -17 15 0
8 -7 15 -15 15 -8 0 -15 -6 -15 -14z"/>
<path d="M2070 980 c0 -13 -7 -20 -20 -20 -11 0 -20 -7 -20 -15 0 -22 22 -18
48 9 26 28 29 46 7 46 -8 0 -15 -9 -15 -20z"/>
<path d="M2140 984 c0 -9 9 -18 20 -21 11 -3 17 -10 14 -15 -3 -5 3 -12 14
-15 11 -2 22 -13 25 -24 7 -25 27 -24 27 2 0 12 -4 17 -11 14 -6 -4 -13 2 -16
13 -2 11 -13 22 -24 25 -10 3 -19 12 -19 21 0 9 -7 16 -15 16 -8 0 -15 -7 -15
-16z"/>
<path d="M37 939 c-3 -12 -10 -18 -15 -15 -5 3 -12 -5 -14 -19 -4 -21 -3 -23
13 -14 11 5 19 16 19 24 0 8 8 15 18 15 10 0 19 7 19 15 0 23 -34 18 -40 -6z"/>
<path d="M2100 945 c0 -8 -7 -15 -15 -15 -8 0 -15 -4 -15 -9 0 -5 7 -11 15
-15 9 -3 15 0 15 9 0 8 9 15 20 15 13 0 20 -7 20 -20 0 -11 7 -20 15 -20 8 0
15 -6 15 -13 0 -26 -14 -28 -32 -5 -15 20 -19 21 -28 8 -7 -11 -5 -16 10 -18
27 -5 27 -42 0 -42 -11 0 -20 7 -20 15 0 8 -6 15 -13 15 -8 0 -14 -7 -14 -15
0 -8 6 -15 14 -15 7 0 13 -7 13 -15 0 -8 9 -15 20 -15 11 0 20 7 20 15 0 8 7
15 15 15 9 0 18 -7 21 -15 4 -8 12 -15 20 -15 22 0 16 -37 -6 -43 -11 -3 -20
-10 -20 -15 0 -5 9 -12 20 -15 23 -6 28 -37 6 -37 -17 0 -29 -27 -15 -36 10
-6 59 40 59 57 0 5 -7 9 -15 9 -8 0 -15 9 -15 20 0 11 7 20 15 20 8 0 15 6 15
14 0 8 -7 16 -15 20 -8 3 -15 12 -15 21 0 8 7 15 15 15 8 0 15 9 15 20 0 11
-7 20 -15 20 -8 0 -15 7 -15 15 0 8 -9 15 -20 15 -13 0 -20 7 -20 20 0 11 -7
20 -15 20 -8 0 -15 7 -15 15 0 8 -9 15 -20 15 -11 0 -20 -7 -20 -15z m110
-105 c0 -13 -7 -20 -20 -20 -13 0 -20 7 -20 20 0 13 7 20 20 20 13 0 20 -7 20
-20z"/>
<path d="M86 923 c-11 -12 -6 -33 8 -33 8 0 16 -7 20 -15 3 -8 11 -15 18 -15
10 0 10 2 -1 9 -11 7 -11 9 0 14 10 4 9 6 -3 6 -10 1 -18 7 -18 15 0 17 -14
28 -24 19z"/>
<path d="M235 915 l-30 -14 41 -1 c41 0 62 -18 48 -41 -3 -5 0 -9 5 -9 6 0 11
-8 11 -17 0 -14 2 -15 9 -4 5 7 7 21 6 30 -2 9 -4 19 -4 24 -1 10 -40 47 -48
46 -5 0 -21 -7 -38 -14z"/>
<path d="M40 875 c0 -8 -7 -15 -15 -15 -8 0 -15 -9 -15 -20 0 -11 7 -20 15
-20 8 0 15 -7 15 -15 0 -17 26 -20 35 -4 4 6 -2 13 -14 16 -24 6 -29 43 -6 43
8 0 15 7 15 15 0 8 -7 15 -15 15 -8 0 -15 -7 -15 -15z"/>
<path d="M80 838 c0 -10 7 -18 15 -18 8 0 15 8 15 18 0 10 -7 19 -15 19 -8 0
-15 -9 -15 -19z"/>
<path d="M2000 828 c0 -4 7 -8 15 -8 8 0 15 -7 15 -15 0 -9 -7 -18 -15 -21 -8
-4 -15 -12 -15 -20 0 -8 7 -14 15 -14 8 0 15 -7 15 -15 0 -8 9 -15 20 -15 11
0 20 5 20 11 0 6 -9 13 -20 16 -23 6 -27 43 -5 43 8 0 15 7 15 15 0 8 -7 15
-15 15 -8 0 -15 4 -15 8 0 5 -7 9 -15 9 -8 0 -15 -4 -15 -9z"/>
<path d="M1096 800 c-9 -48 -8 -52 14 -40 11 6 20 7 20 3 0 -4 -11 -13 -25
-20 -14 -6 -23 -7 -20 -3 3 5 1 11 -4 15 -6 3 -8 12 -5 19 3 8 1 17 -5 21 -6
3 -11 -2 -10 -12 1 -28 15 -58 28 -59 6 -1 16 -2 22 -3 5 0 7 -5 4 -11 -3 -5
0 -10 8 -10 10 0 13 7 10 20 -4 16 0 20 17 20 16 0 20 4 16 16 -3 9 -6 18 -6
20 0 2 -12 4 -26 4 -14 0 -22 4 -19 10 3 5 2 17 -3 26 -7 13 -10 10 -16 -16z"/>
<path d="M3 795 c4 -9 7 -23 7 -31 0 -8 7 -14 15 -14 8 0 15 -6 15 -14 0 -8 4
-18 10 -21 6 -4 7 1 3 11 -5 13 -3 15 8 10 8 -4 6 -1 -3 7 -10 8 -18 18 -18
23 0 5 -10 18 -22 28 -19 16 -20 17 -15 1z"/>
<path d="M2153 783 c-7 -2 -13 -11 -13 -19 0 -8 -9 -14 -20 -14 -11 0 -20 7
-20 15 0 8 -7 15 -15 15 -8 0 -15 -7 -15 -15 0 -8 7 -15 15 -15 8 0 15 -7 15
-15 0 -8 9 -15 20 -15 11 0 20 7 20 15 0 8 7 15 15 15 8 0 15 9 15 20 0 11 -1
20 -2 19 -2 0 -9 -3 -15 -6z"/>
<path d="M80 745 c0 -34 2 -36 17 -24 11 10 14 10 9 2 -5 -10 3 -13 32 -13 36
0 39 -2 39 -30 0 -16 -3 -27 -7 -25 -4 2 -5 -7 -2 -20 2 -14 0 -25 -6 -25 -6
0 -9 -9 -7 -20 2 -11 0 -18 -6 -15 -9 6 -14 -21 -10 -59 1 -11 -4 -23 -11 -27
-7 -5 -13 -27 -13 -49 0 -23 -1 -36 -4 -29 -3 11 -30 -62 -31 -83 0 -20 30 -5
36 17 6 25 8 25 105 25 93 0 99 -1 99 -20 0 -18 25 -39 34 -29 2 2 0 29 -5 59
-5 30 -11 78 -14 105 -3 28 -11 89 -19 138 l-13 87 49 0 c32 0 48 4 48 13 -1
29 -16 33 -115 27 l-100 -7 95 -3 c52 -2 79 -5 60 -7 -19 -3 -39 -9 -45 -14
-12 -12 -55 -12 -55 1 0 7 -6 7 -18 1 -12 -6 -30 -7 -48 -1 -16 4 -21 9 -12 9
30 2 9 27 -24 29 -17 2 -38 8 -45 14 -10 8 -13 3 -13 -27z m175 -54 c3 -5 12
-59 20 -120 8 -60 17 -122 21 -136 l6 -25 -82 0 c-74 0 -81 2 -75 18 17 44 65
228 65 249 0 16 6 23 19 23 11 0 22 -4 26 -9z m44 -88 c12 -74 23 -199 17
-193 -4 4 -16 81 -41 260 -8 58 12 0 24 -67z m31 -211 c0 -4 -21 -6 -47 -4
-76 5 -83 10 -15 11 34 0 62 -2 62 -7z"/>
<path d="M1480 760 c0 -13 161 -12 181 1 9 5 -23 9 -83 9 -60 0 -98 -4 -98
-10z"/>
<path d="M1457 731 c4 -18 14 -19 126 -19 67 -1 116 2 109 4 -6 3 -9 10 -6 16
4 7 0 7 -12 0 -24 -12 -193 -5 -210 9 -9 8 -11 5 -7 -10z"/>
<path d="M1146 713 c-3 -10 -9 -24 -12 -30 -4 -9 5 -13 31 -13 22 0 34 4 30
10 -4 6 -11 7 -17 4 -7 -4 -8 -2 -4 4 10 16 31 15 46 -3 7 -8 16 -12 22 -9 15
10 -12 34 -39 34 -14 0 -21 4 -18 10 3 6 -3 10 -13 10 -11 0 -22 -8 -26 -17z"/>
<path d="M10 695 c0 -8 6 -15 14 -15 7 0 16 -9 19 -20 3 -11 10 -20 16 -20 6
0 11 9 11 20 0 11 -7 20 -15 20 -8 0 -15 7 -15 15 0 8 -7 15 -15 15 -8 0 -15
-7 -15 -15z"/>
<path d="M2140 695 c0 -9 -9 -15 -21 -15 -15 0 -19 -5 -15 -15 3 -9 -3 -19
-15 -25 -11 -6 -17 -15 -14 -21 9 -14 25 -11 25 6 0 8 9 15 20 15 11 0 20 -7
20 -15 0 -8 -5 -15 -12 -15 -6 0 -9 -2 -7 -5 3 -2 15 -2 27 2 27 7 29 29 2 36
-23 6 -17 37 6 37 8 0 14 7 14 15 0 8 -7 15 -15 15 -8 0 -15 -7 -15 -15z"/>
<path d="M349 678 c0 -7 -2 -40 -5 -73 -3 -32 -2 -57 1 -54 9 10 22 139 13
139 -4 0 -8 -6 -9 -12z"/>
<path d="M10 625 c0 -8 6 -15 14 -15 7 0 16 -9 19 -20 3 -11 12 -20 21 -20 9
0 16 -7 16 -15 0 -8 7 -15 15 -15 23 0 18 27 -6 33 -12 3 -18 10 -14 17 4 7
-2 14 -14 17 -12 3 -21 12 -21 19 0 8 -7 14 -15 14 -8 0 -15 -7 -15 -15z"/>
<path d="M2210 625 c0 -9 -7 -18 -15 -21 -8 -4 -15 -10 -15 -15 0 -5 7 -9 15
-9 8 0 15 7 15 15 0 8 7 15 15 15 8 0 15 7 15 15 0 8 -7 15 -15 15 -8 0 -15
-7 -15 -15z"/>
<path d="M1955 580 c0 -8 6 -14 12 -13 14 3 29 -15 36 -42 3 -11 5 -3 4 17 -1
20 -4 35 -8 32 -4 -2 -10 2 -12 8 -4 10 -8 10 -15 -1 -9 -12 -11 -12 -14 0 -4
11 -5 10 -3 -1z"/>
<path d="M1926 560 c10 -54 26 -83 18 -35 -3 22 -10 47 -15 55 -7 10 -8 4 -3
-20z"/>
<path d="M2030 544 c6 -14 10 -36 10 -48 0 -18 5 -23 23 -21 12 1 32 3 45 4
12 0 22 5 22 11 0 5 -17 7 -40 4 l-40 -6 0 35 c0 21 -6 37 -15 40 -11 5 -12 1
-5 -19z"/>
<path d="M1850 535 c0 -29 -23 -43 -65 -39 l-40 3 40 -9 c67 -16 135 -21 135
-10 0 5 -16 10 -35 10 -33 0 -34 1 -28 30 3 17 3 30 -1 30 -3 0 -6 -7 -6 -15z"/>
<path d="M43 520 c-3 -11 -12 -20 -19 -20 -8 0 -14 -7 -14 -15 0 -8 7 -15 15
-15 8 0 15 6 15 14 0 7 9 16 20 19 13 3 18 10 14 21 -8 22 -25 20 -31 -4z"/>
<path d="M1978 483 c12 -2 22 -11 22 -20 0 -21 25 -10 27 13 3 19 3 19 -5 0
-8 -18 -9 -18 -15 -3 -4 10 -16 16 -29 16 l-23 -2 23 -4z"/>
<path d="M40 445 c0 -8 -7 -15 -15 -15 -17 0 -20 -26 -4 -35 6 -4 13 2 16 14
3 12 12 21 19 21 8 0 14 7 14 15 0 8 -7 15 -15 15 -8 0 -15 -7 -15 -15z"/>
<path d="M1460 445 c0 -8 -7 -15 -15 -15 -8 0 -15 -7 -15 -15 0 -8 7 -15 15
-15 8 0 15 7 15 15 0 8 9 15 20 15 11 0 20 -6 20 -14 0 -8 7 -16 15 -20 10 -4
15 1 15 14 0 13 7 20 20 20 11 0 20 -6 20 -14 0 -8 7 -16 15 -20 10 -4 15 1
15 14 0 11 -7 20 -15 20 -8 0 -15 6 -15 14 0 17 -32 15 -38 -2 -5 -17 -32 -15
-32 3 0 8 -9 15 -20 15 -11 0 -20 -7 -20 -15z"/>
<path d="M40 375 c0 -8 -7 -15 -15 -15 -8 0 -15 -7 -15 -15 0 -8 7 -15 15 -15
8 0 15 7 15 15 0 8 7 15 15 15 8 0 15 7 15 15 0 8 -7 15 -15 15 -8 0 -15 -7
-15 -15z"/>
<path d="M470 375 c0 -8 6 -15 14 -15 8 0 18 -10 21 -21 l7 -21 22 23 c23 24
30 49 14 49 -4 0 -8 -7 -8 -15 0 -8 -9 -15 -20 -15 -11 0 -20 7 -20 15 0 8 -7
15 -15 15 -8 0 -15 -7 -15 -15z"/>
<path d="M1610 375 c0 -8 7 -15 15 -15 8 0 15 -7 15 -15 0 -8 7 -15 15 -15 8
0 15 7 15 15 0 8 -7 15 -15 15 -8 0 -15 7 -15 15 0 8 -7 15 -15 15 -8 0 -15
-7 -15 -15z"/>
<path d="M434 349 c-3 -6 -2 -15 2 -19 12 -12 38 5 30 19 -9 14 -23 14 -32 0z"/>
<path d="M1430 339 c0 -24 23 -21 28 4 2 10 -3 17 -12 17 -10 0 -16 -9 -16
-21z"/>
<path d="M380 338 c0 -10 5 -18 10 -18 6 0 10 -6 10 -14 0 -7 9 -16 21 -19 12
-3 18 -10 15 -16 -4 -5 3 -12 14 -16 26 -8 26 -35 0 -35 -11 0 -20 7 -20 15 0
8 -7 15 -15 15 -8 0 -15 -7 -15 -15 0 -8 7 -15 15 -15 8 0 15 -7 15 -16 0 -9
9 -18 20 -21 11 -3 20 -11 20 -18 0 -8 -9 -17 -20 -20 -11 -3 -20 -13 -20 -21
0 -8 -7 -14 -15 -14 -17 0 -20 -26 -4 -35 6 -4 13 2 16 14 3 12 12 21 20 21 8
0 17 9 20 20 3 11 12 20 19 20 8 0 14 7 14 15 0 8 9 15 20 15 11 0 20 -7 20
-15 0 -8 7 -15 15 -15 8 0 15 -9 15 -20 0 -11 -7 -20 -15 -20 -8 0 -15 7 -15
15 0 8 -9 15 -20 15 -11 0 -20 -7 -20 -15 0 -8 -7 -15 -15 -15 -8 0 -15 -9
-15 -20 0 -13 -7 -20 -18 -20 -10 0 -19 -7 -19 -15 0 -8 9 -15 19 -15 10 0 18
-7 18 -15 0 -8 7 -15 15 -15 8 0 15 7 15 15 0 8 -7 15 -15 15 -8 0 -15 7 -15
15 0 9 7 18 15 21 8 4 15 12 15 20 0 8 9 14 20 14 11 0 20 -7 20 -15 0 -8 7
-15 15 -15 8 0 15 7 15 15 0 8 9 15 20 15 11 0 20 -7 20 -15 0 -8 9 -15 20
-15 13 0 18 5 14 15 -4 8 -12 15 -20 15 -8 0 -14 6 -14 14 0 8 -9 18 -20 21
-11 3 -20 13 -20 21 0 8 -6 14 -14 14 -7 0 -16 9 -19 20 -3 11 -10 20 -17 20
-7 0 -14 -9 -17 -20 -3 -11 -12 -20 -19 -20 -8 0 -14 9 -14 20 0 11 7 20 15
20 8 0 15 7 15 15 0 8 -7 15 -15 15 -8 0 -15 6 -15 14 0 8 -9 18 -20 21 -11 3
-20 13 -20 21 0 8 -7 14 -15 14 -7 0 -19 8 -24 18 -10 16 -10 16 -11 0z"/>
<path d="M40 305 c0 -8 -7 -15 -15 -15 -17 0 -20 -26 -4 -35 6 -4 13 2 16 14
3 12 12 21 19 21 8 0 14 7 14 15 0 8 -7 15 -15 15 -8 0 -15 -7 -15 -15z"/>
<path d="M114 305 c-4 -8 -12 -15 -20 -15 -8 0 -14 -9 -14 -20 0 -13 -7 -20
-20 -20 -11 0 -20 -7 -20 -15 0 -8 -7 -15 -15 -15 -8 0 -15 -9 -15 -20 0 -11
7 -20 15 -20 8 0 15 -7 15 -15 0 -8 7 -15 15 -15 8 0 15 7 15 15 0 8 -7 15
-15 15 -8 0 -15 9 -15 20 0 11 6 20 13 20 15 0 57 44 57 59 0 6 9 11 20 11 13
0 20 -7 20 -20 0 -13 -7 -20 -20 -20 -11 0 -20 -7 -20 -15 0 -8 -7 -15 -15
-15 -22 0 -18 -26 7 -42 l22 -15 -22 -12 c-25 -13 -30 -41 -7 -41 8 0 15 -9
15 -20 0 -11 -7 -20 -15 -20 -8 0 -15 -7 -15 -15 0 -8 7 -15 15 -15 8 0 15 -7
15 -15 0 -8 9 -15 20 -15 11 0 20 5 20 11 0 6 -9 13 -20 16 -11 3 -20 12 -20
20 0 8 9 17 20 20 11 3 20 12 20 19 0 8 7 14 15 14 8 0 15 -7 15 -15 0 -8 9
-15 20 -15 11 0 20 7 20 15 0 8 7 15 15 15 19 0 19 26 0 34 -19 7 -19 36 0 36
8 0 15 9 15 20 0 11 -5 20 -11 20 -6 0 -13 -9 -16 -20 -6 -23 -43 -27 -43 -5
0 9 -7 18 -15 21 -8 4 -15 12 -15 20 0 8 7 14 15 14 8 0 15 -7 15 -15 0 -8 9
-15 20 -15 11 0 20 7 20 15 0 8 7 15 15 15 9 0 18 -7 21 -15 4 -8 12 -15 20
-15 22 0 16 -37 -7 -43 -23 -6 -17 -27 7 -27 22 0 17 -37 -6 -43 -11 -3 -20
-10 -20 -15 0 -5 9 -12 20 -15 23 -6 28 -37 6 -37 -8 0 -16 -7 -20 -15 -8 -21
23 -19 40 3 13 16 15 16 28 -1 16 -21 36 -22 36 -2 0 8 -9 15 -19 15 -13 0
-18 6 -16 18 1 9 8 16 15 14 6 -1 14 6 17 17 3 10 13 21 24 24 25 7 24 27 -1
27 -11 0 -20 -7 -20 -15 0 -8 -6 -15 -14 -15 -7 0 -16 -9 -19 -20 -7 -26 -37
-26 -37 0 0 11 7 20 15 20 8 0 15 7 15 15 0 9 -7 18 -15 21 -19 8 -19 34 0 34
8 0 15 7 15 15 0 9 -7 18 -15 21 -8 4 -15 12 -15 20 0 8 7 14 15 14 8 0 15 9
15 20 0 30 -20 24 -31 -10 -9 -25 -13 -28 -25 -16 -8 8 -14 22 -14 30 0 9 -7
16 -15 16 -8 0 -15 7 -15 15 0 8 -9 15 -20 15 -11 0 -20 -7 -20 -15 0 -19 -26
-19 -34 0 -3 8 -10 15 -16 15 -6 0 -13 -7 -16 -15z m106 -35 c0 -13 -7 -20
-20 -20 -13 0 -20 7 -20 20 0 13 7 20 20 20 13 0 20 -7 20 -20z m-70 -70 c0
-11 7 -20 15 -20 17 0 20 -26 4 -35 -6 -4 -13 2 -16 14 -3 12 -13 21 -24 21
-12 0 -19 7 -19 20 0 13 7 20 20 20 13 0 20 -7 20 -20z m0 -70 c0 -13 -7 -20
-20 -20 -13 0 -20 7 -20 20 0 13 7 20 20 20 13 0 20 -7 20 -20z m70 0 c0 -13
-7 -20 -20 -20 -13 0 -20 7 -20 20 0 13 7 20 20 20 13 0 20 -7 20 -20z"/>
<path d="M470 305 c0 -8 7 -15 15 -15 8 0 15 -6 15 -14 0 -8 9 -18 20 -21 11
-3 20 -13 20 -21 0 -8 7 -14 15 -14 8 0 15 7 15 15 0 8 -6 15 -14 15 -8 0 -18
9 -21 20 -3 11 -13 20 -21 20 -8 0 -14 7 -14 15 0 8 -7 15 -15 15 -8 0 -15 -7
-15 -15z"/>
<path d="M680 304 c0 -13 -7 -15 -32 -10 -26 4 -29 3 -15 -5 9 -5 17 -17 17
-24 0 -22 21 -18 27 5 3 11 14 20 24 20 12 0 19 -7 19 -20 0 -11 7 -20 15 -20
8 0 15 -7 15 -15 0 -8 -7 -15 -15 -15 -8 0 -15 -7 -15 -15 0 -9 7 -18 15 -21
8 -4 15 -12 15 -19 0 -7 -7 -15 -15 -19 -8 -3 -15 -12 -15 -21 0 -8 7 -15 15
-15 8 0 15 -9 15 -20 0 -11 -7 -20 -15 -20 -8 0 -15 -7 -15 -15 0 -8 7 -15 15
-15 8 0 15 -7 15 -15 0 -8 9 -15 20 -15 11 0 20 5 20 11 0 6 -9 13 -20 16 -11
3 -20 11 -20 18 0 8 9 17 20 20 11 3 20 13 20 21 0 8 7 14 15 14 8 0 15 -7 15
-15 0 -8 9 -15 20 -15 11 0 20 7 20 15 0 8 7 15 15 15 8 0 15 6 15 14 0 8 -7
16 -15 20 -8 3 -15 12 -15 21 0 8 7 15 15 15 8 0 15 9 15 20 0 11 -5 20 -11
20 -6 0 -13 -9 -16 -20 -6 -23 -43 -27 -43 -5 0 9 -7 18 -15 21 -8 4 -15 12
-15 20 0 8 -9 14 -20 14 -11 0 -20 7 -20 15 0 8 -9 19 -20 25 -11 6 -18 15
-15 21 4 5 -3 9 -14 9 -13 0 -21 -7 -21 -16z m110 -104 c0 -13 -7 -20 -20 -20
-13 0 -20 7 -20 20 0 13 7 20 20 20 13 0 20 -7 20 -20z m30 -35 c0 -9 -7 -18
-15 -21 -8 -4 -15 -12 -15 -20 0 -8 -9 -14 -20 -14 -13 0 -20 7 -20 20 0 11 7
20 15 20 9 0 18 7 21 15 8 20 34 19 34 0z m40 -35 c0 -13 -7 -20 -20 -20 -13
0 -20 7 -20 20 0 13 7 20 20 20 13 0 20 -7 20 -20z"/>
<path d="M820 305 c0 -8 -7 -15 -15 -15 -8 0 -15 -7 -15 -15 0 -9 7 -18 15
-21 8 -4 15 -12 15 -20 0 -8 9 -14 20 -14 11 0 20 7 20 15 0 8 7 15 15 15 9 0
18 -7 21 -15 4 -8 12 -15 20 -15 22 0 16 -37 -7 -43 -23 -6 -17 -27 7 -27 22
0 17 -37 -6 -43 -11 -3 -20 -10 -20 -16 0 -6 9 -11 20 -11 11 0 20 7 20 15 0
8 7 15 15 15 19 0 19 29 0 36 -8 4 -15 12 -15 20 0 8 7 14 15 14 8 0 15 9 15
20 0 11 -7 20 -15 20 -8 0 -15 7 -15 15 0 8 -9 15 -20 15 -13 0 -20 7 -20 20
0 11 -7 20 -15 20 -8 0 -15 7 -15 15 0 8 -9 15 -20 15 -11 0 -20 -7 -20 -15z
m40 -35 c0 -13 -7 -20 -20 -20 -13 0 -20 7 -20 20 0 13 7 20 20 20 13 0 20 -7
20 -20z"/>
<path d="M970 305 c0 -8 6 -15 14 -15 7 0 16 -9 19 -21 3 -12 10 -18 16 -14
16 9 13 35 -4 35 -8 0 -15 7 -15 15 0 8 -7 15 -15 15 -8 0 -15 -7 -15 -15z"/>
<path d="M1040 305 c0 -8 7 -15 15 -15 8 0 15 -9 15 -20 0 -11 -7 -20 -15 -20
-8 0 -15 -7 -15 -15 0 -8 7 -15 15 -15 8 0 15 -9 15 -20 0 -11 -7 -20 -15 -20
-8 0 -15 -7 -15 -15 0 -8 7 -15 15 -15 8 0 15 6 15 14 0 7 9 16 20 19 26 7 26
27 0 34 -23 6 -23 38 -1 38 23 0 24 23 2 30 -12 3 -21 13 -21 21 0 8 -7 14
-15 14 -8 0 -15 -7 -15 -15z"/>
<path d="M1110 305 c0 -8 6 -15 14 -15 7 0 16 -9 19 -20 3 -11 10 -20 17 -20
7 0 14 9 17 20 3 11 12 20 19 20 8 0 14 7 14 15 0 8 -7 15 -15 15 -8 0 -15 -7
-15 -15 0 -8 -9 -15 -20 -15 -11 0 -20 7 -20 15 0 8 -7 15 -15 15 -8 0 -15 -7
-15 -15z"/>
<path d="M1250 306 c0 -7 -9 -16 -20 -19 -23 -6 -17 -37 6 -37 8 0 14 -7 14
-15 0 -8 -9 -15 -20 -15 -11 0 -20 7 -20 15 0 8 -7 15 -15 15 -8 0 -15 -7 -15
-15 0 -8 6 -15 14 -15 8 0 18 -9 21 -20 3 -11 13 -20 21 -20 8 0 14 -7 14 -15
0 -8 7 -15 15 -15 8 0 15 7 15 15 0 8 -7 15 -15 15 -8 0 -15 9 -15 20 0 11 7
20 15 20 8 0 15 7 15 15 0 8 -7 15 -15 15 -8 0 -15 9 -15 20 0 11 7 20 15 20
8 0 15 7 15 15 0 8 -7 15 -15 15 -8 0 -15 -6 -15 -14z"/>
<path d="M1320 306 c0 -7 -9 -16 -20 -19 -13 -3 -18 -10 -14 -21 8 -22 25 -20
31 4 3 11 13 20 22 21 10 0 11 2 3 6 -6 2 -10 9 -6 14 3 5 0 9 -5 9 -6 0 -11
-6 -11 -14z"/>
<path d="M1460 305 c0 -8 -6 -15 -14 -15 -8 0 -16 -10 -18 -22 -2 -15 -9 -22
-21 -22 -9 1 -17 -4 -17 -12 0 -8 -7 -14 -15 -14 -8 0 -15 -9 -15 -20 0 -11 7
-20 15 -20 8 0 15 -6 15 -14 0 -8 -7 -16 -15 -20 -8 -3 -15 -12 -15 -21 0 -8
7 -15 15 -15 8 0 15 -9 15 -20 0 -11 -7 -20 -15 -20 -21 0 -19 -16 5 -40 24
-24 52 -27 44 -5 -4 8 -12 15 -20 15 -22 0 -17 31 6 37 11 3 20 10 20 15 0 5
-9 12 -20 15 -23 6 -27 43 -5 43 9 0 18 7 21 15 4 8 12 15 20 15 19 0 18 -29
-1 -36 -8 -4 -15 -12 -15 -20 0 -8 7 -14 15 -14 8 0 15 -7 15 -15 0 -8 9 -15
20 -15 11 0 20 7 20 15 0 8 7 15 15 15 8 0 15 -6 15 -14 0 -7 9 -16 20 -19 23
-6 28 -37 6 -37 -8 0 -16 -7 -20 -15 -8 -22 20 -19 44 5 24 24 26 40 5 40 -8
0 -15 9 -15 20 0 11 7 20 15 20 8 0 15 7 15 15 0 9 -7 18 -15 21 -8 4 -15 12
-15 20 0 16 -26 19 -35 3 -4 -6 2 -13 14 -16 28 -7 28 -43 1 -43 -11 0 -20 6
-20 14 0 8 -7 16 -15 20 -8 3 -15 12 -15 21 0 8 7 15 15 15 8 0 15 9 15 20 0
11 -5 20 -11 20 -6 0 -13 -9 -16 -20 -6 -23 -43 -27 -43 -5 0 9 -7 18 -15 21
-8 4 -15 12 -15 20 0 8 7 14 15 14 8 0 15 -7 15 -15 0 -8 9 -15 20 -15 11 0
20 7 20 15 0 8 6 15 14 15 8 0 16 -7 20 -15 3 -8 12 -15 20 -15 7 0 16 -9 19
-20 7 -26 27 -26 27 1 0 11 -5 17 -10 14 -6 -3 -14 4 -19 17 -4 13 -11 22 -15
21 -17 -7 -26 -1 -26 17 0 11 -7 20 -15 20 -8 0 -15 7 -15 15 0 8 -9 15 -20
15 -11 0 -20 -7 -20 -15z m40 -35 c0 -13 -7 -20 -20 -20 -13 0 -20 7 -20 20 0
13 7 20 20 20 13 0 20 -7 20 -20z m-70 -70 c0 -13 -7 -20 -20 -20 -13 0 -20 7
-20 20 0 13 7 20 20 20 13 0 20 -7 20 -20z m70 -70 c0 -13 -7 -20 -20 -20 -13
0 -20 7 -20 20 0 13 7 20 20 20 13 0 20 -7 20 -20z"/>
<path d="M1535 309 c-4 -6 2 -13 13 -16 11 -2 22 -13 25 -24 7 -25 27 -24 27
1 0 11 -7 20 -15 20 -8 0 -15 7 -15 15 0 17 -26 20 -35 4z"/>
<path d="M1606 305 c4 -8 12 -15 19 -15 7 0 15 -9 18 -20 6 -24 23 -26 31 -4
4 11 -1 18 -14 21 -11 3 -20 12 -20 19 0 8 -9 14 -20 14 -13 0 -18 -5 -14 -15z"/>
<path d="M1680 305 c0 -8 7 -15 15 -15 8 0 15 -6 15 -14 0 -17 27 -29 35 -16
8 14 -3 30 -21 30 -8 0 -14 7 -14 15 0 8 -7 15 -15 15 -8 0 -15 -7 -15 -15z"/>
<path d="M2194 312 c2 -4 -9 -14 -25 -21 -16 -7 -29 -19 -29 -27 0 -8 -9 -14
-20 -14 -11 0 -20 7 -20 15 0 9 -6 12 -16 8 -16 -6 -16 -7 0 -18 9 -7 16 -17
16 -24 0 -6 9 -11 20 -11 11 0 20 7 20 15 0 8 7 15 15 15 8 0 15 -6 15 -14 0
-8 -7 -16 -15 -20 -8 -3 -15 -12 -15 -21 0 -8 -9 -15 -20 -15 -11 0 -20 6 -20
14 0 8 -7 16 -15 20 -10 4 -15 -1 -15 -14 0 -11 -5 -20 -11 -20 -15 0 -59 -42
-59 -57 0 -7 7 -13 15 -13 8 0 15 -9 15 -20 0 -11 -7 -20 -15 -20 -21 0 -19
-16 5 -40 24 -24 52 -27 44 -5 -4 8 -12 15 -20 15 -22 0 -17 31 6 37 11 3 20
10 20 15 0 5 -9 12 -20 15 -23 6 -27 43 -5 43 9 0 18 7 21 15 4 8 12 15 20 15
19 0 18 -29 -1 -36 -8 -4 -15 -12 -15 -20 0 -8 7 -14 15 -14 8 0 15 -7 15 -15
0 -8 9 -15 20 -15 11 0 20 7 20 15 0 8 7 15 15 15 8 0 15 -6 15 -14 0 -7 9
-16 20 -19 23 -6 28 -37 6 -37 -8 0 -16 -7 -20 -15 -8 -22 20 -19 44 5 24 24
26 40 5 40 -8 0 -15 9 -15 20 0 11 7 20 15 20 8 0 15 7 15 15 0 9 -7 18 -15
21 -8 4 -15 12 -15 20 0 8 7 14 15 14 8 0 15 9 15 20 0 11 -7 20 -15 20 -8 0
-15 7 -15 15 0 8 -3 14 -7 14 -23 -4 -33 3 -33 21 0 13 7 20 20 20 11 0 20 -6
20 -14 0 -8 7 -16 15 -20 10 -4 15 1 15 14 0 11 -7 20 -15 20 -8 0 -15 7 -15
15 0 8 -5 15 -11 15 -5 0 -8 -4 -5 -8z m16 -112 c0 -13 -7 -20 -20 -20 -13 0
-20 7 -20 20 0 13 7 20 20 20 13 0 20 -7 20 -20z m-36 -35 c3 -8 12 -15 21
-15 8 0 15 -9 15 -20 0 -13 -7 -20 -20 -20 -11 0 -20 6 -20 14 0 8 -7 16 -15
20 -19 7 -20 36 -1 36 8 0 16 -7 20 -15z m-34 -35 c0 -13 -7 -20 -20 -20 -13
0 -20 7 -20 20 0 13 7 20 20 20 13 0 20 -7 20 -20z"/>
<path d="M2000 265 c0 -8 5 -14 12 -12 6 1 14 -6 16 -15 2 -11 -2 -18 -12 -18
-9 0 -16 -8 -16 -20 0 -11 7 -20 15 -20 8 0 15 8 15 19 0 10 9 21 20 24 11 3
20 10 20 16 0 6 -9 11 -20 11 -11 0 -20 4 -20 9 0 5 -7 11 -15 15 -9 3 -15 0
-15 -9z"/>
<path d="M1930 260 c0 -5 5 -9 12 -7 6 1 14 -6 16 -15 2 -11 -2 -18 -11 -18
-24 0 -30 -31 -7 -37 27 -7 25 -21 -6 -49 -29 -27 -44 -31 -44 -10 0 8 -9 18
-20 21 -11 3 -20 13 -20 21 0 8 -7 14 -15 14 -8 0 -15 7 -15 15 0 8 -9 15 -20
15 -11 0 -20 -7 -20 -15 0 -8 -7 -15 -15 -15 -8 0 -15 -6 -15 -14 0 -8 -9 -18
-20 -21 -11 -3 -20 -13 -20 -21 0 -8 -7 -14 -15 -14 -8 0 -15 -7 -15 -15 0 -8
7 -15 15 -15 8 0 15 6 15 14 0 7 9 16 20 19 11 3 20 12 20 21 0 9 7 16 15 16
8 0 15 7 15 15 0 8 9 15 20 15 11 0 20 -7 20 -15 0 -8 7 -15 15 -15 8 0 15 -7
15 -16 0 -9 9 -18 20 -21 11 -3 20 -12 20 -19 0 -8 7 -14 15 -14 8 0 15 7 15
15 0 22 37 18 43 -5 3 -11 10 -20 16 -20 6 0 11 9 11 20 0 11 -7 20 -15 20 -8
0 -15 9 -15 20 0 11 7 20 15 20 8 0 15 7 15 15 0 8 -7 15 -15 15 -8 0 -15 9
-15 20 0 11 7 20 15 20 8 0 15 7 15 15 0 8 -7 15 -15 15 -8 0 -15 5 -15 10 0
6 -7 10 -15 10 -8 0 -15 -4 -15 -10z"/>
<path d="M610 236 c0 -8 -9 -17 -19 -21 -22 -7 -18 -35 5 -35 8 0 14 -7 14
-15 0 -8 7 -15 15 -15 8 0 15 7 15 15 0 8 -7 15 -15 15 -8 0 -15 9 -15 20 0
11 7 20 15 20 8 0 15 7 15 15 0 8 -7 15 -15 15 -8 0 -15 -6 -15 -14z"/>
<path d="M680 235 c0 -8 -6 -15 -14 -15 -23 0 -29 -31 -6 -37 11 -3 20 -12 20
-19 0 -16 26 -19 35 -3 4 6 -2 13 -14 16 -24 6 -29 43 -6 43 8 0 15 7 15 15 0
8 -7 15 -15 15 -8 0 -15 -7 -15 -15z"/>
<path d="M970 235 c0 -8 7 -15 15 -15 8 0 15 -9 15 -20 0 -11 -7 -20 -15 -20
-8 0 -15 -7 -15 -15 0 -8 7 -15 15 -15 8 0 15 7 15 15 0 8 7 15 15 15 8 0 15
9 15 20 0 11 -7 20 -15 20 -8 0 -15 7 -15 15 0 8 -7 15 -15 15 -8 0 -15 -7
-15 -15z"/>
<path d="M1320 235 c0 -8 -6 -15 -14 -15 -23 0 -29 -31 -6 -37 11 -3 20 -12
20 -19 0 -8 7 -14 15 -14 8 0 15 7 15 15 0 8 -7 15 -15 15 -8 0 -15 9 -15 20
0 11 7 20 15 20 8 0 15 7 15 15 0 8 -7 15 -15 15 -8 0 -15 -7 -15 -15z"/>
<path d="M1610 235 c0 -8 7 -15 15 -15 8 0 15 -9 15 -20 0 -11 -7 -20 -15 -20
-8 0 -15 -7 -15 -15 0 -8 7 -15 15 -15 8 0 15 6 15 14 0 7 9 16 20 19 23 6 17
37 -6 37 -8 0 -14 7 -14 15 0 8 -7 15 -15 15 -8 0 -15 -7 -15 -15z"/>
<path d="M1680 235 c0 -8 7 -15 15 -15 8 0 15 -9 15 -20 0 -11 -7 -20 -15 -20
-8 0 -15 -7 -15 -15 0 -8 7 -15 15 -15 8 0 15 6 15 14 0 7 9 16 20 19 11 3 20
10 20 15 0 6 -9 14 -20 17 -11 3 -20 13 -20 21 0 8 -7 14 -15 14 -8 0 -15 -7
-15 -15z"/>
<path d="M1887 230 c-3 -11 -10 -19 -15 -18 -6 2 -10 0 -11 -4 -3 -22 0 -28
14 -28 8 0 15 -7 15 -15 0 -8 7 -15 15 -15 8 0 15 7 15 15 0 8 -7 15 -15 15
-8 0 -15 9 -15 20 0 11 7 20 15 20 8 0 15 7 15 15 0 22 -27 18 -33 -5z"/>
<path d="M363 200 c-3 -11 -12 -20 -19 -20 -8 0 -14 -7 -14 -15 0 -8 7 -15 15
-15 8 0 15 6 15 14 0 7 9 16 20 19 13 3 18 10 14 21 -8 22 -25 20 -31 -4z"/>
<path d="M1143 200 c-3 -11 -12 -20 -19 -20 -8 0 -14 -6 -14 -14 0 -8 -9 -18
-20 -21 -11 -3 -20 -13 -20 -21 0 -8 -7 -14 -15 -14 -8 0 -15 -7 -15 -15 0 -8
7 -15 15 -15 8 0 15 7 15 15 0 8 7 15 16 15 9 0 18 9 21 20 3 11 12 20 19 20
8 0 14 7 14 15 0 8 9 15 20 15 11 0 20 -7 20 -15 0 -8 7 -15 15 -15 8 0 15 -9
15 -20 0 -11 -7 -20 -15 -20 -8 0 -15 7 -15 15 0 8 -9 15 -20 15 -11 0 -20 -7
-20 -15 0 -8 -7 -15 -15 -15 -8 0 -15 -9 -15 -20 0 -13 -7 -20 -18 -20 -10 0
-19 -7 -19 -15 0 -8 9 -15 19 -15 10 0 18 -7 18 -15 0 -8 7 -15 15 -15 8 0 15
7 15 15 0 8 -7 15 -15 15 -8 0 -15 7 -15 15 0 9 7 18 15 21 8 4 15 12 15 20 0
8 9 14 20 14 11 0 20 -6 20 -14 0 -8 7 -16 15 -20 10 -4 15 1 15 14 0 13 7 20
20 20 11 0 20 -6 20 -14 0 -8 7 -16 15 -20 10 -4 15 1 15 14 0 11 -7 20 -15
20 -8 0 -15 6 -15 14 0 8 -9 18 -20 21 -11 3 -20 13 -20 21 0 8 -6 14 -14 14
-7 0 -16 9 -19 20 -3 11 -10 20 -17 20 -7 0 -14 -9 -17 -20z"/>
<path d="M10 125 c0 -8 6 -15 14 -15 7 0 16 -9 19 -21 3 -12 10 -18 16 -14 16
9 13 35 -4 35 -8 0 -15 7 -15 15 0 8 -7 15 -15 15 -8 0 -15 -7 -15 -15z"/>
<path d="M650 125 c0 -8 6 -15 14 -15 7 0 16 -9 19 -21 3 -12 10 -18 16 -14
16 9 13 35 -4 35 -8 0 -15 7 -15 15 0 8 -7 15 -15 15 -8 0 -15 -7 -15 -15z"/>
<path d="M1000 125 c0 -8 -7 -15 -15 -15 -8 0 -15 -9 -15 -20 0 -25 20 -26 27
-1 3 11 13 21 24 24 25 7 24 27 -1 27 -11 0 -20 -7 -20 -15z"/>
<path d="M1290 125 c0 -8 6 -15 14 -15 7 0 16 -9 19 -21 3 -12 10 -18 16 -14
16 9 13 35 -4 35 -8 0 -15 7 -15 15 0 8 -7 15 -15 15 -8 0 -15 -7 -15 -15z"/>
<path d="M1640 125 c0 -8 -7 -15 -15 -15 -17 0 -20 -26 -4 -35 6 -4 13 2 16
14 3 12 12 21 19 21 8 0 14 7 14 15 0 8 -7 15 -15 15 -8 0 -15 -7 -15 -15z"/>
<path d="M1780 125 c0 -8 -7 -15 -15 -15 -8 0 -15 -9 -15 -20 0 -13 5 -18 15
-14 8 4 15 12 15 20 0 8 9 14 20 14 11 0 20 -6 20 -14 0 -8 7 -16 15 -20 10
-4 15 1 15 14 0 11 -7 20 -15 20 -8 0 -15 7 -15 15 0 8 -9 15 -20 15 -11 0
-20 -7 -20 -15z"/>
<path d="M10 55 c0 -8 7 -15 15 -15 8 0 15 -7 15 -15 0 -8 7 -15 15 -15 8 0
15 7 15 15 0 8 -7 15 -15 15 -8 0 -15 7 -15 15 0 8 -7 15 -15 15 -8 0 -15 -7
-15 -15z"/>
<path d="M150 55 c0 -8 5 -15 11 -15 7 0 18 -8 25 -17 13 -17 15 -17 28 0 7 9
18 17 25 17 6 0 11 7 11 15 0 8 -7 15 -15 15 -8 0 -15 -7 -15 -15 0 -8 -9 -15
-20 -15 -11 0 -20 7 -20 15 0 8 -7 15 -15 15 -8 0 -15 -7 -15 -15z"/>
<path d="M360 59 c0 -6 9 -13 20 -16 11 -3 20 -12 20 -19 0 -8 7 -14 15 -14
21 0 19 9 -11 36 -27 26 -44 31 -44 13z"/>
<path d="M579 63 c-1 -5 -1 -11 0 -15 0 -5 -8 -8 -19 -8 -11 0 -20 -7 -20 -15
0 -8 6 -15 14 -15 8 0 16 7 20 15 3 8 12 15 21 15 8 0 15 7 15 15 0 15 -29 22
-31 8z"/>
<path d="M650 55 c0 -8 7 -15 15 -15 8 0 15 -7 15 -15 0 -8 7 -15 15 -15 8 0
15 7 15 15 0 8 -7 15 -15 15 -8 0 -15 7 -15 15 0 8 -7 15 -15 15 -8 0 -15 -7
-15 -15z"/>
<path d="M790 55 c0 -8 5 -15 11 -15 7 0 18 -8 25 -17 13 -17 15 -17 28 0 7 9
18 17 25 17 6 0 11 7 11 15 0 8 -7 15 -15 15 -8 0 -15 -7 -15 -15 0 -8 -9 -15
-20 -15 -11 0 -20 7 -20 15 0 8 -7 15 -15 15 -8 0 -15 -7 -15 -15z"/>
<path d="M930 55 c0 -8 -6 -15 -14 -15 -8 0 -16 -7 -20 -15 -8 -22 20 -19 44
5 24 24 26 40 5 40 -8 0 -15 -7 -15 -15z"/>
<path d="M1000 55 c0 -8 -7 -15 -15 -15 -8 0 -15 -7 -15 -15 0 -8 7 -15 15
-15 8 0 15 7 15 15 0 8 7 15 15 15 8 0 15 7 15 15 0 8 -7 15 -15 15 -8 0 -15
-7 -15 -15z"/>
<path d="M1219 63 c-1 -5 -1 -11 0 -15 0 -5 -8 -8 -19 -8 -11 0 -20 -7 -20
-15 0 -8 6 -15 14 -15 8 0 16 7 20 15 3 8 12 15 21 15 8 0 15 7 15 15 0 15
-29 22 -31 8z"/>
<path d="M1273 45 c-27 -26 -29 -35 -8 -35 8 0 15 7 15 15 0 8 9 15 20 15 11
0 20 -7 20 -15 0 -8 7 -15 15 -15 8 0 15 7 15 15 0 8 -7 15 -15 15 -8 0 -15 7
-15 15 0 21 -21 17 -47 -10z"/>
<path d="M1430 55 c0 -8 5 -15 11 -15 7 0 18 -8 25 -17 13 -17 15 -17 28 0 7
9 18 17 25 17 6 0 11 7 11 15 0 8 -7 15 -15 15 -8 0 -15 -7 -15 -15 0 -8 -9
-15 -20 -15 -11 0 -20 7 -20 15 0 8 -7 15 -15 15 -8 0 -15 -7 -15 -15z"/>
<path d="M1640 55 c0 -8 -7 -15 -15 -15 -8 0 -15 -7 -15 -15 0 -8 7 -15 15
-15 8 0 15 7 15 15 0 8 9 15 20 15 11 0 20 -7 20 -15 0 -8 7 -15 15 -15 21 0
19 9 -11 36 -29 28 -44 30 -44 9z"/>
<path d="M1930 55 c0 -8 7 -15 15 -15 8 0 15 -7 15 -15 0 -8 7 -15 15 -15 8 0
15 7 15 15 0 8 -7 15 -15 15 -8 0 -15 7 -15 15 0 8 -7 15 -15 15 -8 0 -15 -7
-15 -15z"/>
<path d="M2070 55 c0 -8 5 -15 11 -15 7 0 18 -8 25 -17 13 -17 15 -17 28 0 7
9 18 17 25 17 6 0 11 7 11 15 0 8 -7 15 -15 15 -8 0 -15 -7 -15 -15 0 -8 -9
-15 -20 -15 -11 0 -20 7 -20 15 0 8 -7 15 -15 15 -8 0 -15 -7 -15 -15z"/>
</g>
</svg>
