<?xml version="1.0" standalone="no"?>
<!DOCTYPE svg PUBLIC "-//W3C//DTD SVG 20010904//EN"
 "http://www.w3.org/TR/2001/REC-SVG-20010904/DTD/svg10.dtd">
<svg version="1.0" xmlns="http://www.w3.org/2000/svg"
 width="266.000000pt" height="190.000000pt" viewBox="0 0 266.000000 190.000000"
 preserveAspectRatio="xMidYMid meet">
<metadata>
Created by potrace 1.10, written by Peter Selinger 2001-2011
</metadata>
<g transform="translate(0.000000,190.000000) scale(0.100000,-0.100000)"
fill="#ede8e8" stroke="none">
<path d="M1155 1754 c-293 -65 -522 -277 -615 -569 -31 -99 -39 -302 -16 -409
69 -310 300 -547 610 -626 109 -28 283 -28 392 0 286 73 503 279 594 565 34
107 39 301 11 420 -69 290 -289 521 -576 606 -95 28 -302 35 -400 13z m271
-24 c322 -40 588 -277 670 -595 26 -100 24 -284 -4 -386 -74 -273 -282 -482
-559 -561 -111 -32 -295 -32 -406 0 -252 72 -450 253 -537 490 -154 421 72
881 502 1021 112 37 213 46 334 31z"/>
<path d="M1140 1411 c-123 -40 -205 -128 -236 -252 -13 -53 -21 -67 -42 -77
-50 -22 -101 -72 -127 -126 -68 -139 -6 -313 135 -380 44 -20 57 -21 475 -21
423 0 431 0 471 22 48 25 101 83 120 129 17 40 18 124 3 177 -6 23 -30 59 -61
90 -48 50 -50 54 -52 112 -4 142 -137 243 -269 207 -37 -10 -39 -9 -80 31 -64
65 -126 90 -227 93 -47 2 -96 0 -110 -5z m163 -21 c35 0 48 -3 41 -10 -7 -7
-30 -8 -65 -2 -30 4 -72 4 -94 0 -21 -5 -46 -5 -55 -1 -16 7 83 23 108 16 8
-2 37 -3 65 -3z m-188 -30 c-3 -5 -12 -7 -20 -3 -21 7 -19 13 6 13 11 0 18 -4
14 -10z m312 -19 c23 -16 48 -40 56 -52 15 -20 22 -21 89 -16 45 3 60 2 38 -3
-22 -5 -28 -8 -15 -10 19 -2 -37 -19 -77 -23 -9 -1 -14 -6 -11 -12 2 -5 -5 1
-16 15 -20 24 -25 36 -22 53 1 4 -7 7 -16 5 -11 -2 -18 3 -18 12 0 17 -32 39
-57 40 -10 0 -18 5 -18 10 0 18 26 11 67 -19z m-96 4 c57 -21 105 -59 138
-110 l26 -41 44 23 c55 29 85 29 141 1 33 -17 51 -35 68 -68 27 -54 28 -84 4
-132 l-19 -36 28 -6 c36 -7 99 -63 115 -103 18 -41 18 -105 0 -146 -17 -42
-76 -93 -123 -107 -26 -8 -164 -10 -433 -8 l-395 3 -48 28 c-93 55 -132 169
-92 272 19 52 82 110 135 126 34 10 35 13 37 61 4 101 82 207 179 242 52 19
141 20 195 1z m-261 -5 c12 -7 10 -9 -8 -7 -12 0 -22 5 -22 9 0 11 12 10 30
-2z m-20 -25 c0 -1 -6 -7 -13 -13 -10 -8 -13 -6 -13 7 0 11 6 17 13 14 7 -3
13 -6 13 -8z m-58 -61 c-10 -12 -19 -18 -21 -12 -2 6 2 14 9 18 6 4 11 10 11
14 -3 23 0 30 8 17 6 -10 4 -22 -7 -37z m688 6 c0 -5 7 -10 15 -10 8 0 15 -4
15 -10 0 -5 6 -7 14 -4 8 3 16 -3 19 -16 3 -12 10 -19 16 -15 7 4 8 0 4 -11
-4 -11 -3 -15 5 -10 14 8 27 -13 15 -25 -5 -5 -17 4 -28 21 -21 32 -82 70
-111 70 -16 0 -17 2 -4 10 20 13 40 13 40 0z m-739 -79 c-6 -11 -11 -43 -11
-71 0 -42 -3 -51 -15 -46 -8 3 -15 1 -15 -3 0 -5 -6 -11 -13 -14 -8 -3 -14 1
-14 8 0 8 10 16 21 19 16 4 21 14 23 41 2 42 25 115 30 98 2 -7 0 -21 -6 -32z
m866 -114 c-6 -40 11 -86 29 -80 5 2 21 -8 34 -22 18 -19 20 -24 7 -19 -9 3
-17 11 -17 16 0 6 -6 8 -14 5 -7 -3 -28 3 -45 14 -27 16 -30 22 -21 38 5 11
10 46 11 78 0 49 2 54 10 33 6 -14 8 -42 6 -63z m-959 -28 c-10 -5 -18 -17
-18 -24 0 -8 -4 -15 -9 -15 -5 0 -8 6 -7 13 3 22 17 37 34 37 16 -1 16 -1 0
-11z m-55 -49 c-3 -11 -9 -20 -14 -20 -5 0 -9 -12 -9 -27 -1 -24 -2 -26 -11
-10 -8 13 -5 24 11 47 25 35 30 37 23 10z m1106 -91 c20 -44 9 -44 -17 1 -13
23 -17 37 -10 35 8 -3 19 -19 27 -36z m-1134 -174 c7 -26 35 -67 35 -50 0 3
12 -6 27 -20 15 -14 32 -25 38 -25 5 0 3 -5 -5 -10 -8 -5 -19 -10 -25 -10 -5
0 -3 5 5 10 13 8 12 10 -4 10 -26 0 -86 66 -86 95 0 13 -4 27 -10 30 -12 7
-14 125 -2 152 4 11 9 -14 13 -67 4 -47 10 -98 14 -115z m1163 73 c0 -46 -3
-66 -9 -57 -13 21 -8 129 6 129 1 0 3 -32 3 -72z m-32 -102 c-8 -20 -12 -36
-8 -36 8 -1 -28 -24 -40 -26 -5 -1 -11 -2 -15 -3 -5 -1 -1 -6 7 -12 13 -9 13
-10 -2 -6 -9 3 -19 0 -22 -8 -11 -30 -109 -36 -508 -33 -304 2 -400 6 -423 17
-16 7 -25 15 -18 18 7 2 21 0 32 -6 30 -17 854 -15 883 2 39 22 85 67 104 102
23 44 30 38 10 -9z"/>
<path d="M1185 1060 l-110 -110 22 -22 23 -22 71 72 c40 40 74 72 76 72 2 0 3
-70 3 -156 l0 -155 28 3 27 3 5 153 5 153 69 -70 c58 -58 72 -68 88 -60 10 5
18 18 18 27 0 15 -197 222 -211 222 -2 0 -54 -49 -114 -110z m110 69 c-4 -6
-1 -9 7 -7 8 2 32 -15 53 -36 22 -22 34 -36 26 -31 -11 6 -13 4 -7 -11 6 -16
4 -16 -17 4 -39 37 -47 15 -47 -135 0 -83 -4 -133 -10 -133 -6 0 -10 49 -9
131 1 155 -8 175 -57 137 -16 -12 -23 -15 -16 -6 10 13 10 17 0 21 -8 3 -2 9
14 17 15 7 25 18 21 23 -4 6 0 8 11 4 10 -4 15 -3 11 3 -7 12 2 30 16 30 6 0
7 -5 4 -11z m-105 -94 c-6 -8 -8 -20 -4 -27 5 -10 4 -10 -6 -1 -11 10 -11 15
0 28 7 8 15 15 17 15 3 0 0 -7 -7 -15z m237 -26 c3 -19 11 -28 18 -25 7 2 21
-4 30 -14 17 -18 17 -19 -5 -15 -13 2 -31 12 -40 20 -19 18 -33 65 -18 65 5 0
11 -14 15 -31z m-272 -21 c-2 -24 -25 -39 -25 -16 0 11 18 38 25 38 1 0 1 -10
0 -22z"/>
</g>
</svg>
