<?xml version="1.0" standalone="no"?>
<!DOCTYPE svg PUBLIC "-//W3C//DTD SVG 20010904//EN"
 "http://www.w3.org/TR/2001/REC-SVG-20010904/DTD/svg10.dtd">
<svg version="1.0" xmlns="http://www.w3.org/2000/svg"
 width="900.000000pt" height="525.000000pt" viewBox="0 0 900.000000 525.000000"
 preserveAspectRatio="xMidYMid meet">
<metadata>
Created by potrace 1.10, written by Peter Selinger 2001-2011
</metadata>
<g transform="translate(0.000000,525.000000) scale(0.100000,-0.100000)"
fill="#f0ebeb" stroke="none">
<path d="M0 2625 l0 -2625 4500 0 4500 0 0 2625 0 2625 -4500 0 -4500 0 0
-2625z m6620 1395 c15 -27 4 -58 -32 -96 -27 -29 -29 -35 -21 -75 l9 -44 74
-3 c41 -2 79 -7 84 -12 4 -4 2 -30 -7 -57 -8 -26 -24 -81 -37 -120 -12 -40
-19 -80 -16 -89 3 -8 0 -27 -7 -42 -7 -15 -21 -61 -31 -102 -32 -140 -47 -195
-62 -223 -16 -33 -18 -63 -4 -72 16 -10 50 -86 50 -111 0 -12 -7 -27 -15 -34
-33 -27 -8 -49 73 -65 40 -8 37 -26 -7 -37 -57 -15 -22 -28 74 -28 96 0 128
12 90 34 -53 32 -136 110 -141 134 -3 15 -9 34 -14 43 -13 25 -3 147 18 208
11 31 25 74 32 96 7 22 21 51 31 64 13 16 19 40 19 74 0 44 2 49 20 44 21 -5
27 7 9 19 -16 9 10 24 44 24 15 0 27 4 27 9 0 15 41 24 52 13 7 -7 0 -16 -21
-26 -22 -12 -31 -24 -31 -41 0 -18 -5 -25 -20 -25 -22 0 -25 -7 -11 -28 15
-25 46 -7 72 42 15 27 35 53 45 59 11 5 32 22 47 38 28 28 78 46 97 34 6 -3
17 -19 25 -34 12 -24 13 -49 4 -152 -6 -68 -15 -134 -21 -146 -6 -12 -8 -36
-5 -53 5 -22 3 -32 -9 -37 -19 -7 -50 -68 -76 -147 -23 -72 -86 -208 -101
-217 -5 -4 -7 -13 -4 -21 5 -14 114 -38 174 -38 29 0 109 -27 131 -45 32 -25
62 -57 62 -65 0 -9 70 -2 82 9 11 10 24 114 18 136 -2 6 0 23 5 39 4 16 3 42
-2 61 -6 18 -7 37 -2 42 8 8 12 98 10 193 -1 25 2 61 5 80 l7 35 -27 -31 c-14
-18 -26 -37 -26 -42 0 -7 -18 -3 -42 8 -25 11 -65 20 -95 20 -28 0 -54 4 -57
9 -6 10 26 20 64 21 14 0 34 7 44 15 11 8 29 15 41 15 12 0 30 7 41 15 10 8
28 15 38 15 11 0 54 17 95 37 66 32 85 37 148 37 62 0 76 -3 95 -22 22 -22 23
-29 26 -265 3 -249 4 -239 -40 -415 -14 -56 -6 -62 87 -62 69 0 362 -17 420
-25 17 -2 58 -4 93 -4 34 -1 62 -5 62 -9 0 -16 -51 -32 -103 -32 -78 -1 -135
-15 -162 -40 -26 -25 -61 -23 -59 3 2 21 -10 24 -151 36 -69 6 -114 6 -119 0
-6 -5 7 -9 37 -9 35 0 47 -4 47 -15 0 -12 -12 -15 -52 -14 -29 1 -66 5 -83 9
l-30 7 27 7 c32 9 28 26 -6 26 -12 0 -26 3 -30 8 -7 7 -50 11 -126 13 -19 0
-59 5 -89 11 -29 5 -105 12 -167 13 -62 2 -122 9 -133 14 -11 6 -77 12 -148
13 -70 1 -134 6 -140 11 -9 6 -24 5 -43 -3 -36 -15 -317 -27 -807 -33 -145 -2
-154 -1 -174 20 l-22 22 28 36 c22 30 26 44 22 75 -3 21 0 43 6 49 8 8 7 18
-3 36 -12 23 -12 28 0 35 8 5 12 11 10 13 -3 2 -22 16 -42 31 -40 30 -48 55
-23 76 8 7 15 19 15 27 0 22 -29 27 -49 8 -18 -16 -20 -15 -26 5 -8 24 -28 22
-33 -3 -2 -10 3 -17 12 -17 18 0 23 -54 6 -65 -5 -3 -8 -27 -7 -54 1 -34 -3
-52 -15 -65 -15 -14 -18 -36 -18 -122 0 -75 -4 -106 -12 -109 -7 -2 -215 -6
-463 -9 -424 -5 -577 -14 -599 -36 -6 -6 0 -17 15 -29 29 -25 43 -26 73 -5 21
13 28 13 59 0 19 -8 39 -21 44 -29 6 -12 37 -17 136 -23 144 -8 140 -5 112
-93 -8 -25 -17 -57 -19 -71 -5 -22 -11 -26 -48 -28 -45 -2 -126 15 -142 29
-16 14 -36 10 -36 -6 0 -10 -10 -15 -30 -15 -19 0 -30 5 -30 14 0 26 -19 28
-50 6 -31 -22 -95 -25 -95 -5 -2 28 -18 55 -34 55 -18 0 -61 76 -61 109 0 10
-7 36 -16 56 -11 27 -14 58 -11 109 11 156 19 164 181 177 236 18 713 40 761
35 61 -7 161 5 159 19 -1 5 -16 16 -33 25 -23 11 -30 20 -27 34 5 18 -17 62
-41 81 -7 6 -17 22 -22 37 -9 23 -7 29 7 37 29 16 71 1 88 -31 19 -38 36 -32
46 17 8 36 1 65 -9 38 -3 -7 -12 -13 -21 -13 -15 1 -15 2 -2 13 34 28 62 79
56 103 -8 32 -36 32 -36 -1 0 -14 -4 -25 -10 -25 -5 0 -10 23 -10 50 0 55 7
61 35 30 l18 -20 24 22 c25 23 30 54 11 61 -10 3 -10 8 1 21 17 21 20 84 4 97
-13 12 -6 80 10 91 17 11 -11 87 -36 98 -12 6 -29 14 -37 20 -55 35 -109 49
-194 48 l-89 -2 -83 -78 c-46 -44 -86 -89 -90 -101 -4 -12 -22 -37 -40 -55
-19 -18 -34 -41 -34 -52 0 -10 -4 -22 -10 -25 -5 -3 -14 -24 -21 -47 -6 -23
-23 -53 -38 -67 -14 -14 -32 -38 -38 -53 -7 -15 -26 -37 -42 -49 -17 -13 -31
-29 -31 -36 0 -7 -5 -13 -10 -13 -6 0 -20 -16 -31 -35 -11 -19 -28 -37 -38
-40 -9 -3 -35 -22 -57 -43 -23 -20 -60 -43 -84 -50 -24 -7 -61 -27 -82 -43
-21 -17 -42 -28 -47 -24 -5 3 -18 -3 -28 -13 -10 -11 -30 -22 -46 -26 -15 -4
-46 -24 -68 -46 l-40 -39 40 -43 c22 -24 43 -56 46 -70 7 -27 -7 -165 -26
-268 -8 -37 -19 -62 -36 -77 -26 -23 -42 -23 -130 -1 -23 6 -49 8 -58 4 -8 -3
-50 0 -93 6 -42 7 -106 13 -142 14 -36 1 -73 5 -84 9 -11 5 -21 3 -26 -5 -9
-14 -82 -15 -413 -8 -161 4 -211 8 -217 18 -5 9 -33 15 -74 17 -55 3 -68 1
-86 -17 -25 -25 -32 -25 -46 -2 -10 15 -26 17 -115 16 -203 -3 -254 -6 -291
-19 -20 -6 -42 -9 -48 -5 -7 4 -27 4 -44 0 -38 -10 -203 -18 -531 -26 -137 -3
-256 -7 -263 -10 -25 -8 -49 15 -56 53 -15 83 -33 329 -25 350 12 32 69 70
119 77 25 4 88 11 140 16 52 5 96 9 98 9 9 4 -23 89 -58 153 -6 10 -10 26 -10
36 0 9 -6 27 -14 38 -8 11 -17 37 -21 57 -4 20 -11 37 -16 37 -5 0 -9 10 -9
23 0 12 -6 34 -14 48 -7 14 -16 42 -20 62 -4 20 -12 40 -19 44 -7 5 -12 16
-13 26 -2 55 -5 67 -14 67 -13 0 -13 -73 1 -87 5 -5 9 -30 7 -54 l-3 -44 -18
32 c-9 18 -24 60 -32 95 -14 61 -14 64 5 77 22 15 27 60 10 91 -5 10 -12 42
-16 72 l-6 54 54 -1 c46 0 62 -6 104 -37 72 -53 89 -75 122 -158 85 -212 105
-415 52 -539 -13 -28 -31 -53 -42 -57 -10 -3 -17 -11 -15 -17 5 -14 305 -17
352 -3 l30 9 -25 7 c-14 5 -41 9 -60 9 -59 2 -68 15 -33 45 17 14 33 38 36 54
4 17 16 33 31 40 29 13 33 39 11 68 -15 20 -19 62 -7 79 4 6 19 16 35 22 36
16 35 44 -3 66 -36 22 -37 31 -5 61 24 23 34 56 16 56 -4 0 -19 -8 -32 -19
-13 -10 -35 -22 -48 -26 -22 -7 -23 -5 -19 20 6 26 -35 125 -55 134 -13 5 -53
74 -60 103 -4 14 -25 45 -47 68 -22 23 -40 45 -40 49 0 5 -27 35 -60 67 -33
32 -60 67 -60 77 0 16 5 18 40 12 22 -4 40 -3 40 2 -1 18 -40 53 -60 53 -14 0
-20 5 -18 17 2 13 -8 21 -37 29 -90 24 -165 70 -165 102 0 11 7 13 28 7 82
-21 287 -25 957 -20 402 4 881 10 1065 15 308 9 336 8 347 -7 9 -11 12 -47 11
-102 0 -47 6 -155 15 -240 10 -85 17 -195 17 -245 0 -50 5 -131 10 -179 7 -63
7 -107 -1 -153 -8 -49 -8 -72 1 -96 7 -18 15 -73 19 -123 l6 -90 45 -3 45 -3
28 58 c16 34 27 75 27 99 0 26 6 47 16 55 42 35 62 124 38 170 -11 22 -14 45
-10 74 3 24 1 57 -4 74 -5 18 -5 33 1 36 5 4 9 23 9 43 0 20 4 44 10 52 6 9 5
17 -2 21 -7 4 -11 28 -9 57 1 34 -3 53 -13 62 -10 8 -14 21 -10 36 4 13 2 30
-4 37 -5 6 -12 33 -16 58 -6 37 -12 49 -34 58 l-27 13 33 13 c34 15 41 38 18
64 -8 9 -18 32 -23 51 -6 23 -20 42 -41 55 -21 13 -31 27 -29 40 2 19 8 20
157 15 297 -10 2003 -3 2050 7 65 15 68 15 80 -7z m-5003 -577 c-5 -7 -16 -13
-23 -13 -8 0 -23 -9 -35 -21 -11 -11 -23 -18 -26 -16 -6 7 25 64 51 95 l20 22
12 -27 c7 -19 8 -32 1 -40z m-241 -98 c37 -19 73 -35 80 -35 19 0 89 -87 119
-147 33 -67 58 -153 79 -271 16 -86 16 -95 2 -118 -9 -13 -21 -24 -26 -24 -5
0 -19 -19 -31 -42 -21 -40 -21 -52 -16 -193 7 -159 28 -293 49 -307 7 -5 780
-8 1718 -7 l1705 2 3 -27 c2 -15 -2 -48 -8 -74 -6 -26 -16 -74 -21 -107 -5
-36 -16 -65 -27 -74 -14 -11 -96 -12 -471 -7 -249 4 -466 9 -481 13 -37 7 -48
50 -20 74 21 18 17 29 -11 29 -36 0 -53 -71 -22 -89 14 -7 8 -10 -27 -15 -25
-3 -72 -7 -105 -9 -54 -2 -60 -4 -63 -25 -2 -15 10 -42 35 -75 22 -29 51 -72
66 -97 14 -25 44 -65 67 -90 22 -25 61 -70 85 -101 54 -69 163 -175 209 -203
19 -12 46 -36 61 -54 15 -17 34 -32 42 -32 36 0 2 -26 -48 -36 -30 -6 -65 -16
-79 -22 -88 -35 -204 -57 -410 -77 -473 -47 -657 -55 -719 -34 -21 7 -36 8
-44 1 -26 -21 -58 -24 -77 -7 -19 17 -19 18 5 53 14 20 25 48 25 62 0 15 12
39 28 56 31 31 54 86 46 108 -3 7 2 19 11 26 22 18 19 50 -5 50 -34 0 -26 50
12 82 34 28 34 47 0 29 -17 -9 -23 -6 -36 14 -9 13 -16 32 -16 41 0 9 -8 23
-17 30 -15 11 -16 15 -4 23 8 5 11 16 8 26 -7 16 -17 15 -63 -2 -6 -2 -14 6
-17 19 -7 26 -78 78 -107 78 -10 0 -32 12 -49 26 -17 14 -46 28 -66 31 -42 7
-39 14 7 19 97 10 132 16 164 31 19 9 33 22 31 27 -8 24 -600 33 -1157 19
-307 -8 -476 -7 -518 2 -22 5 -22 6 -21 198 1 105 -2 204 -6 220 -6 23 -4 27
13 27 28 0 31 8 17 60 l-12 45 -8 -37 c-10 -51 -21 -48 -29 8 -12 90 -7 167
13 198 19 28 19 50 5 144 -7 42 -24 31 -25 -16 -1 -20 -5 -48 -9 -62 -10 -29
-5 168 5 242 4 27 2 69 -5 100 -17 72 -30 157 -30 191 0 16 -5 27 -14 27 -7 0
-16 14 -20 31 -6 34 0 53 15 44 5 -4 12 2 16 12 10 27 23 33 80 33 40 0 67 -8
119 -35z m-199 -377 c-2 -13 -4 -5 -4 17 -1 22 1 32 4 23 2 -10 2 -28 0 -40z
m1098 -108 c4 -6 -7 -10 -27 -10 -25 0 -29 3 -18 10 19 13 37 13 45 0z m5374
-372 c5 -13 12 -52 15 -88 4 -36 14 -90 23 -120 13 -47 13 -73 3 -182 -18
-197 -8 -182 -128 -188 -72 -4 -105 -9 -116 -20 -10 -11 -17 -68 -25 -210 -16
-278 -20 -310 -40 -310 -35 0 -41 21 -41 145 0 66 5 174 10 240 5 65 8 121 6
122 -7 7 -115 7 -122 1 -9 -9 16 -289 27 -304 9 -12 28 -145 34 -242 3 -44 0
-64 -8 -66 -7 -2 -38 -12 -69 -22 -49 -15 -64 -16 -108 -6 -28 7 -93 12 -143
12 -139 0 -137 14 5 39 68 13 134 26 148 31 14 5 42 11 63 15 62 10 82 67 59
165 -11 45 -32 189 -38 265 -2 22 -10 81 -18 130 -8 50 -20 126 -26 170 -10
78 -14 109 -24 228 -3 32 -8 63 -11 68 -11 17 8 102 26 120 14 14 34 19 69 19
62 0 74 -18 68 -106 -5 -74 -29 -108 -90 -124 -40 -11 -48 -29 -23 -50 17 -14
151 -8 167 8 5 5 9 57 10 116 1 61 6 113 13 122 11 16 146 40 233 43 36 1 44
-3 51 -21z m-629 -23 c16 -43 24 -201 10 -210 -16 -10 -889 -7 -1146 3 -169 7
-205 11 -232 28 -29 17 -32 22 -25 49 4 16 6 53 5 81 -2 35 1 53 10 56 7 3
211 6 453 7 242 1 441 4 444 7 2 2 109 4 238 4 l233 0 10 -25z m-1559 -77 c-7
-40 -15 -83 -17 -95 -4 -22 -8 -23 -100 -21 l-96 1 6 56 c4 31 10 75 13 98 l5
42 91 3 c51 2 96 0 101 -4 6 -4 4 -36 -3 -80z m2376 -110 c-2 -13 -4 -5 -4 17
-1 22 1 32 4 23 2 -10 2 -28 0 -40z m-2403 -103 c-2 -65 -27 -222 -40 -254 -9
-21 -19 -31 -28 -28 -8 3 -57 9 -109 13 -52 3 -100 10 -106 13 -8 5 -7 23 3
62 7 30 16 73 20 96 3 23 15 62 26 87 l20 47 107 -3 108 -3 -1 -30z m1626 10
c5 -14 10 -46 10 -70 0 -23 7 -80 16 -125 10 -55 12 -86 5 -93 -6 -6 -64 -6
-173 2 -90 6 -200 11 -246 11 -96 0 -88 14 -97 -160 -10 -193 -15 -220 -38
-220 -19 0 -20 5 -15 174 6 191 7 186 -52 186 -16 0 -32 5 -35 10 -4 7 -154
10 -443 10 -240 0 -443 0 -449 0 -18 0 -16 27 2 38 12 6 17 33 21 108 5 72 11
106 24 124 l18 26 721 3 721 3 10 -27z m870 -297 c0 -49 -5 -47 -13 5 -3 20
-2 37 4 37 5 0 9 -19 9 -42z m-2410 -82 c0 -8 -4 -17 -9 -20 -10 -7 -23 19
-14 28 11 11 23 6 23 -8z m2440 -48 c-1 -26 -3 -30 -10 -16 -6 9 -7 23 -4 32
9 25 14 19 14 -16z m33 -125 c2 -21 0 -42 -4 -47 -6 -6 -9 -4 -9 6 0 8 -3 30
-6 47 -4 18 -2 31 4 31 5 0 12 -17 15 -37z m-6390 17 c45 -39 61 -49 86 -60
29 -12 77 -67 67 -77 -3 -3 1 -18 9 -34 20 -37 20 -143 1 -159 -8 -6 -16 -21
-18 -32 -2 -12 -9 -23 -15 -26 -9 -2 -13 11 -15 45 -2 81 -1 78 -32 75 -36 -4
-48 13 -40 56 5 24 3 32 -8 32 -8 0 -29 15 -46 33 -29 30 -32 39 -28 74 6 41
5 41 -32 47 -87 15 -95 18 -81 27 19 12 137 11 152 -1z m3893 -42 c-4 -18 -13
-46 -21 -63 l-13 -30 -1 47 c-1 53 17 104 32 89 5 -5 6 -24 3 -43z m-46 -193
c0 -8 -4 -15 -10 -15 -5 0 -10 7 -10 15 0 8 5 15 10 15 6 0 10 -7 10 -15z
m-10 -110 c0 -19 -4 -35 -10 -35 -11 0 -14 53 -3 63 11 12 13 8 13 -28z m2640
-73 c0 -28 -3 -33 -10 -22 -13 20 -13 73 0 65 6 -3 10 -23 10 -43z m-2659 -5
c-8 -8 -11 -7 -11 4 0 20 13 34 18 19 3 -7 -1 -17 -7 -23z m527 -5 c-9 -2 -18
-13 -20 -25 -3 -23 -34 -35 -50 -19 -16 16 9 50 39 54 31 4 58 -5 31 -10z
m-105 -41 c5 -22 0 -31 -18 -31 -8 0 -10 10 -7 25 5 30 18 33 25 6z m-94 -17
c5 4 12 2 15 -2 3 -5 -10 -14 -29 -19 -36 -12 -51 1 -38 32 5 14 7 14 24 -1
10 -9 22 -13 28 -10z m-93 -15 c2 -24 -2 -26 -79 -42 -98 -20 -97 -20 -97 -4
0 8 -11 19 -24 25 -19 9 -25 8 -30 -4 -10 -25 -26 -15 -26 16 0 29 13 40 25
20 3 -5 21 -10 39 -10 17 0 38 -6 45 -12 10 -11 15 -9 27 6 8 11 32 23 56 27
57 9 60 7 64 -22z m2457 -41 c6 -47 1 -61 -13 -38 -12 19 -13 80 -1 80 4 0 11
-19 14 -42z"/>
<path d="M6066 2888 c-4 -20 -2 -37 6 -44 9 -9 88 -14 283 -18 239 -5 265 -4
230 8 -22 8 -60 15 -85 15 -25 1 -63 6 -85 12 -22 7 -58 12 -80 14 -119 7
-213 19 -236 31 -26 13 -27 12 -33 -18z"/>
<path d="M3396 2873 c-19 -19 9 -23 151 -23 90 0 153 4 148 9 -11 10 -290 23
-299 14z"/>
<path d="M5675 2860 c-4 -6 7 -10 25 -10 18 0 29 4 25 10 -3 6 -15 10 -25 10
-10 0 -22 -4 -25 -10z"/>
<path d="M2448 1975 c-29 -25 -23 -41 11 -30 22 7 47 55 28 55 -6 0 -24 -11
-39 -25z"/>
<path d="M5600 1152 c0 -14 11 -21 26 -15 8 3 11 9 8 14 -7 11 -34 12 -34 1z"/>
</g>
</svg>
