<?xml version="1.0" standalone="no"?>
<!DOCTYPE svg PUBLIC "-//W3C//DTD SVG 20010904//EN"
 "http://www.w3.org/TR/2001/REC-SVG-20010904/DTD/svg10.dtd">
<svg version="1.0" xmlns="http://www.w3.org/2000/svg"
 width="300.000000pt" height="175.000000pt" viewBox="0 0 300.000000 175.000000"
 preserveAspectRatio="xMidYMid meet">
<metadata>
Created by potrace 1.10, written by Peter Selinger 2001-2011
</metadata>
<g transform="translate(0.000000,175.000000) scale(0.100000,-0.100000)"
fill="#f0ebeb" stroke="none">
<path d="M973 1380 c-365 -5 -383 -6 -397 -25 -10 -13 -11 -26 -5 -43 15 -40
11 -70 -13 -83 -13 -7 -37 -24 -55 -40 -26 -22 -38 -26 -70 -22 -32 4 -42 1
-63 -22 -23 -25 -25 -33 -22 -108 1 -45 7 -120 12 -167 6 -47 10 -113 10 -148
0 -56 3 -66 33 -98 l32 -36 -39 -40 c-37 -40 -38 -43 -32 -92 8 -74 44 -106
125 -113 l62 -6 47 50 47 50 29 -18 c32 -19 93 -30 194 -33 42 -2 67 -7 70
-15 8 -23 45 -51 77 -57 46 -8 353 23 405 41 93 33 93 57 0 149 -39 38 -70 76
-70 83 0 11 28 13 143 11 135 -3 142 -4 140 -23 -1 -11 -5 -49 -7 -85 l-5 -65
23 94 c16 62 31 100 44 110 19 15 47 94 59 169 5 30 8 32 44 32 36 0 39 -2 39
-27 0 -37 -14 -57 -34 -50 -9 4 -26 2 -38 -3 -19 -7 -16 -9 21 -9 40 -1 43 -3
37 -23 -3 -13 -6 -38 -6 -57 l0 -33 -45 4 c-42 3 -46 1 -51 -22 -3 -14 -9 -36
-13 -50 -4 -14 -7 -43 -7 -65 1 -38 3 -40 38 -46 38 -6 47 5 48 54 0 25 -28
21 -32 -6 -4 -26 -23 -26 -23 1 0 9 -4 20 -10 24 -6 5 -5 8 4 8 7 0 11 6 8 14
-3 8 1 22 8 33 11 15 16 16 27 5 10 -10 10 -16 0 -32 -10 -17 -10 -20 7 -20
14 0 20 10 24 41 3 23 15 50 26 60 12 11 21 24 21 30 0 6 5 7 10 4 7 -5 9 13
4 53 -5 51 -3 61 12 70 15 9 16 13 5 26 -12 15 8 16 223 16 130 0 239 1 244 3
4 1 8 -16 10 -38 l3 -40 -236 1 c-130 1 -238 -3 -241 -7 -3 -5 105 -9 240 -9
l246 0 0 -24 c0 -13 3 -38 7 -56 l6 -33 -86 8 -87 7 0 -66 c0 -64 -1 -66 -25
-66 -24 0 -25 3 -24 58 0 37 3 50 8 38 7 -19 8 -19 13 1 8 31 -18 34 -181 27
l-139 -7 -6 -51 c-3 -28 -10 -70 -14 -93 l-9 -41 89 -7 c63 -5 91 -11 95 -22
3 -7 3 -16 0 -20 -7 -6 -203 -43 -234 -43 -20 0 -21 3 -12 26 5 15 8 28 6 30
-1 2 -34 6 -72 10 -74 7 -84 -6 -12 -15 33 -5 44 -12 55 -34 22 -45 52 -50
164 -28 108 22 128 32 128 66 0 35 -27 50 -99 55 l-66 5 3 44 c7 93 7 92 134
89 l112 -3 9 -43 c16 -84 90 -93 103 -12 9 53 23 63 76 53 39 -8 44 -12 52
-47 13 -49 2 -66 -56 -83 -25 -7 -51 -19 -57 -27 -20 -23 -9 -59 19 -67 33 -9
307 -33 394 -33 97 -1 98 1 58 171 -46 196 -60 266 -56 278 3 6 34 16 70 22
70 12 94 26 94 53 0 30 -30 44 -109 50 l-76 5 -5 100 c-3 55 -11 110 -18 122
-21 38 -79 41 -164 8 -13 -5 -19 0 -23 22 -3 15 -12 39 -19 53 -11 22 -18 25
-62 23 -46 -1 -50 1 -71 34 -13 19 -23 40 -23 48 0 7 -8 23 -18 35 -17 21 -19
21 -447 23 -237 1 -602 0 -812 -3z m442 -159 c5 -69 9 -148 10 -176 1 -27 3
-65 4 -82 0 -20 6 -33 14 -33 32 0 48 -36 45 -101 l-3 -64 -455 -1 c-295 -1
-459 2 -467 8 -8 6 -13 33 -13 63 0 70 20 95 83 102 30 4 46 10 44 17 -2 6
-21 63 -42 125 -29 87 -40 110 -46 95 -11 -27 -11 -36 1 -29 6 3 12 0 14 -7 2
-7 15 -49 30 -93 18 -56 23 -82 15 -90 -15 -15 -56 36 -70 88 -20 73 -20 74
-28 55 -4 -13 -10 -15 -21 -8 -28 18 -29 10 -5 -32 34 -60 43 -125 20 -142
-15 -11 -17 -24 -13 -83 3 -39 8 -75 12 -82 5 -8 163 -11 580 -11 l573 0 -11
-50 -10 -50 -203 0 c-112 0 -203 -2 -203 -4 0 -29 169 -216 196 -216 8 0 14
-3 14 -8 0 -13 -91 -32 -230 -46 -252 -26 -341 -22 -265 12 26 12 36 36 11 26
-8 -3 -17 0 -21 6 -5 8 -10 8 -20 0 -23 -19 -210 2 -272 31 -29 13 -53 26 -53
29 0 13 134 81 176 89 52 10 62 17 46 33 -22 22 -12 28 51 28 34 0 68 4 76 9
9 6 -60 9 -175 8 l-189 -2 0 -25 c0 -14 -4 -60 -9 -103 -7 -61 -14 -85 -34
-108 -23 -28 -29 -30 -85 -27 -57 3 -63 5 -84 37 -13 19 -23 44 -23 57 0 29
61 94 89 94 17 0 20 4 16 23 -5 18 -1 26 17 35 20 9 17 11 -29 11 -63 1 -73
14 -73 95 0 30 -4 99 -10 153 -5 54 -11 131 -13 171 -4 69 -3 74 18 84 18 8
31 6 56 -6 35 -18 35 -18 65 37 9 18 23 27 38 27 13 0 27 7 30 16 4 9 13 14
21 10 12 -4 15 3 13 40 -1 28 -7 48 -15 51 -7 3 -13 13 -13 22 0 15 37 16 409
17 l409 2 7 -127z m797 107 c-2 -7 -8 -14 -13 -16 -5 -2 -9 -13 -9 -24 0 -17
5 -20 31 -16 36 6 36 15 -5 -135 -20 -76 -24 -102 -15 -118 6 -11 8 -27 5 -35
-4 -9 3 -18 17 -24 21 -8 21 -9 -6 -9 -19 -1 -39 10 -63 34 -19 19 -38 35 -42
35 -4 0 0 -6 9 -13 25 -19 11 -37 -31 -37 -28 0 -41 6 -53 23 -19 28 -26 21
-20 -20 l5 -33 134 0 c132 0 162 8 105 28 -39 14 -49 61 -28 132 9 29 13 58
11 65 -6 15 98 58 125 53 17 -4 21 -48 9 -105 l-7 -31 86 29 c51 17 95 26 109
23 23 -6 24 -10 24 -98 0 -50 -4 -106 -9 -124 l-10 -32 92 -1 c51 -1 106 -4
122 -8 29 -7 29 -7 9 -19 -12 -6 -58 -14 -103 -18 -68 -6 -81 -9 -76 -23 2 -9
11 -47 19 -86 8 -38 31 -137 50 -220 19 -82 33 -151 30 -154 -2 -3 -60 1 -127
8 -67 7 -173 16 -235 18 -108 5 -113 6 -110 27 3 18 14 23 86 35 l82 14 -1 36
-2 36 -6 -35 c-7 -33 -7 -32 -19 31 -13 72 -15 106 -6 96 4 -3 10 -21 14 -39
10 -43 3 98 -8 168 -10 61 -3 87 26 89 17 1 22 -4 22 -21 0 -33 -10 -54 -26
-54 -8 0 -14 -4 -14 -10 0 -5 13 -10 30 -10 21 0 43 -12 72 -37 30 -28 38 -32
29 -15 -6 12 -22 29 -35 37 -18 12 -24 25 -24 50 0 18 -3 38 -6 43 -3 6 15 12
45 14 28 1 52 0 54 -3 2 -3 7 -39 11 -81 8 -91 -1 -112 -47 -112 l-34 -1 -5
-89 c-3 -62 -9 -91 -18 -94 -11 -3 -13 15 -10 87 3 87 2 91 -18 91 -20 0 -20
-1 -6 -101 16 -115 15 -118 -53 -120 l-40 -2 35 -6 c19 -4 43 -4 52 1 21 10
98 9 163 -2 28 -4 54 -4 59 1 6 5 -3 56 -23 128 -28 108 -37 181 -21 181 3 0
5 12 4 28 0 15 -2 41 -2 58 -2 21 -9 34 -24 42 -13 6 -17 11 -10 11 7 1 10 6
7 11 -3 6 -39 10 -78 11 -40 0 -103 3 -140 8 -38 4 -70 5 -72 2 -2 -3 -164 -7
-361 -9 -197 -2 -362 -6 -366 -8 -15 -10 4 -25 23 -19 10 4 24 3 31 -1 7 -5
31 -10 53 -12 22 -2 41 -5 43 -7 2 -1 0 -18 -3 -37 l-6 -33 -77 3 c-100 4
-125 9 -115 25 11 17 10 137 -1 137 -5 0 -7 3 -4 6 12 12 139 23 273 25 98 1
134 4 121 11 -9 5 -40 8 -67 6 -51 -3 -57 0 -37 20 15 15 19 38 25 143 l4 86
57 -5 c47 -3 55 -2 45 9 -20 20 -128 21 -146 1 -23 -28 -28 -52 -11 -52 8 0
12 5 9 10 -7 12 5 13 23 2 16 -11 10 -105 -9 -147 -21 -45 -38 -54 -109 -54
-41 0 -87 -8 -125 -21 -84 -29 -101 -34 -93 -25 4 5 3 13 -2 20 -5 6 -12 56
-15 111 -2 54 -7 136 -11 181 -3 45 -4 85 -1 90 3 5 180 7 394 6 312 -2 387
-5 385 -15z m394 -827 c8 -35 11 -68 7 -72 -4 -4 -31 -5 -58 -1 l-50 7 4 65
c4 76 13 97 43 102 27 4 33 -8 54 -101z m-1836 91 c0 -6 -60 -41 -122 -70 -10
-5 -11 62 -1 71 9 10 123 9 123 -1z"/>
<path d="M685 1233 c11 -18 23 -33 28 -33 11 0 -8 34 -29 51 -16 12 -16 10 1
-18z"/>
<path d="M871 1246 c8 -8 129 -14 134 -7 2 5 -28 9 -67 9 -39 1 -69 0 -67 -2z"/>
<path d="M644 1219 c-3 -6 5 -23 19 -37 27 -29 57 -116 57 -167 0 -17 -7 -40
-15 -52 l-15 -22 97 -3 c54 -2 152 -1 218 2 112 6 107 6 -75 9 -158 2 -190 5
-170 14 42 20 68 57 40 57 -5 0 -10 -6 -10 -14 0 -7 -9 -16 -20 -19 -16 -4
-20 0 -20 17 0 28 18 46 47 46 13 0 23 4 23 9 0 19 -20 21 -45 5 -14 -9 -27
-15 -29 -13 -2 2 -13 34 -25 72 -13 37 -31 73 -42 80 -10 8 -16 17 -12 20 3 4
1 7 -5 7 -6 0 -14 -5 -18 -11z"/>
<path d="M1050 1193 c0 -13 5 -23 10 -23 13 0 13 11 0 30 -8 12 -10 11 -10 -7z"/>
<path d="M800 1105 c-7 -8 -8 -15 -2 -15 5 0 15 7 22 15 7 8 8 15 2 15 -5 0
-15 -7 -22 -15z"/>
<path d="M1070 1096 c0 -8 5 -18 10 -21 6 -3 10 1 10 9 0 8 -4 18 -10 21 -5 3
-10 -1 -10 -9z"/>
<path d="M1090 1053 c0 -16 25 -73 32 -73 4 0 8 -7 8 -15 0 -12 15 -15 79 -15
43 0 107 -3 142 -6 49 -4 60 -3 46 6 -9 6 -67 13 -128 15 -121 5 -134 10 -156
63 -12 30 -23 41 -23 25z"/>
<path d="M548 598 c-2 -24 -1 -45 4 -46 5 -2 15 -10 23 -19 8 -8 15 -10 15 -4
0 5 -4 13 -10 16 -5 3 -10 22 -10 42 0 30 2 34 15 23 12 -10 15 -10 15 4 0 9
-4 16 -9 16 -5 0 -16 3 -24 6 -11 4 -16 -5 -19 -38z"/>
<path d="M992 481 c-8 -5 -12 -15 -10 -24 2 -12 7 -10 21 9 18 24 13 31 -11
15z"/>
<path d="M2063 1247 c-46 -6 -83 -15 -83 -20 0 -5 6 -7 14 -4 7 3 19 0 26 -6
10 -9 11 -9 6 0 -5 8 7 12 42 11 26 0 63 7 82 15 40 18 31 18 -87 4z"/>
<path d="M1940 1230 c0 -5 7 -10 15 -10 8 0 15 5 15 10 0 6 -7 10 -15 10 -8 0
-15 -4 -15 -10z"/>
<path d="M2295 1159 c-4 -6 -5 -13 -2 -16 7 -7 27 6 27 18 0 12 -17 12 -25 -2z"/>
<path d="M2331 1109 c-6 -18 -11 -37 -10 -43 0 -6 7 7 15 28 8 22 12 41 10 43
-2 2 -9 -10 -15 -28z"/>
<path d="M2263 1069 c-8 -30 -7 -39 2 -39 8 0 11 8 8 19 -3 12 1 20 10 23 13
2 13 6 3 20 -11 15 -14 12 -23 -23z"/>
<path d="M2360 1058 c0 -7 -11 -36 -24 -65 -26 -56 -23 -63 28 -63 13 0 35 -9
49 -20 14 -11 34 -20 45 -20 15 0 18 5 14 25 -2 14 -9 25 -14 25 -6 0 -8 -6
-5 -14 4 -9 -11 -5 -40 12 -49 27 -47 18 -26 110 4 16 1 22 -11 22 -9 0 -16
-6 -16 -12z"/>
<path d="M1961 1035 c-14 -13 -29 -21 -35 -18 -6 3 -6 0 1 -7 13 -14 48 -6 38
10 -4 6 7 10 25 10 21 0 30 4 28 13 -7 21 -32 17 -57 -8z"/>
<path d="M2475 1047 c-12 -15 -15 -58 -3 -51 4 3 8 14 8 24 0 10 8 24 18 29
13 8 14 10 2 10 -8 0 -19 -5 -25 -12z"/>
<path d="M2040 1030 c0 -5 9 -14 19 -19 16 -9 18 -8 14 9 -5 20 -33 29 -33 10z"/>
<path d="M1930 965 c0 -8 5 -15 10 -15 6 0 10 -11 10 -25 0 -14 5 -25 11 -25
7 0 10 12 7 30 -3 17 -1 30 4 30 5 0 6 5 3 10 -10 16 -45 12 -45 -5z"/>
<path d="M1910 910 c0 -18 4 -29 10 -25 6 3 10 15 10 25 0 10 -4 22 -10 25 -6
4 -10 -7 -10 -25z"/>
<path d="M2228 893 c12 -2 30 -2 40 0 9 3 -1 5 -23 4 -22 0 -30 -2 -17 -4z"/>
<path d="M1820 416 c0 -17 24 -19 75 -6 l30 8 -35 0 c-19 0 -43 3 -52 7 -13 5
-18 3 -18 -9z"/>
</g>
</svg>
